<?xml version="1.0" encoding="utf-8"?>
<svg xmlns="http://www.w3.org/2000/svg">
  <defs>
    <symbol id="background" viewBox="0 0 5693 567">
      <path
        d="M5692.91 475.878C5459.67 475.878 5364.53 475.878 4959.46 475.878C4554.38 475.878 4337.93 475.878 4226 475.878C4226 324.022 4554.38 200.918 4959.46 200.918C5364.53 200.918 5692.91 324.022 5692.91 475.878Z"
        fill="#80C9B2" />
      <path
        d="M4852.02 436.251C4852.02 554.786 4527.07 484.568 4126.21 484.568C3725.36 484.568 3400.4 523.501 3400.4 436.251C3400.4 302.825 3725.36 194.662 4126.21 194.662C4527.07 194.662 4852.02 302.825 4852.02 436.251Z"
        fill="#88EBB9" />
      <path
        d="M4023.24 475.878C3789.99 475.878 3694.86 475.878 3289.78 475.878C2884.7 475.878 2668.25 475.878 2556.32 475.878C2556.32 324.022 2884.7 200.918 3289.78 200.918C3694.86 200.918 4023.24 324.022 4023.24 475.878Z"
        fill="#80C9B2" />
      <path
        d="M3220.96 436.251C3220.96 554.786 2896 484.568 2495.15 484.568C2094.29 484.568 1769.34 523.501 1769.34 436.251C1769.34 302.825 2094.29 194.662 2495.15 194.662C2896 194.662 3220.96 302.825 3220.96 436.251Z"
        fill="#88EBB9" />
      <path
        d="M2356.1 475.878C2036.65 475.878 2027.72 475.878 1622.64 475.878C1217.57 475.878 1131.47 475.878 889.187 475.878C889.187 324.022 1217.57 200.918 1622.64 200.918C2027.72 200.918 2356.1 324.022 2356.1 475.878Z"
        fill="#80C9B2" />
      <path
        d="M1451.62 486.306C935.766 486.306 1088.77 486.306 687.92 486.306C287.067 486.306 351.086 486.306 0 486.306C0 352.88 324.956 244.717 725.81 244.717C1126.66 244.717 1451.62 352.88 1451.62 486.306Z"
        fill="#88EBB9" />
      <rect x="640.298" y="241.937" width="14.5996" height="123.054" fill="#9C7D66" />
      <ellipse cx="647.597" cy="221.428" rx="71.2601" ry="103.935" fill="#00BD80" />
      <path
        d="M712.491 212.39C712.491 240.45 704.855 265.786 692.587 284.064C680.312 302.351 663.517 313.435 645.164 313.435C626.811 313.435 610.016 302.351 597.742 284.064C585.474 265.786 577.837 240.45 577.837 212.39C577.837 184.33 585.474 158.993 597.742 140.715C610.016 122.428 626.811 111.345 645.164 111.345C663.517 111.345 680.312 122.428 692.587 140.715C704.855 158.993 712.491 184.33 712.491 212.39Z"
        fill="#AEEFCE" stroke="#00BD80" stroke-width="3" />
      <rect x="1037.96" y="219.689" width="14.5996" height="123.054" fill="#9C7D66" />
      <ellipse cx="1045.26" cy="199.181" rx="71.2601" ry="103.935" fill="#00BD80" />
      <path
        d="M1110.16 190.143C1110.16 218.203 1102.52 243.539 1090.25 261.817C1077.98 280.104 1061.18 291.188 1042.83 291.188C1024.48 291.188 1007.68 280.104 995.408 261.817C983.14 243.539 975.503 218.203 975.503 190.143C975.503 162.082 983.14 136.746 995.408 118.468C1007.68 100.181 1024.48 89.0977 1042.83 89.0977C1061.18 89.0977 1077.98 100.181 1090.25 118.468C1102.52 136.746 1110.16 162.082 1110.16 190.143Z"
        fill="#AEEFCE" stroke="#00BD80" stroke-width="3" />
      <path fill-rule="evenodd" clip-rule="evenodd"
        d="M685.723 261.525C680.182 225.53 690.49 192.929 713.685 181.448C733.67 171.557 758.19 179.832 778.168 200.369C799.154 180.462 824.309 173.234 844.026 184.268C865.763 196.433 874.801 227.385 869.218 261.363C885.245 274.236 894.768 291.684 893.814 310.335C891.978 346.268 851.952 373.057 804.415 370.171C796.801 369.709 789.456 368.513 782.497 366.683C771.28 371.067 758.657 373.675 745.276 373.995C697.676 375.133 658.502 346.888 657.778 310.908C657.388 291.542 668.217 273.883 685.723 261.525Z"
        fill="#00BD80" />
      <mask id="path-14-inside-1_119_2" fill="white">
        <path fill-rule="evenodd" clip-rule="evenodd"
          d="M685.634 254.621C680.093 221.594 690.401 191.682 713.596 181.148C733.58 172.072 758.1 179.665 778.079 198.508C799.065 180.243 824.22 173.611 843.937 183.735C865.674 194.897 874.711 223.296 869.129 254.472C885.156 266.283 894.678 282.292 893.725 299.404C891.888 332.374 851.863 356.954 804.326 354.306C796.712 353.882 789.367 352.785 782.408 351.106C771.191 355.128 758.568 357.521 745.186 357.815C697.587 358.859 658.413 332.944 657.688 299.931C657.299 282.162 668.128 265.959 685.634 254.621Z" />
      </mask>
      <path fill-rule="evenodd" clip-rule="evenodd"
        d="M685.634 254.621C680.093 221.594 690.401 191.682 713.596 181.148C733.58 172.072 758.1 179.665 778.079 198.508C799.065 180.243 824.22 173.611 843.937 183.735C865.674 194.897 874.711 223.296 869.129 254.472C885.156 266.283 894.678 282.292 893.725 299.404C891.888 332.374 851.863 356.954 804.326 354.306C796.712 353.882 789.367 352.785 782.408 351.106C771.191 355.128 758.568 357.521 745.186 357.815C697.587 358.859 658.413 332.944 657.688 299.931C657.299 282.162 668.128 265.959 685.634 254.621Z"
        fill="#AEEFCE" />
      <path
        d="M685.634 254.621L687.265 257.139L688.919 256.068L688.593 254.124L685.634 254.621ZM713.596 181.148L714.837 183.879L713.596 181.148ZM778.079 198.508L776.02 200.69L777.998 202.555L780.048 200.771L778.079 198.508ZM843.937 183.735L842.567 186.404L842.567 186.404L843.937 183.735ZM869.129 254.472L866.176 253.943L865.847 255.78L867.349 256.887L869.129 254.472ZM893.725 299.404L896.72 299.571L896.72 299.571L893.725 299.404ZM804.326 354.306L804.493 351.311L804.326 354.306ZM782.408 351.106L783.111 348.19L782.239 347.979L781.395 348.282L782.408 351.106ZM745.186 357.815L745.12 354.816L745.12 354.816L745.186 357.815ZM657.688 299.931L654.689 299.997L657.688 299.931ZM688.593 254.124C683.155 221.712 693.442 193.596 714.837 183.879L712.356 178.416C687.36 189.768 677.031 221.476 682.675 255.117L688.593 254.124ZM714.837 183.879C733.275 175.505 756.518 182.296 776.02 200.69L780.137 196.325C759.683 177.033 733.885 168.639 712.356 178.416L714.837 183.879ZM780.048 200.771C800.542 182.935 824.375 177.063 842.567 186.404L845.307 181.066C824.065 170.159 797.588 177.551 776.109 196.245L780.048 200.771ZM842.567 186.404C862.618 196.7 871.647 223.39 866.176 253.943L872.082 255C877.776 223.201 868.73 193.093 845.307 181.066L842.567 186.404ZM867.349 256.887C882.836 268.299 891.61 283.434 890.73 299.238L896.72 299.571C897.747 281.15 887.477 264.266 870.908 252.057L867.349 256.887ZM890.73 299.238C889.882 314.464 880.2 328.071 864.593 337.655C848.998 347.233 827.728 352.605 804.493 351.311L804.159 357.301C828.461 358.655 850.972 353.061 867.733 342.768C884.482 332.482 895.732 317.314 896.72 299.571L890.73 299.238ZM804.493 351.311C797.058 350.896 789.893 349.826 783.111 348.19L781.704 354.022C788.841 355.744 796.366 356.867 804.159 357.301L804.493 351.311ZM781.395 348.282C770.492 352.192 758.189 354.529 745.12 354.816L745.252 360.814C758.946 360.514 771.89 358.065 783.42 353.93L781.395 348.282ZM745.12 354.816C721.855 355.326 700.778 349.24 685.514 339.142C670.239 329.037 661.022 315.111 660.688 299.865L654.689 299.997C655.079 317.763 665.811 333.302 682.204 344.146C698.608 354.998 720.918 361.348 745.252 360.814L745.12 354.816ZM660.688 299.865C660.328 283.458 670.323 268.111 687.265 257.139L684.003 252.103C665.932 263.806 654.269 280.866 654.689 299.997L660.688 299.865Z"
        fill="#00BD80" mask="url(#path-14-inside-1_119_2)" />
      <path
        d="M772.39 340.658L736.238 278.088L777.256 326.754L827.66 278.088L786.989 340.658V421.651H772.39V340.658Z"
        fill="#9C7D66" />
      <path fill-rule="evenodd" clip-rule="evenodd"
        d="M242.868 225.374C237.327 189.379 247.635 156.778 270.83 145.297C290.814 135.406 315.334 143.681 335.313 164.217C356.299 144.311 381.453 137.083 401.171 148.117C422.908 160.282 431.945 191.234 426.363 225.212C442.39 238.085 451.912 255.533 450.959 274.183C449.122 310.116 409.097 336.906 361.56 334.02C353.946 333.557 346.601 332.362 339.642 330.532C328.425 334.916 315.802 337.524 302.42 337.844C254.821 338.982 215.646 310.737 214.922 274.757C214.533 255.391 225.362 237.731 242.868 225.374Z"
        fill="#00BD80" />
      <mask id="path-18-inside-2_119_2" fill="white">
        <path fill-rule="evenodd" clip-rule="evenodd"
          d="M242.779 218.469C237.238 185.443 247.546 155.53 270.741 144.996C290.725 135.921 315.245 143.513 335.224 162.356C356.21 144.092 381.365 137.459 401.082 147.584C422.819 158.745 431.856 187.144 426.274 218.32C442.301 230.131 451.823 246.141 450.87 263.253C449.034 296.222 409.008 320.803 361.471 318.155C353.857 317.73 346.512 316.633 339.553 314.955C328.336 318.977 315.713 321.37 302.331 321.664C254.732 322.708 215.558 296.792 214.833 263.78C214.444 246.011 225.273 229.807 242.779 218.469Z" />
      </mask>
      <path fill-rule="evenodd" clip-rule="evenodd"
        d="M242.779 218.469C237.238 185.443 247.546 155.53 270.741 144.996C290.725 135.921 315.245 143.513 335.224 162.356C356.21 144.092 381.365 137.459 401.082 147.584C422.819 158.745 431.856 187.144 426.274 218.32C442.301 230.131 451.823 246.141 450.87 263.253C449.034 296.222 409.008 320.803 361.471 318.155C353.857 317.73 346.512 316.633 339.553 314.955C328.336 318.977 315.713 321.37 302.331 321.664C254.732 322.708 215.558 296.792 214.833 263.78C214.444 246.011 225.273 229.807 242.779 218.469Z"
        fill="#AEEFCE" />
      <path
        d="M242.779 218.469L244.41 220.987L246.064 219.916L245.738 217.973L242.779 218.469ZM270.741 144.996L269.501 142.265L270.741 144.996ZM335.224 162.356L333.166 164.539L335.143 166.404L337.193 164.619L335.224 162.356ZM401.082 147.584L399.712 150.253L399.712 150.253L401.082 147.584ZM426.274 218.32L423.321 217.791L422.992 219.628L424.494 220.735L426.274 218.32ZM450.87 263.253L453.865 263.42L453.865 263.42L450.87 263.253ZM361.471 318.155L361.638 315.159L361.638 315.159L361.471 318.155ZM339.553 314.955L340.256 312.038L339.385 311.828L338.54 312.131L339.553 314.955ZM302.331 321.664L302.265 318.664L302.265 318.664L302.331 321.664ZM214.833 263.78L211.834 263.845L214.833 263.78ZM245.738 217.973C240.3 185.561 250.587 157.444 271.982 147.728L269.501 142.265C244.505 153.617 234.176 185.324 239.82 218.966L245.738 217.973ZM271.982 147.728C290.42 139.354 313.663 146.145 333.166 164.539L337.282 160.174C316.828 140.882 291.03 132.487 269.501 142.265L271.982 147.728ZM337.193 164.619C357.687 146.783 381.52 140.911 399.712 150.253L402.452 144.915C381.21 134.008 354.733 141.4 333.254 160.093L337.193 164.619ZM399.712 150.253C419.763 160.548 428.792 187.239 423.321 217.791L429.227 218.849C434.921 187.05 425.875 156.942 402.452 144.915L399.712 150.253ZM424.494 220.735C439.981 232.148 448.755 247.283 447.875 263.086L453.865 263.42C454.892 244.998 444.622 228.115 428.053 215.905L424.494 220.735ZM447.875 263.086C447.027 278.313 437.346 291.919 421.738 301.504C406.143 311.081 384.873 316.454 361.638 315.159L361.304 321.15C385.606 322.504 408.117 316.91 424.878 306.617C441.627 296.331 452.877 281.163 453.865 263.42L447.875 263.086ZM361.638 315.159C354.203 314.745 347.038 313.674 340.256 312.038L338.849 317.871C345.986 319.593 353.511 320.716 361.304 321.15L361.638 315.159ZM338.54 312.131C327.637 316.041 315.334 318.378 302.265 318.664L302.397 324.663C316.091 324.362 329.035 321.913 340.566 317.779L338.54 312.131ZM302.265 318.664C279 319.175 257.923 313.088 242.659 302.991C227.384 292.885 218.167 278.96 217.833 263.714L211.834 263.845C212.224 281.612 222.956 297.15 239.349 307.995C255.753 318.847 278.063 325.197 302.397 324.663L302.265 318.664ZM217.833 263.714C217.473 247.307 227.468 231.96 244.41 220.987L241.148 215.951C223.077 227.655 211.414 244.715 211.834 263.845L217.833 263.714Z"
        fill="#00BD80" mask="url(#path-18-inside-2_119_2)" />
      <path
        d="M329.535 304.507L293.383 241.937L334.401 290.602L384.805 241.937L344.134 304.507V385.5H329.535V304.507Z"
        fill="#9C7D66" />
      <path fill-rule="evenodd" clip-rule="evenodd"
        d="M1718.82 87.025C1713.28 51.0299 1723.59 18.4289 1746.78 6.94792C1766.77 -2.94356 1791.29 5.33168 1811.27 25.8682C1832.25 5.96201 1857.41 -1.26644 1877.12 9.76793C1898.86 21.9326 1907.9 52.8844 1902.32 86.8625C1918.34 99.7354 1927.86 117.184 1926.91 135.834C1925.08 171.767 1885.05 198.557 1837.51 195.67C1829.9 195.208 1822.55 194.013 1815.59 192.183C1804.38 196.567 1791.75 199.175 1778.37 199.495C1730.77 200.633 1691.6 172.388 1690.87 136.408C1690.49 117.042 1701.31 99.3821 1718.82 87.025Z"
        fill="#00BD80" />
      <mask id="path-22-inside-3_119_2" fill="white">
        <path fill-rule="evenodd" clip-rule="evenodd"
          d="M1718.73 80.1197C1713.19 47.0932 1723.5 17.1808 1746.69 6.64673C1766.68 -2.42899 1791.2 5.16378 1811.18 24.0066C1832.16 5.74213 1857.32 -0.890173 1877.03 9.23417C1898.77 20.3956 1907.81 48.7948 1902.23 79.9706C1918.25 91.7818 1927.78 107.791 1926.82 124.903C1924.99 157.873 1884.96 182.453 1837.42 179.805C1829.81 179.381 1822.46 178.284 1815.51 176.605C1804.29 180.627 1791.66 183.02 1778.28 183.314C1730.68 184.358 1691.51 158.443 1690.79 125.43C1690.4 107.661 1701.22 91.4577 1718.73 80.1197Z" />
      </mask>
      <path fill-rule="evenodd" clip-rule="evenodd"
        d="M1718.73 80.1197C1713.19 47.0932 1723.5 17.1808 1746.69 6.64673C1766.68 -2.42899 1791.2 5.16378 1811.18 24.0066C1832.16 5.74213 1857.32 -0.890173 1877.03 9.23417C1898.77 20.3956 1907.81 48.7948 1902.23 79.9706C1918.25 91.7818 1927.78 107.791 1926.82 124.903C1924.99 157.873 1884.96 182.453 1837.42 179.805C1829.81 179.381 1822.46 178.284 1815.51 176.605C1804.29 180.627 1791.66 183.02 1778.28 183.314C1730.68 184.358 1691.51 158.443 1690.79 125.43C1690.4 107.661 1701.22 91.4577 1718.73 80.1197Z"
        fill="#AEEFCE" />
      <path
        d="M1718.73 80.1197L1720.36 82.6377L1722.02 81.5666L1721.69 79.6233L1718.73 80.1197ZM1746.69 6.64673L1747.93 9.37824L1747.93 9.37824L1746.69 6.64673ZM1811.18 24.0066L1809.12 26.189L1811.1 28.0541L1813.15 26.2696L1811.18 24.0066ZM1877.03 9.23417L1875.66 11.9029L1875.66 11.9029L1877.03 9.23417ZM1902.23 79.9706L1899.27 79.4418L1898.94 81.2786L1900.45 82.3857L1902.23 79.9706ZM1926.82 124.903L1929.82 125.07L1929.82 125.07L1926.82 124.903ZM1837.42 179.805L1837.59 176.81L1837.59 176.81L1837.42 179.805ZM1815.51 176.605L1816.21 173.689L1815.34 173.478L1814.49 173.781L1815.51 176.605ZM1778.28 183.314L1778.22 180.315L1778.22 180.315L1778.28 183.314ZM1690.79 125.43L1687.79 125.496L1690.79 125.43ZM1721.69 79.6233C1716.25 47.2115 1726.54 19.0946 1747.93 9.37824L1745.45 3.91522C1720.46 15.267 1710.13 46.9749 1715.77 80.616L1721.69 79.6233ZM1747.93 9.37824C1766.37 1.00436 1789.62 7.79545 1809.12 26.189L1813.23 21.8242C1792.78 2.53211 1766.98 -5.86233 1745.45 3.91522L1747.93 9.37824ZM1813.15 26.2696C1833.64 8.43384 1857.47 2.56174 1875.66 11.9029L1878.4 6.56543C1857.16 -4.34208 1830.69 3.05041 1809.21 21.7436L1813.15 26.2696ZM1875.66 11.9029C1895.71 22.1987 1904.74 48.8893 1899.27 79.4418L1905.18 80.4994C1910.87 48.7002 1901.83 18.5925 1878.4 6.56543L1875.66 11.9029ZM1900.45 82.3857C1915.93 93.7984 1924.71 108.933 1923.83 124.737L1929.82 125.07C1930.84 106.649 1920.57 89.7653 1904.01 77.5555L1900.45 82.3857ZM1923.83 124.737C1922.98 139.963 1913.3 153.57 1897.69 163.154C1882.09 172.732 1860.83 178.104 1837.59 176.81L1837.26 182.8C1861.56 184.154 1884.07 178.56 1900.83 168.267C1917.58 157.981 1928.83 142.813 1929.82 125.07L1923.83 124.737ZM1837.59 176.81C1830.16 176.395 1822.99 175.325 1816.21 173.689L1814.8 179.521C1821.94 181.243 1829.46 182.366 1837.26 182.8L1837.59 176.81ZM1814.49 173.781C1803.59 177.691 1791.29 180.028 1778.22 180.315L1778.35 186.313C1792.04 186.013 1804.99 183.564 1816.52 179.429L1814.49 173.781ZM1778.22 180.315C1754.95 180.825 1733.88 174.739 1718.61 164.641C1703.34 154.536 1694.12 140.61 1693.78 125.364L1687.79 125.496C1688.18 143.262 1698.91 158.801 1715.3 169.645C1731.71 180.497 1754.02 186.847 1778.35 186.313L1778.22 180.315ZM1693.78 125.364C1693.42 108.957 1703.42 93.6102 1720.36 82.6377L1717.1 77.6016C1699.03 89.3052 1687.37 106.365 1687.79 125.496L1693.78 125.364Z"
        fill="#00BD80" mask="url(#path-22-inside-3_119_2)" />
      <path
        d="M1805.49 166.158L1769.34 103.588L1810.35 152.253L1860.76 103.588L1820.09 166.158V247.151H1805.49V166.158Z"
        fill="#9C7D66" />
      <rect x="474.835" y="276.002" width="14.5996" height="123.054" fill="#9C7D66" />
      <path d="M482.831 211.347L590.904 344.308H374.758L482.831 211.347Z" fill="#00BD80" />
      <path d="M404.031 285.973L482.483 170.221L560.935 285.973H404.031Z" fill="#AEEFCE"
        stroke="#00BD80" stroke-width="3" />
      <path d="M482.831 141.129L537.319 230.813H428.342L482.831 141.129Z" fill="#00BD80" />
      <path d="M457.766 172.131L482.483 120.283L507.2 172.131H457.766Z" fill="#AEEFCE"
        stroke="#00BD80" stroke-width="3" />
      <rect x="1290.33" y="191.881" width="14.5996" height="123.054" fill="#9C7D66" />
      <path d="M1298.32 127.225L1406.4 260.186H1190.25L1298.32 127.225Z" fill="#00BD80" />
      <path d="M1219.52 201.852L1297.98 86.0999L1376.43 201.852H1219.52Z" fill="#AEEFCE"
        stroke="#00BD80" stroke-width="3" />
      <path d="M1298.32 57.0078L1352.81 146.691H1243.84L1298.32 57.0078Z" fill="#00BD80" />
      <path d="M1273.26 88.0095L1297.98 36.1611L1322.69 88.0095H1273.26Z" fill="#AEEFCE"
        stroke="#00BD80" stroke-width="3" />
      <rect x="2517.39" y="159.206" width="14.5996" height="123.054" fill="#9C7D66" />
      <path d="M2525.39 94.5498L2633.46 227.511H2417.31L2525.39 94.5498Z" fill="#00BD80" />
      <path d="M2446.59 169.176L2525.04 53.4246L2603.49 169.176H2446.59Z" fill="#AEEFCE"
        stroke="#00BD80" stroke-width="3" />
      <path d="M2525.39 24.3325L2579.88 114.016H2470.9L2525.39 24.3325Z" fill="#00BD80" />
      <path d="M2500.32 55.3343L2525.04 3.4858L2549.76 55.3343H2500.32Z" fill="#AEEFCE"
        stroke="#00BD80" stroke-width="3" />
      <rect x="1942.45" y="284.345" width="14.5996" height="123.054" fill="#9C7D66" />
      <path d="M1950.44 219.689L2058.51 352.65H1842.37L1950.44 219.689Z" fill="#00BD80" />
      <path d="M1871.64 294.316L1950.09 178.564L2028.54 294.316H1871.64Z" fill="#AEEFCE"
        stroke="#00BD80" stroke-width="3" />
      <path d="M1950.44 149.472L2004.93 239.156H1895.95L1950.44 149.472Z" fill="#00BD80" />
      <path d="M1925.38 180.474L1950.09 128.625L1974.81 180.474H1925.38Z" fill="#AEEFCE"
        stroke="#00BD80" stroke-width="3" />
      <rect x="6" y="449" width="5687" height="118" fill="#D9D9D9" />
      <rect x="1690.78" y="196.747" width="14.5996" height="123.054" fill="#9C7D66" />
      <ellipse cx="1698.08" cy="176.238" rx="71.2601" ry="103.935" fill="#00BD80" />
      <path
        d="M1762.97 167.2C1762.97 195.26 1755.33 220.597 1743.06 238.875C1730.79 257.162 1714 268.245 1695.64 268.245C1677.29 268.245 1660.49 257.162 1648.22 238.875C1635.95 220.597 1628.32 195.26 1628.32 167.2C1628.32 139.14 1635.95 113.804 1648.22 95.5259C1660.49 77.2385 1677.29 66.1553 1695.64 66.1553C1714 66.1553 1730.79 77.2385 1743.06 95.5259C1755.33 113.804 1762.97 139.14 1762.97 167.2Z"
        fill="#AEEFCE" stroke="#00BD80" stroke-width="3" />
      <path fill-rule="evenodd" clip-rule="evenodd"
        d="M1389.29 209.384C1383.75 173.389 1394.05 140.788 1417.25 129.307C1437.23 119.415 1461.75 127.691 1481.73 148.227C1502.72 128.321 1527.87 121.092 1547.59 132.127C1569.33 144.291 1578.36 175.243 1572.78 209.221C1588.81 222.094 1598.33 239.542 1597.38 258.193C1595.54 294.126 1555.52 320.916 1507.98 318.029C1500.36 317.567 1493.02 316.372 1486.06 314.542C1474.84 318.926 1462.22 321.534 1448.84 321.854C1401.24 322.992 1362.06 294.747 1361.34 258.767C1360.95 239.401 1371.78 221.741 1389.29 209.384Z"
        fill="#00BD80" />
      <mask id="path-50-inside-4_119_2" fill="white">
        <path fill-rule="evenodd" clip-rule="evenodd"
          d="M1389.2 202.479C1383.66 169.453 1393.96 139.54 1417.16 129.006C1437.14 119.93 1461.66 127.523 1481.64 146.366C1502.63 128.101 1527.78 121.469 1547.5 131.594C1569.24 142.755 1578.27 171.154 1572.69 202.33C1588.72 214.141 1598.24 230.15 1597.29 247.263C1595.45 280.232 1555.43 304.812 1507.89 302.164C1500.27 301.74 1492.93 300.643 1485.97 298.964C1474.75 302.987 1462.13 305.38 1448.75 305.673C1401.15 306.717 1361.98 280.802 1361.25 247.789C1360.86 230.02 1371.69 213.817 1389.2 202.479Z" />
      </mask>
      <path fill-rule="evenodd" clip-rule="evenodd"
        d="M1389.2 202.479C1383.66 169.453 1393.96 139.54 1417.16 129.006C1437.14 119.93 1461.66 127.523 1481.64 146.366C1502.63 128.101 1527.78 121.469 1547.5 131.594C1569.24 142.755 1578.27 171.154 1572.69 202.33C1588.72 214.141 1598.24 230.15 1597.29 247.263C1595.45 280.232 1555.43 304.812 1507.89 302.164C1500.27 301.74 1492.93 300.643 1485.97 298.964C1474.75 302.987 1462.13 305.38 1448.75 305.673C1401.15 306.717 1361.98 280.802 1361.25 247.789C1360.86 230.02 1371.69 213.817 1389.2 202.479Z"
        fill="#AEEFCE" />
      <path
        d="M1389.2 202.479L1390.83 204.997L1392.48 203.926L1392.16 201.983L1389.2 202.479ZM1417.16 129.006L1418.4 131.738L1418.4 131.738L1417.16 129.006ZM1481.64 146.366L1479.58 148.548L1481.56 150.413L1483.61 148.629L1481.64 146.366ZM1547.5 131.594L1548.87 128.925L1548.87 128.925L1547.5 131.594ZM1572.69 202.33L1569.74 201.801L1569.41 203.638L1570.91 204.745L1572.69 202.33ZM1597.29 247.263L1600.28 247.43L1600.28 247.43L1597.29 247.263ZM1507.89 302.164L1508.06 299.169L1508.06 299.169L1507.89 302.164ZM1485.97 298.964L1486.67 296.048L1485.8 295.838L1484.96 296.14L1485.97 298.964ZM1448.75 305.673L1448.68 302.674L1448.68 302.674L1448.75 305.673ZM1361.25 247.789L1358.25 247.855L1361.25 247.789ZM1392.16 201.983C1386.72 169.571 1397 141.454 1418.4 131.738L1415.92 126.275C1390.92 137.626 1380.59 169.334 1386.24 202.975L1392.16 201.983ZM1418.4 131.738C1436.84 123.364 1460.08 130.155 1479.58 148.548L1483.7 144.184C1463.25 124.891 1437.45 116.497 1415.92 126.275L1418.4 131.738ZM1483.61 148.629C1504.1 130.793 1527.94 124.921 1546.13 134.262L1548.87 128.925C1527.63 118.017 1501.15 125.41 1479.67 144.103L1483.61 148.629ZM1546.13 134.262C1566.18 144.558 1575.21 171.249 1569.74 201.801L1575.64 202.859C1581.34 171.06 1572.29 140.952 1548.87 128.925L1546.13 134.262ZM1570.91 204.745C1586.4 216.158 1595.17 231.292 1594.29 247.096L1600.28 247.43C1601.31 229.008 1591.04 212.125 1574.47 199.915L1570.91 204.745ZM1594.29 247.096C1593.44 262.322 1583.76 275.929 1568.16 285.514C1552.56 295.091 1531.29 300.463 1508.06 299.169L1507.72 305.16C1532.02 306.513 1554.54 300.92 1571.3 290.627C1588.05 280.341 1599.3 265.173 1600.28 247.43L1594.29 247.096ZM1508.06 299.169C1500.62 298.755 1493.46 297.684 1486.67 296.048L1485.27 301.881C1492.4 303.602 1499.93 304.726 1507.72 305.16L1508.06 299.169ZM1484.96 296.14C1474.05 300.05 1461.75 302.387 1448.68 302.674L1448.81 308.673C1462.51 308.372 1475.45 305.923 1486.98 301.788L1484.96 296.14ZM1448.68 302.674C1425.42 303.184 1404.34 297.098 1389.08 287.001C1373.8 276.895 1364.59 262.97 1364.25 247.724L1358.25 247.855C1358.64 265.621 1369.37 281.16 1385.77 292.005C1402.17 302.857 1424.48 309.206 1448.81 308.673L1448.68 302.674ZM1364.25 247.724C1363.89 231.316 1373.89 215.97 1390.83 204.997L1387.57 199.961C1369.5 211.665 1357.83 228.724 1358.25 247.855L1364.25 247.724Z"
        fill="#00BD80" mask="url(#path-50-inside-4_119_2)" />
      <path
        d="M1475.95 288.516L1439.8 225.946L1480.82 274.612L1531.22 225.946L1490.55 288.516V369.509H1475.95V288.516Z"
        fill="#9C7D66" />
      <path
        d="M1063.27 396.971H937.737C917.926 396.971 909.688 396.971 905.177 382.667C906.746 365.424 925.576 360.721 925.576 360.721C925.576 360.721 915.724 340.363 923.615 330.153C944.21 303.505 979.125 330.153 979.125 330.153C979.125 330.153 988.344 307.228 1012.86 310.363C1041.34 314.004 1036.91 339.416 1036.91 339.416C1036.91 339.416 1073.08 326.43 1063.39 359.794C1083.79 363.909 1091.71 392.268 1063.27 396.971Z"
        fill="#00BD80" />
      <path
        d="M306.873 425.475H181.338C161.527 425.475 153.289 425.475 148.777 411.171C150.347 393.928 169.177 389.225 169.177 389.225C169.177 389.225 159.325 368.867 167.215 358.657C187.811 332.009 222.725 358.657 222.725 358.657C222.725 358.657 231.945 335.732 256.463 338.867C284.936 342.508 280.512 367.92 280.512 367.92C280.512 367.92 316.681 354.934 306.992 388.298C327.391 392.413 335.315 420.772 306.873 425.475Z"
        fill="#00BD80" />
      <path
        d="M1694.53 412.266H1569C1549.19 412.266 1540.95 412.266 1536.44 397.962C1538.01 380.719 1556.84 376.016 1556.84 376.016C1556.84 376.016 1546.98 355.658 1554.87 345.448C1575.47 318.8 1610.38 345.448 1610.38 345.448C1610.38 345.448 1619.6 322.523 1644.12 325.658C1672.6 329.299 1668.17 354.711 1668.17 354.711C1668.17 354.711 1704.34 341.725 1694.65 375.089C1715.05 379.204 1722.97 407.563 1694.53 412.266Z"
        fill="#00BD80" />
      <path
        d="M1597.9 425.475H1472.36C1452.55 425.475 1444.31 425.475 1439.8 411.171C1441.37 393.928 1460.2 389.225 1460.2 389.225C1460.2 389.225 1450.35 368.867 1458.24 358.657C1478.83 332.009 1513.75 358.657 1513.75 358.657C1513.75 358.657 1522.97 335.732 1547.49 338.867C1575.96 342.508 1571.54 367.92 1571.54 367.92C1571.54 367.92 1607.7 354.934 1598.02 388.298C1618.41 392.413 1626.34 420.772 1597.9 425.475Z"
        fill="#AEEFCE" stroke="#00BD80" stroke-width="3" />
      <path
        d="M1221.09 374.028H1095.55C1075.74 374.028 1067.5 374.028 1062.99 359.724C1064.56 342.481 1083.39 337.779 1083.39 337.779C1083.39 337.779 1073.54 317.421 1081.43 307.211C1102.03 280.562 1136.94 307.211 1136.94 307.211C1136.94 307.211 1146.16 284.285 1170.68 287.421C1199.15 291.061 1194.73 316.474 1194.73 316.474C1194.73 316.474 1230.9 303.488 1221.21 336.852C1241.61 340.967 1249.53 369.326 1221.09 374.028Z"
        fill="#00BD80" />
      <path
        d="M661.435 414.351H535.9C516.089 414.351 507.851 414.351 503.339 400.047C504.909 382.804 523.739 378.101 523.739 378.101C523.739 378.101 513.887 357.744 521.777 347.534C542.373 320.885 577.287 347.534 577.287 347.534C577.287 347.534 586.507 324.608 611.025 327.743C639.498 331.384 635.074 356.796 635.074 356.796C635.074 356.796 671.243 343.811 661.554 377.175C681.953 381.29 689.877 409.649 661.435 414.351Z"
        fill="#AEEFCE" stroke="#00BD80" stroke-width="3" />
      <rect x="2338.03" y="226.642" width="14.5996" height="123.054" fill="#9C7D66" />
      <ellipse cx="2345.33" cy="206.133" rx="71.2601" ry="103.935" fill="#00BD80" />
      <path
        d="M2410.22 197.095C2410.22 225.155 2402.58 250.491 2390.31 268.769C2378.04 287.057 2361.25 298.14 2342.89 298.14C2324.54 298.14 2307.74 287.057 2295.47 268.769C2283.2 250.491 2275.57 225.155 2275.57 197.095C2275.57 169.035 2283.2 143.698 2295.47 125.42C2307.74 107.133 2324.54 96.0498 2342.89 96.0498C2361.25 96.0498 2378.04 107.133 2390.31 125.42C2402.58 143.698 2410.22 169.035 2410.22 197.095Z"
        fill="#AEEFCE" stroke="#00BD80" stroke-width="3" />
      <rect x="2735.69" y="204.395" width="14.5996" height="123.054" fill="#9C7D66" />
      <ellipse cx="2742.99" cy="183.886" rx="71.2601" ry="103.935" fill="#00BD80" />
      <path
        d="M2807.89 174.848C2807.89 202.908 2800.25 228.244 2787.98 246.522C2775.71 264.809 2758.91 275.893 2740.56 275.893C2722.21 275.893 2705.41 264.809 2693.14 246.522C2680.87 228.244 2673.23 202.908 2673.23 174.848C2673.23 146.788 2680.87 121.451 2693.14 103.173C2705.41 84.8859 2722.21 73.8027 2740.56 73.8027C2758.91 73.8027 2775.71 84.8859 2787.98 103.173C2800.25 121.451 2807.89 146.788 2807.89 174.848Z"
        fill="#AEEFCE" stroke="#00BD80" stroke-width="3" />
      <path fill-rule="evenodd" clip-rule="evenodd"
        d="M2383.45 246.23C2377.91 210.235 2388.22 177.634 2411.41 166.153C2431.4 156.262 2455.92 164.537 2475.9 185.074C2496.88 165.168 2522.04 157.939 2541.76 168.973C2563.49 181.138 2572.53 212.09 2566.95 246.068C2582.97 258.941 2592.5 276.389 2591.54 295.04C2589.71 330.973 2549.68 357.762 2502.14 354.876C2494.53 354.414 2487.19 353.218 2480.23 351.388C2469.01 355.772 2456.39 358.381 2443 358.7C2395.4 359.838 2356.23 331.593 2355.51 295.614C2355.12 276.247 2365.95 258.587 2383.45 246.23Z"
        fill="#00BD80" />
      <mask id="path-66-inside-5_119_2" fill="white">
        <path fill-rule="evenodd" clip-rule="evenodd"
          d="M2383.36 239.326C2377.82 206.299 2388.13 176.387 2411.32 165.853C2431.31 156.777 2455.83 164.37 2475.81 183.213C2496.79 164.948 2521.95 158.316 2541.66 168.44C2563.4 179.602 2572.44 208.001 2566.86 239.177C2582.88 250.988 2592.41 266.997 2591.45 284.11C2589.62 317.079 2549.59 341.659 2502.05 339.011C2494.44 338.587 2487.09 337.49 2480.14 335.811C2468.92 339.833 2456.3 342.226 2442.91 342.52C2395.31 343.564 2356.14 317.649 2355.42 284.636C2355.03 266.867 2365.86 250.664 2383.36 239.326Z" />
      </mask>
      <path fill-rule="evenodd" clip-rule="evenodd"
        d="M2383.36 239.326C2377.82 206.299 2388.13 176.387 2411.32 165.853C2431.31 156.777 2455.83 164.37 2475.81 183.213C2496.79 164.948 2521.95 158.316 2541.66 168.44C2563.4 179.602 2572.44 208.001 2566.86 239.177C2582.88 250.988 2592.41 266.997 2591.45 284.11C2589.62 317.079 2549.59 341.659 2502.05 339.011C2494.44 338.587 2487.09 337.49 2480.14 335.811C2468.92 339.833 2456.3 342.226 2442.91 342.52C2395.31 343.564 2356.14 317.649 2355.42 284.636C2355.03 266.867 2365.86 250.664 2383.36 239.326Z"
        fill="#AEEFCE" />
      <path
        d="M2383.36 239.326L2384.99 241.844L2386.65 240.773L2386.32 238.829L2383.36 239.326ZM2411.32 165.853L2410.08 163.121L2411.32 165.853ZM2475.81 183.213L2473.75 185.395L2475.73 187.26L2477.78 185.475L2475.81 183.213ZM2541.66 168.44L2543.03 165.771L2541.66 168.44ZM2566.86 239.177L2563.9 238.648L2563.57 240.485L2565.08 241.592L2566.86 239.177ZM2591.45 284.11L2594.45 284.276L2594.45 284.276L2591.45 284.11ZM2502.05 339.011L2501.89 342.006L2501.89 342.006L2502.05 339.011ZM2480.14 335.811L2480.84 332.895L2479.97 332.684L2479.12 332.987L2480.14 335.811ZM2442.91 342.52L2442.85 339.521L2442.85 339.521L2442.91 342.52ZM2355.42 284.636L2352.42 284.702L2355.42 284.636ZM2386.32 238.829C2380.88 206.418 2391.17 178.301 2412.56 168.584L2410.08 163.121C2385.09 174.473 2374.76 206.181 2380.4 239.822L2386.32 238.829ZM2412.56 168.584C2431 160.21 2454.25 167.001 2473.75 185.395L2477.87 181.03C2457.41 161.738 2431.61 153.344 2410.08 163.121L2412.56 168.584ZM2477.78 185.475C2498.27 167.64 2522.1 161.768 2540.29 171.109L2543.03 165.771C2521.79 154.864 2495.32 162.256 2473.84 180.95L2477.78 185.475ZM2540.29 171.109C2560.35 181.405 2569.37 208.095 2563.9 238.648L2569.81 239.705C2575.5 207.906 2566.46 177.799 2543.03 165.771L2540.29 171.109ZM2565.08 241.592C2580.56 253.004 2589.34 268.139 2588.46 283.943L2594.45 284.276C2595.47 265.855 2585.2 248.971 2568.64 236.762L2565.08 241.592ZM2588.46 283.943C2587.61 299.169 2577.93 312.776 2562.32 322.36C2546.73 331.938 2525.46 337.31 2502.22 336.016L2501.89 342.006C2526.19 343.36 2548.7 337.766 2565.46 327.473C2582.21 317.187 2593.46 302.019 2594.45 284.276L2588.46 283.943ZM2502.22 336.016C2494.79 335.601 2487.62 334.531 2480.84 332.895L2479.43 338.727C2486.57 340.449 2494.09 341.572 2501.89 342.006L2502.22 336.016ZM2479.12 332.987C2468.22 336.897 2455.92 339.234 2442.85 339.521L2442.98 345.519C2456.67 345.219 2469.62 342.77 2481.15 338.635L2479.12 332.987ZM2442.85 339.521C2419.58 340.031 2398.51 333.945 2383.24 323.847C2367.97 313.742 2358.75 299.817 2358.42 284.57L2352.42 284.702C2352.81 302.468 2363.54 318.007 2379.93 328.851C2396.34 339.704 2418.65 346.053 2442.98 345.519L2442.85 339.521ZM2358.42 284.57C2358.06 268.163 2368.05 252.816 2384.99 241.844L2381.73 236.808C2363.66 248.511 2352 265.571 2352.42 284.702L2358.42 284.57Z"
        fill="#00BD80" mask="url(#path-66-inside-5_119_2)" />
      <path
        d="M2470.12 325.363L2433.97 262.793L2474.98 311.458L2525.39 262.793L2484.72 325.363V406.356H2470.12V325.363Z"
        fill="#9C7D66" />
      <rect x="2145.45" y="223.861" width="14.5996" height="123.054" fill="#9C7D66" />
      <path d="M2153.44 159.205L2261.52 292.166H2045.37L2153.44 159.205Z" fill="#00BD80" />
      <path d="M2074.65 233.832L2153.1 118.08L2231.55 233.832H2074.65Z" fill="#AEEFCE"
        stroke="#00BD80" stroke-width="3" />
      <path d="M2153.44 88.9878L2207.93 178.671H2098.96L2153.44 88.9878Z" fill="#00BD80" />
      <path d="M2128.38 119.99L2153.1 68.1411L2177.81 119.99H2128.38Z" fill="#AEEFCE"
        stroke="#00BD80" stroke-width="3" />
      <path
        d="M2918.82 358.734H2793.28C2773.47 358.734 2765.23 358.734 2760.72 344.43C2762.29 327.186 2781.12 322.484 2781.12 322.484C2781.12 322.484 2771.27 302.126 2779.16 291.916C2799.75 265.268 2834.67 291.916 2834.67 291.916C2834.67 291.916 2843.89 268.99 2868.41 272.126C2896.88 275.766 2892.45 301.179 2892.45 301.179C2892.45 301.179 2928.62 288.193 2918.93 321.557C2939.33 325.672 2947.26 354.031 2918.82 358.734Z"
        fill="#00BD80" />
      <path
        d="M2263.92 415.047H2138.38C2118.57 415.047 2110.33 415.047 2105.82 400.743C2107.39 383.499 2126.22 378.797 2126.22 378.797C2126.22 378.797 2116.37 358.439 2124.26 348.229C2144.86 321.58 2179.77 348.229 2179.77 348.229C2179.77 348.229 2188.99 325.303 2213.51 328.439C2241.98 332.079 2237.56 357.492 2237.56 357.492C2237.56 357.492 2273.73 344.506 2264.04 377.87C2284.44 381.985 2292.36 410.344 2263.92 415.047Z"
        fill="#AEEFCE" stroke="#00BD80" stroke-width="3" />
      <path fill-rule="evenodd" clip-rule="evenodd"
        d="M3385.96 87.0246C3380.42 51.0296 3390.73 18.4288 3413.92 6.94792C3433.91 -2.94353 3458.43 5.33163 3478.41 25.868C3499.39 5.96197 3524.55 -1.2664 3544.26 9.76793C3566 21.9326 3575.04 52.8844 3569.45 86.8625C3585.48 99.7354 3595 117.184 3594.05 135.834C3592.21 171.767 3552.19 198.557 3504.65 195.67C3497.04 195.208 3489.69 194.013 3482.73 192.183C3471.52 196.567 3458.89 199.175 3445.51 199.495C3397.91 200.633 3358.74 172.388 3358.01 136.408C3357.62 117.042 3368.45 99.3817 3385.96 87.0246Z"
        fill="#00BD80" />
      <mask id="path-77-inside-6_119_2" fill="white">
        <path fill-rule="evenodd" clip-rule="evenodd"
          d="M3385.87 80.1202C3380.33 47.0937 3390.64 17.1813 3413.83 6.64722C3433.82 -2.42847 3458.34 5.16423 3478.31 24.0069C3499.3 5.74258 3524.46 -0.889657 3544.17 9.23466C3565.91 20.3961 3574.95 48.7953 3569.36 79.9711C3585.39 91.7823 3594.91 107.791 3593.96 124.904C3592.12 157.873 3552.1 182.454 3504.56 179.805C3496.95 179.381 3489.6 178.284 3482.64 176.606C3471.43 180.628 3458.8 183.021 3445.42 183.314C3397.82 184.359 3358.65 158.443 3357.92 125.43C3357.53 107.662 3368.36 91.4582 3385.87 80.1202Z" />
      </mask>
      <path fill-rule="evenodd" clip-rule="evenodd"
        d="M3385.87 80.1202C3380.33 47.0937 3390.64 17.1813 3413.83 6.64722C3433.82 -2.42847 3458.34 5.16423 3478.31 24.0069C3499.3 5.74258 3524.46 -0.889657 3544.17 9.23466C3565.91 20.3961 3574.95 48.7953 3569.36 79.9711C3585.39 91.7823 3594.91 107.791 3593.96 124.904C3592.12 157.873 3552.1 182.454 3504.56 179.805C3496.95 179.381 3489.6 178.284 3482.64 176.606C3471.43 180.628 3458.8 183.021 3445.42 183.314C3397.82 184.359 3358.65 158.443 3357.92 125.43C3357.53 107.662 3368.36 91.4582 3385.87 80.1202Z"
        fill="#AEEFCE" />
      <path
        d="M3385.87 80.1202L3387.5 82.6382L3389.15 81.5671L3388.83 79.6238L3385.87 80.1202ZM3413.83 6.64722L3415.07 9.37873L3415.07 9.37873L3413.83 6.64722ZM3478.31 24.0069L3476.26 26.1894L3478.23 28.0544L3480.28 26.2699L3478.31 24.0069ZM3544.17 9.23466L3545.54 6.56592L3545.54 6.56592L3544.17 9.23466ZM3569.36 79.9711L3566.41 79.4423L3566.08 81.2791L3567.58 82.3861L3569.36 79.9711ZM3593.96 124.904L3596.96 125.071L3596.96 125.071L3593.96 124.904ZM3504.56 179.805L3504.39 182.801L3504.39 182.801L3504.56 179.805ZM3482.64 176.606L3483.35 173.689L3482.48 173.479L3481.63 173.782L3482.64 176.606ZM3445.42 183.314L3445.36 180.315L3445.36 180.315L3445.42 183.314ZM3357.92 125.43L3360.92 125.365L3357.92 125.43ZM3388.83 79.6238C3383.39 47.212 3393.68 19.0951 3415.07 9.37873L3412.59 3.91571C3387.6 15.2675 3377.27 46.9753 3382.91 80.6165L3388.83 79.6238ZM3415.07 9.37873C3433.51 1.00487 3456.75 7.7959 3476.26 26.1894L3480.37 21.8245C3459.92 2.53255 3434.12 -5.86181 3412.59 3.91571L3415.07 9.37873ZM3480.28 26.2699C3500.78 8.4343 3524.61 2.56225 3542.8 11.9034L3545.54 6.56592C3524.3 -4.34156 3497.82 3.05086 3476.35 21.744L3480.28 26.2699ZM3542.8 11.9034C3562.85 22.1992 3571.88 48.8898 3566.41 79.4423L3572.32 80.4999C3578.01 48.7007 3568.97 18.593 3545.54 6.56592L3542.8 11.9034ZM3567.58 82.3861C3583.07 93.7989 3591.85 108.934 3590.97 124.737L3596.96 125.071C3597.98 106.649 3587.71 89.7658 3571.14 77.556L3567.58 82.3861ZM3590.97 124.737C3590.12 139.963 3580.44 153.57 3564.83 163.155C3549.23 172.732 3527.96 178.104 3504.73 176.81L3504.39 182.801C3528.7 184.155 3551.21 178.561 3567.97 168.268C3584.72 157.982 3595.97 142.814 3596.96 125.071L3590.97 124.737ZM3504.73 176.81C3497.29 176.396 3490.13 175.325 3483.35 173.689L3481.94 179.522C3489.08 181.244 3496.6 182.367 3504.39 182.801L3504.73 176.81ZM3481.63 173.782C3470.73 177.692 3458.43 180.028 3445.36 180.315L3445.49 186.314C3459.18 186.013 3472.13 183.564 3483.66 179.43L3481.63 173.782ZM3445.36 180.315C3422.09 180.826 3401.01 174.739 3385.75 164.642C3370.47 154.536 3361.26 140.611 3360.92 125.365L3354.92 125.496C3355.31 143.262 3366.05 158.801 3382.44 169.646C3398.84 180.498 3421.15 186.847 3445.49 186.314L3445.36 180.315ZM3360.92 125.365C3360.56 108.958 3370.56 93.6107 3387.5 82.6382L3384.24 77.6021C3366.17 89.3057 3354.51 106.365 3354.92 125.496L3360.92 125.365Z"
        fill="#00BD80" mask="url(#path-77-inside-6_119_2)" />
      <path
        d="M3472.63 166.158L3436.47 103.588L3477.49 152.253L3527.9 103.588L3487.23 166.158V247.151H3472.63V166.158Z"
        fill="#9C7D66" />
      <rect x="2957.47" y="191.881" width="14.5996" height="123.054" fill="#9C7D66" />
      <path d="M2965.46 127.225L3073.54 260.186H2857.39L2965.46 127.225Z" fill="#00BD80" />
      <path d="M2886.66 201.852L2965.11 86.0999L3043.57 201.852H2886.66Z" fill="#AEEFCE"
        stroke="#00BD80" stroke-width="3" />
      <path d="M2965.46 57.0078L3019.95 146.691H2910.97L2965.46 57.0078Z" fill="#00BD80" />
      <path d="M2940.4 88.0095L2965.11 36.1611L2989.83 88.0095H2940.4Z" fill="#AEEFCE"
        stroke="#00BD80" stroke-width="3" />
      <rect x="3609.58" y="284.345" width="14.5996" height="123.054" fill="#9C7D66" />
      <path d="M3617.58 219.689L3725.65 352.65H3509.51L3617.58 219.689Z" fill="#00BD80" />
      <path d="M3538.78 294.316L3617.23 178.564L3695.68 294.316H3538.78Z" fill="#AEEFCE"
        stroke="#00BD80" stroke-width="3" />
      <path d="M3617.32 149.333L3671.81 239.016H3562.83L3617.32 149.333Z" fill="#00BD80" />
      <path d="M3592.26 180.334L3616.97 128.486L3641.69 180.334H3592.26Z" fill="#AEEFCE"
        stroke="#00BD80" stroke-width="3" />
      <rect x="3357.91" y="196.747" width="14.5996" height="123.054" fill="#9C7D66" />
      <ellipse cx="3365.21" cy="176.238" rx="71.2601" ry="103.935" fill="#00BD80" />
      <path
        d="M3430.11 167.2C3430.11 195.26 3422.47 220.597 3410.2 238.875C3397.93 257.162 3381.13 268.245 3362.78 268.245C3344.43 268.245 3327.63 257.162 3315.36 238.875C3303.09 220.597 3295.45 195.26 3295.45 167.2C3295.45 139.14 3303.09 113.804 3315.36 95.5259C3327.63 77.2385 3344.43 66.1553 3362.78 66.1553C3381.13 66.1553 3397.93 77.2385 3410.2 95.5259C3422.47 113.804 3430.11 139.14 3430.11 167.2Z"
        fill="#AEEFCE" stroke="#00BD80" stroke-width="3" />
      <path fill-rule="evenodd" clip-rule="evenodd"
        d="M3056.42 209.383C3050.88 173.389 3061.19 140.788 3084.39 129.307C3104.37 119.415 3128.89 127.691 3148.87 148.227C3169.85 128.321 3195.01 121.092 3214.73 132.127C3236.46 144.291 3245.5 175.243 3239.92 209.221C3255.95 222.094 3265.47 239.542 3264.52 258.193C3262.68 294.126 3222.65 320.916 3175.12 318.029C3167.5 317.567 3160.16 316.372 3153.2 314.542C3141.98 318.926 3129.36 321.534 3115.98 321.854C3068.38 322.992 3029.2 294.747 3028.48 258.767C3028.09 239.401 3038.92 221.741 3056.42 209.383Z"
        fill="#00BD80" />
      <mask id="path-94-inside-7_119_2" fill="white">
        <path fill-rule="evenodd" clip-rule="evenodd"
          d="M3056.33 202.479C3050.79 169.452 3061.1 139.54 3084.3 129.006C3104.28 119.93 3128.8 127.523 3148.78 146.365C3169.77 128.101 3194.92 121.469 3214.64 131.593C3236.37 142.754 3245.41 171.154 3239.83 202.329C3255.86 214.141 3265.38 230.15 3264.43 247.262C3262.59 280.232 3222.56 304.812 3175.03 302.164C3167.41 301.74 3160.07 300.643 3153.11 298.964C3141.89 302.986 3129.27 305.379 3115.89 305.673C3068.29 306.717 3029.11 280.801 3028.39 247.789C3028 230.02 3038.83 213.817 3056.33 202.479Z" />
      </mask>
      <path fill-rule="evenodd" clip-rule="evenodd"
        d="M3056.33 202.479C3050.79 169.452 3061.1 139.54 3084.3 129.006C3104.28 119.93 3128.8 127.523 3148.78 146.365C3169.77 128.101 3194.92 121.469 3214.64 131.593C3236.37 142.754 3245.41 171.154 3239.83 202.329C3255.86 214.141 3265.38 230.15 3264.43 247.262C3262.59 280.232 3222.56 304.812 3175.03 302.164C3167.41 301.74 3160.07 300.643 3153.11 298.964C3141.89 302.986 3129.27 305.379 3115.89 305.673C3068.29 306.717 3029.11 280.801 3028.39 247.789C3028 230.02 3038.83 213.817 3056.33 202.479Z"
        fill="#AEEFCE" />
      <path
        d="M3056.33 202.479L3057.97 204.997L3059.62 203.925L3059.29 201.982L3056.33 202.479ZM3084.3 129.006L3085.54 131.737L3085.54 131.737L3084.3 129.006ZM3148.78 146.365L3146.72 148.548L3148.7 150.413L3150.75 148.628L3148.78 146.365ZM3214.64 131.593L3216.01 128.924L3214.64 131.593ZM3239.83 202.329L3236.88 201.801L3236.55 203.638L3238.05 204.745L3239.83 202.329ZM3264.43 247.262L3267.42 247.429L3267.42 247.429L3264.43 247.262ZM3175.03 302.164L3174.86 305.159L3174.86 305.159L3175.03 302.164ZM3153.11 298.964L3153.81 296.048L3152.94 295.837L3152.1 296.14L3153.11 298.964ZM3115.89 305.673L3115.82 302.674L3115.82 302.674L3115.89 305.673ZM3028.39 247.789L3031.39 247.723L3028.39 247.789ZM3059.29 201.982C3053.86 169.57 3064.14 141.454 3085.54 131.737L3083.06 126.274C3058.06 137.626 3047.73 169.334 3053.38 202.975L3059.29 201.982ZM3085.54 131.737C3103.98 123.363 3127.22 130.154 3146.72 148.548L3150.84 144.183C3130.38 124.891 3104.59 116.497 3083.06 126.274L3085.54 131.737ZM3150.75 148.628C3171.24 130.793 3195.07 124.921 3213.27 134.262L3216.01 128.924C3194.77 118.017 3168.29 125.409 3146.81 144.102L3150.75 148.628ZM3213.27 134.262C3233.32 144.558 3242.35 171.248 3236.88 201.801L3242.78 202.858C3248.48 171.059 3239.43 140.951 3216.01 128.924L3213.27 134.262ZM3238.05 204.745C3253.54 216.157 3262.31 231.292 3261.43 247.095L3267.42 247.429C3268.45 229.008 3258.18 212.124 3241.61 199.914L3238.05 204.745ZM3261.43 247.095C3260.58 262.322 3250.9 275.929 3235.29 285.513C3219.7 295.091 3198.43 300.463 3175.19 299.168L3174.86 305.159C3199.16 306.513 3221.67 300.919 3238.43 290.626C3255.18 280.34 3266.43 265.172 3267.42 247.429L3261.43 247.095ZM3175.19 299.168C3167.76 298.754 3160.59 297.684 3153.81 296.048L3152.4 301.88C3159.54 303.602 3167.07 304.725 3174.86 305.159L3175.19 299.168ZM3152.1 296.14C3141.19 300.05 3128.89 302.387 3115.82 302.674L3115.95 308.672C3129.65 308.372 3142.59 305.923 3154.12 301.788L3152.1 296.14ZM3115.82 302.674C3092.56 303.184 3071.48 297.098 3056.21 287C3040.94 276.895 3031.72 262.969 3031.39 247.723L3025.39 247.855C3025.78 265.621 3036.51 281.16 3052.9 292.004C3069.31 302.856 3091.62 309.206 3115.95 308.672L3115.82 302.674ZM3031.39 247.723C3031.03 231.316 3041.02 215.969 3057.97 204.997L3054.7 199.961C3036.63 211.664 3024.97 228.724 3025.39 247.855L3031.39 247.723Z"
        fill="#00BD80" mask="url(#path-94-inside-7_119_2)" />
      <path
        d="M3143.09 288.516L3106.94 225.946L3147.96 274.612L3198.36 225.946L3157.69 288.516V369.509H3143.09V288.516Z"
        fill="#9C7D66" />
      <path
        d="M3405.47 384.457H3279.93C3260.12 384.457 3251.88 384.457 3247.37 370.153C3248.94 352.909 3267.77 348.207 3267.77 348.207C3267.77 348.207 3257.92 327.849 3265.81 317.639C3286.41 290.991 3321.32 317.639 3321.32 317.639C3321.32 317.639 3330.54 294.714 3355.06 297.849C3383.53 301.49 3379.11 326.902 3379.11 326.902C3379.11 326.902 3415.28 313.916 3405.59 347.28C3425.99 351.395 3433.91 379.754 3405.47 384.457Z"
        fill="#00BD80" />
      <path
        d="M3160.06 412.961H3034.52C3014.71 412.961 3006.47 412.961 3001.96 398.657C3003.53 381.413 3022.36 376.711 3022.36 376.711C3022.36 376.711 3012.51 356.353 3020.4 346.143C3040.99 319.495 3075.91 346.143 3075.91 346.143C3075.91 346.143 3085.13 323.218 3109.65 326.353C3138.12 329.993 3133.7 355.406 3133.7 355.406C3133.7 355.406 3169.86 342.42 3160.18 375.784C3180.57 379.899 3188.5 408.258 3160.06 412.961Z"
        fill="#AEEFCE" stroke="#00BD80" stroke-width="3" />
      <path
        d="M2888.23 374.028H2762.69C2742.88 374.028 2734.64 374.028 2730.13 359.724C2731.7 342.481 2750.53 337.779 2750.53 337.779C2750.53 337.779 2740.68 317.421 2748.57 307.211C2769.16 280.562 2804.08 307.211 2804.08 307.211C2804.08 307.211 2813.3 284.285 2837.82 287.421C2866.29 291.061 2861.86 316.474 2861.86 316.474C2861.86 316.474 2898.03 303.488 2888.34 336.852C2908.74 340.967 2916.67 369.326 2888.23 374.028Z"
        fill="#00BD80" />
      <rect x="3812.59" y="223.861" width="14.5996" height="123.054" fill="#9C7D66" />
      <path d="M3820.58 159.205L3928.66 292.166H3712.51L3820.58 159.205Z" fill="#00BD80" />
      <path d="M3741.78 233.832L3820.24 118.08L3898.69 233.832H3741.78Z" fill="#AEEFCE"
        stroke="#00BD80" stroke-width="3" />
      <path d="M3820.58 88.9878L3875.07 178.671H3766.1L3820.58 88.9878Z" fill="#00BD80" />
      <path d="M3795.52 119.99L3820.24 68.1411L3844.95 119.99H3795.52Z" fill="#AEEFCE"
        stroke="#00BD80" stroke-width="3" />
      <path
        d="M3931.06 415.047H3805.52C3785.71 415.047 3777.47 415.047 3772.96 400.743C3774.53 383.499 3793.36 378.797 3793.36 378.797C3793.36 378.797 3783.51 358.439 3791.4 348.229C3811.99 321.58 3846.91 348.229 3846.91 348.229C3846.91 348.229 3856.13 325.303 3880.65 328.439C3909.12 332.079 3904.69 357.492 3904.69 357.492C3904.69 357.492 3940.86 344.506 3931.17 377.87C3951.57 381.985 3959.5 410.344 3931.06 415.047Z"
        fill="#AEEFCE" stroke="#00BD80" stroke-width="3" />
      <path fill-rule="evenodd" clip-rule="evenodd"
        d="M5055.64 87.0246C5050.1 51.0296 5060.4 18.4288 5083.6 6.94792C5103.58 -2.94353 5128.1 5.33163 5148.08 25.868C5169.07 5.96197 5194.22 -1.2664 5213.94 9.76793C5235.68 21.9326 5244.71 52.8844 5239.13 86.8625C5255.16 99.7354 5264.68 117.184 5263.73 135.834C5261.89 171.767 5221.86 198.557 5174.33 195.67C5166.71 195.208 5159.37 194.013 5152.41 192.183C5141.19 196.567 5128.57 199.175 5115.19 199.495C5067.59 200.633 5028.41 172.388 5027.69 136.408C5027.3 117.042 5038.13 99.3817 5055.64 87.0246Z"
        fill="#00BD80" />
      <mask id="path-107-inside-8_119_2" fill="white">
        <path fill-rule="evenodd" clip-rule="evenodd"
          d="M5055.55 80.1202C5050 47.0937 5060.31 17.1813 5083.51 6.64722C5103.49 -2.42847 5128.01 5.16423 5147.99 24.0069C5168.98 5.74258 5194.13 -0.889657 5213.85 9.23466C5235.59 20.3961 5244.62 48.7953 5239.04 79.9711C5255.07 91.7823 5264.59 107.791 5263.64 124.904C5261.8 157.873 5221.77 182.454 5174.24 179.805C5166.62 179.381 5159.28 178.284 5152.32 176.606C5141.1 180.628 5128.48 183.021 5115.1 183.314C5067.5 184.359 5028.32 158.443 5027.6 125.43C5027.21 107.662 5038.04 91.4582 5055.55 80.1202Z" />
      </mask>
      <path fill-rule="evenodd" clip-rule="evenodd"
        d="M5055.55 80.1202C5050 47.0937 5060.31 17.1813 5083.51 6.64722C5103.49 -2.42847 5128.01 5.16423 5147.99 24.0069C5168.98 5.74258 5194.13 -0.889657 5213.85 9.23466C5235.59 20.3961 5244.62 48.7953 5239.04 79.9711C5255.07 91.7823 5264.59 107.791 5263.64 124.904C5261.8 157.873 5221.77 182.454 5174.24 179.805C5166.62 179.381 5159.28 178.284 5152.32 176.606C5141.1 180.628 5128.48 183.021 5115.1 183.314C5067.5 184.359 5028.32 158.443 5027.6 125.43C5027.21 107.662 5038.04 91.4582 5055.55 80.1202Z"
        fill="#AEEFCE" />
      <path
        d="M5055.55 80.1202L5057.18 82.6382L5058.83 81.5671L5058.5 79.6238L5055.55 80.1202ZM5083.51 6.64722L5084.75 9.37873L5084.75 9.37873L5083.51 6.64722ZM5147.99 24.0069L5145.93 26.1894L5147.91 28.0544L5149.96 26.2699L5147.99 24.0069ZM5213.85 9.23466L5215.22 6.56592L5215.22 6.56592L5213.85 9.23466ZM5239.04 79.9711L5236.09 79.4423L5235.76 81.2791L5237.26 82.3861L5239.04 79.9711ZM5263.64 124.904L5266.63 125.071L5266.63 125.071L5263.64 124.904ZM5174.24 179.805L5174.07 182.801L5174.07 182.801L5174.24 179.805ZM5152.32 176.606L5153.02 173.689L5152.15 173.479L5151.31 173.782L5152.32 176.606ZM5115.1 183.314L5115.03 180.315L5115.03 180.315L5115.1 183.314ZM5027.6 125.43L5030.6 125.365L5027.6 125.43ZM5058.5 79.6238C5053.07 47.212 5063.35 19.0951 5084.75 9.37873L5082.27 3.91571C5057.27 15.2675 5046.94 46.9753 5052.59 80.6165L5058.5 79.6238ZM5084.75 9.37873C5103.19 1.00487 5126.43 7.7959 5145.93 26.1894L5150.05 21.8245C5129.59 2.53255 5103.8 -5.86181 5082.27 3.91571L5084.75 9.37873ZM5149.96 26.2699C5170.45 8.4343 5194.29 2.56225 5212.48 11.9034L5215.22 6.56592C5193.98 -4.34156 5167.5 3.05086 5146.02 21.744L5149.96 26.2699ZM5212.48 11.9034C5232.53 22.1992 5241.56 48.8898 5236.09 79.4423L5241.99 80.4999C5247.69 48.7007 5238.64 18.593 5215.22 6.56592L5212.48 11.9034ZM5237.26 82.3861C5252.75 93.7989 5261.52 108.934 5260.64 124.737L5266.63 125.071C5267.66 106.649 5257.39 89.7658 5240.82 77.556L5237.26 82.3861ZM5260.64 124.737C5259.79 139.963 5250.11 153.57 5234.5 163.155C5218.91 172.732 5197.64 178.104 5174.4 176.81L5174.07 182.801C5198.37 184.155 5220.88 178.561 5237.64 168.268C5254.39 157.982 5265.64 142.814 5266.63 125.071L5260.64 124.737ZM5174.4 176.81C5166.97 176.396 5159.8 175.325 5153.02 173.689L5151.62 179.522C5158.75 181.244 5166.28 182.367 5174.07 182.801L5174.4 176.81ZM5151.31 173.782C5140.4 177.692 5128.1 180.028 5115.03 180.315L5115.16 186.314C5128.86 186.013 5141.8 183.564 5153.33 179.43L5151.31 173.782ZM5115.03 180.315C5091.77 180.826 5070.69 174.739 5055.43 164.642C5040.15 154.536 5030.93 140.611 5030.6 125.365L5024.6 125.496C5024.99 143.262 5035.72 158.801 5052.12 169.646C5068.52 180.498 5090.83 186.847 5115.16 186.314L5115.03 180.315ZM5030.6 125.365C5030.24 108.958 5040.23 93.6107 5057.18 82.6382L5053.91 77.6021C5035.84 89.3057 5024.18 106.365 5024.6 125.496L5030.6 125.365Z"
        fill="#00BD80" mask="url(#path-107-inside-8_119_2)" />
      <path
        d="M5142.3 166.158L5106.15 103.588L5147.17 152.253L5197.57 103.588L5156.9 166.158V247.151H5142.3V166.158Z"
        fill="#9C7D66" />
      <rect x="4814.8" y="212.345" width="14.5996" height="123.054" fill="#9C7D66" />
      <path d="M4822.79 147.689L4930.87 280.65H4714.72L4822.79 147.689Z" fill="#00BD80" />
      <path d="M4743.99 222.316L4822.44 106.564L4900.9 222.316H4743.99Z" fill="#AEEFCE"
        stroke="#00BD80" stroke-width="3" />
      <path d="M4822.53 77.3325L4877.02 167.016H4768.05L4822.53 77.3325Z" fill="#00BD80" />
      <path d="M4797.47 108.334L4822.19 56.4858L4846.9 108.334H4797.47Z" fill="#AEEFCE"
        stroke="#00BD80" stroke-width="3" />
      <path
        d="M2780.47 377.505H2654.93C2635.12 377.505 2626.88 377.505 2622.37 363.201C2623.94 345.957 2642.77 341.255 2642.77 341.255C2642.77 341.255 2632.92 320.897 2640.81 310.687C2661.4 284.039 2696.32 310.687 2696.32 310.687C2696.32 310.687 2705.54 287.761 2730.06 290.897C2758.53 294.537 2754.11 319.95 2754.11 319.95C2754.11 319.95 2790.27 306.964 2780.59 340.328C2800.99 344.443 2808.91 372.802 2780.47 377.505Z"
        fill="#AEEFCE" stroke="#00BD80" stroke-width="3" />
      <rect x="4148.46" y="159.206" width="14.5996" height="123.054" fill="#9C7D66" />
      <path d="M4156.45 94.5498L4264.53 227.511H4048.38L4156.45 94.5498Z" fill="#00BD80" />
      <path d="M4077.65 169.176L4156.11 53.4246L4234.56 169.176H4077.65Z" fill="#AEEFCE"
        stroke="#00BD80" stroke-width="3" />
      <path d="M4156.45 24.3325L4210.94 114.016H4101.97L4156.45 24.3325Z" fill="#00BD80" />
      <path d="M4131.39 55.3343L4156.11 3.4858L4180.82 55.3343H4131.39Z" fill="#AEEFCE"
        stroke="#00BD80" stroke-width="3" />
      <rect x="3969.09" y="226.642" width="14.5996" height="123.054" fill="#9C7D66" />
      <ellipse cx="3976.39" cy="206.133" rx="71.2601" ry="103.935" fill="#00BD80" />
      <path
        d="M4041.29 197.095C4041.29 225.155 4033.65 250.491 4021.38 268.769C4009.11 287.057 3992.31 298.14 3973.96 298.14C3955.61 298.14 3938.81 287.057 3926.54 268.769C3914.27 250.491 3906.63 225.155 3906.63 197.095C3906.63 169.035 3914.27 143.698 3926.54 125.42C3938.81 107.133 3955.61 96.0498 3973.96 96.0498C3992.31 96.0498 4009.11 107.133 4021.38 125.42C4033.65 143.698 4041.29 169.035 4041.29 197.095Z"
        fill="#AEEFCE" stroke="#00BD80" stroke-width="3" />
      <rect x="4366.76" y="204.395" width="14.5996" height="123.054" fill="#9C7D66" />
      <ellipse cx="4374.06" cy="183.886" rx="71.2601" ry="103.935" fill="#00BD80" />
      <path
        d="M4438.95 174.848C4438.95 202.908 4431.32 228.244 4419.05 246.522C4406.77 264.809 4389.98 275.893 4371.63 275.893C4353.27 275.893 4336.48 264.809 4324.2 246.522C4311.94 228.244 4304.3 202.908 4304.3 174.848C4304.3 146.788 4311.94 121.451 4324.2 103.173C4336.48 84.8859 4353.27 73.8027 4371.63 73.8027C4389.98 73.8027 4406.77 84.8859 4419.05 103.173C4431.32 121.451 4438.95 146.788 4438.95 174.848Z"
        fill="#AEEFCE" stroke="#00BD80" stroke-width="3" />
      <path fill-rule="evenodd" clip-rule="evenodd"
        d="M4559.45 199.244C4553.91 163.249 4564.22 130.648 4587.41 119.167C4607.39 109.276 4631.91 117.551 4651.89 138.087C4672.88 118.181 4698.03 110.953 4717.75 121.987C4739.49 134.152 4748.53 165.104 4742.94 199.082C4758.97 211.955 4768.49 229.403 4767.54 248.053C4765.7 283.986 4725.68 310.776 4678.14 307.89C4670.53 307.427 4663.18 306.232 4656.22 304.402C4645 308.786 4632.38 311.394 4619 311.714C4571.4 312.852 4532.23 284.607 4531.5 248.627C4531.11 229.261 4541.94 211.601 4559.45 199.244Z"
        fill="#00BD80" />
      <mask id="path-128-inside-9_119_2" fill="white">
        <path fill-rule="evenodd" clip-rule="evenodd"
          d="M4559.36 192.339C4553.82 159.313 4564.12 129.401 4587.32 118.866C4607.3 109.791 4631.82 117.383 4651.8 136.226C4672.79 117.962 4697.94 111.33 4717.66 121.454C4739.4 132.615 4748.44 161.014 4742.85 192.19C4758.88 204.002 4768.4 220.011 4767.45 237.123C4765.61 270.093 4725.59 294.673 4678.05 292.025C4670.44 291.601 4663.09 290.504 4656.13 288.825C4644.91 292.847 4632.29 295.24 4618.91 295.534C4571.31 296.578 4532.14 270.662 4531.41 237.65C4531.02 219.881 4541.85 203.677 4559.36 192.339Z" />
      </mask>
      <path fill-rule="evenodd" clip-rule="evenodd"
        d="M4559.36 192.339C4553.82 159.313 4564.12 129.401 4587.32 118.866C4607.3 109.791 4631.82 117.383 4651.8 136.226C4672.79 117.962 4697.94 111.33 4717.66 121.454C4739.4 132.615 4748.44 161.014 4742.85 192.19C4758.88 204.002 4768.4 220.011 4767.45 237.123C4765.61 270.093 4725.59 294.673 4678.05 292.025C4670.44 291.601 4663.09 290.504 4656.13 288.825C4644.91 292.847 4632.29 295.24 4618.91 295.534C4571.31 296.578 4532.14 270.662 4531.41 237.65C4531.02 219.881 4541.85 203.677 4559.36 192.339Z"
        fill="#AEEFCE" />
      <path
        d="M4559.36 192.339L4560.99 194.857L4562.64 193.786L4562.32 191.843L4559.36 192.339ZM4587.32 118.866L4586.08 116.135L4587.32 118.866ZM4651.8 136.226L4649.74 138.409L4651.72 140.274L4653.77 138.489L4651.8 136.226ZM4717.66 121.454L4719.03 118.785L4717.66 121.454ZM4742.85 192.19L4739.9 191.662L4739.57 193.498L4741.07 194.605L4742.85 192.19ZM4767.45 237.123L4770.44 237.29L4770.44 237.29L4767.45 237.123ZM4678.05 292.025L4677.88 295.02L4677.88 295.02L4678.05 292.025ZM4656.13 288.825L4656.84 285.908L4655.96 285.698L4655.12 286.001L4656.13 288.825ZM4618.91 295.534L4618.84 292.534L4618.84 292.534L4618.91 295.534ZM4531.41 237.65L4528.41 237.715L4531.41 237.65ZM4562.32 191.843C4556.88 159.431 4567.17 131.314 4588.56 121.598L4586.08 116.135C4561.08 127.487 4550.76 159.195 4556.4 192.836L4562.32 191.843ZM4588.56 121.598C4607 113.224 4630.24 120.015 4649.74 138.409L4653.86 134.044C4633.41 114.752 4607.61 106.357 4586.08 116.135L4588.56 121.598ZM4653.77 138.489C4674.27 120.654 4698.1 114.781 4716.29 124.123L4719.03 118.785C4697.79 107.878 4671.31 115.27 4649.83 133.963L4653.77 138.489ZM4716.29 124.123C4736.34 134.418 4745.37 161.109 4739.9 191.662L4745.81 192.719C4751.5 160.92 4742.45 130.812 4719.03 118.785L4716.29 124.123ZM4741.07 194.605C4756.56 206.018 4765.33 221.153 4764.45 236.956L4770.44 237.29C4771.47 218.869 4761.2 201.985 4744.63 189.775L4741.07 194.605ZM4764.45 236.956C4763.61 252.183 4753.92 265.789 4738.32 275.374C4722.72 284.951 4701.45 290.324 4678.22 289.029L4677.88 295.02C4702.18 296.374 4724.7 290.78 4741.46 280.487C4758.21 270.201 4769.46 255.033 4770.44 237.29L4764.45 236.956ZM4678.22 289.029C4670.78 288.615 4663.62 287.544 4656.84 285.908L4655.43 291.741C4662.56 293.463 4670.09 294.586 4677.88 295.02L4678.22 289.029ZM4655.12 286.001C4644.22 289.911 4631.91 292.248 4618.84 292.534L4618.98 298.533C4632.67 298.233 4645.61 295.784 4657.14 291.649L4655.12 286.001ZM4618.84 292.534C4595.58 293.045 4574.5 286.959 4559.24 276.861C4543.96 266.756 4534.75 252.83 4534.41 237.584L4528.41 237.715C4528.8 255.482 4539.54 271.02 4555.93 281.865C4572.33 292.717 4594.64 299.067 4618.98 298.533L4618.84 292.534ZM4534.41 237.584C4534.05 221.177 4544.05 205.83 4560.99 194.857L4557.73 189.821C4539.66 201.525 4527.99 218.585 4528.41 237.715L4534.41 237.584Z"
        fill="#00BD80" mask="url(#path-128-inside-9_119_2)" />
      <path
        d="M4646.11 278.376L4609.96 215.807L4650.98 264.472L4701.38 215.807L4660.71 278.376V359.37H4646.11V278.376Z"
        fill="#9C7D66" />
      <path fill-rule="evenodd" clip-rule="evenodd"
        d="M4136.45 211.244C4130.91 175.249 4141.22 142.648 4164.41 131.167C4184.39 121.276 4208.91 129.551 4228.89 150.087C4249.88 130.181 4275.03 122.953 4294.75 133.987C4316.49 146.152 4325.53 177.104 4319.94 211.082C4335.97 223.955 4345.49 241.403 4344.54 260.053C4342.7 295.986 4302.68 322.776 4255.14 319.89C4247.53 319.427 4240.18 318.232 4233.22 316.402C4222 320.786 4209.38 323.394 4196 323.714C4148.4 324.852 4109.23 296.607 4108.5 260.627C4108.11 241.261 4118.94 223.601 4136.45 211.244Z"
        fill="#00BD80" />
      <mask id="path-132-inside-10_119_2" fill="white">
        <path fill-rule="evenodd" clip-rule="evenodd"
          d="M4136.36 204.339C4130.82 171.313 4141.12 141.401 4164.32 130.866C4184.3 121.791 4208.82 129.383 4228.8 148.226C4249.79 129.962 4274.94 123.33 4294.66 133.454C4316.4 144.615 4325.44 173.014 4319.85 204.19C4335.88 216.002 4345.4 232.011 4344.45 249.123C4342.61 282.093 4302.59 306.673 4255.05 304.025C4247.44 303.601 4240.09 302.504 4233.13 300.825C4221.91 304.847 4209.29 307.24 4195.91 307.534C4148.31 308.578 4109.14 282.662 4108.41 249.65C4108.02 231.881 4118.85 215.677 4136.36 204.339Z" />
      </mask>
      <path fill-rule="evenodd" clip-rule="evenodd"
        d="M4136.36 204.339C4130.82 171.313 4141.12 141.401 4164.32 130.866C4184.3 121.791 4208.82 129.383 4228.8 148.226C4249.79 129.962 4274.94 123.33 4294.66 133.454C4316.4 144.615 4325.44 173.014 4319.85 204.19C4335.88 216.002 4345.4 232.011 4344.45 249.123C4342.61 282.093 4302.59 306.673 4255.05 304.025C4247.44 303.601 4240.09 302.504 4233.13 300.825C4221.91 304.847 4209.29 307.24 4195.91 307.534C4148.31 308.578 4109.14 282.662 4108.41 249.65C4108.02 231.881 4118.85 215.677 4136.36 204.339Z"
        fill="#AEEFCE" />
      <path
        d="M4136.36 204.339L4137.99 206.857L4139.64 205.786L4139.32 203.843L4136.36 204.339ZM4164.32 130.866L4163.08 128.135L4164.32 130.866ZM4228.8 148.226L4226.74 150.409L4228.72 152.274L4230.77 150.489L4228.8 148.226ZM4294.66 133.454L4296.03 130.785L4294.66 133.454ZM4319.85 204.19L4316.9 203.662L4316.57 205.498L4318.07 206.605L4319.85 204.19ZM4344.45 249.123L4347.44 249.29L4347.44 249.29L4344.45 249.123ZM4255.05 304.025L4254.88 307.02L4254.88 307.02L4255.05 304.025ZM4233.13 300.825L4233.84 297.908L4232.96 297.698L4232.12 298.001L4233.13 300.825ZM4195.91 307.534L4195.84 304.534L4195.84 304.534L4195.91 307.534ZM4108.41 249.65L4105.41 249.715L4108.41 249.65ZM4139.32 203.843C4133.88 171.431 4144.17 143.314 4165.56 133.598L4163.08 128.135C4138.08 139.487 4127.76 171.195 4133.4 204.836L4139.32 203.843ZM4165.56 133.598C4184 125.224 4207.24 132.015 4226.74 150.409L4230.86 146.044C4210.41 126.752 4184.61 118.357 4163.08 128.135L4165.56 133.598ZM4230.77 150.489C4251.27 132.654 4275.1 126.781 4293.29 136.123L4296.03 130.785C4274.79 119.878 4248.31 127.27 4226.83 145.963L4230.77 150.489ZM4293.29 136.123C4313.34 146.418 4322.37 173.109 4316.9 203.662L4322.81 204.719C4328.5 172.92 4319.45 142.812 4296.03 130.785L4293.29 136.123ZM4318.07 206.605C4333.56 218.018 4342.33 233.153 4341.45 248.956L4347.44 249.29C4348.47 230.869 4338.2 213.985 4321.63 201.775L4318.07 206.605ZM4341.45 248.956C4340.61 264.183 4330.92 277.789 4315.32 287.374C4299.72 296.951 4278.45 302.324 4255.22 301.029L4254.88 307.02C4279.18 308.374 4301.7 302.78 4318.46 292.487C4335.21 282.201 4346.46 267.033 4347.44 249.29L4341.45 248.956ZM4255.22 301.029C4247.78 300.615 4240.62 299.544 4233.84 297.908L4232.43 303.741C4239.56 305.463 4247.09 306.586 4254.88 307.02L4255.22 301.029ZM4232.12 298.001C4221.22 301.911 4208.91 304.248 4195.84 304.534L4195.98 310.533C4209.67 310.233 4222.61 307.784 4234.14 303.649L4232.12 298.001ZM4195.84 304.534C4172.58 305.045 4151.5 298.959 4136.24 288.861C4120.96 278.756 4111.75 264.83 4111.41 249.584L4105.41 249.715C4105.8 267.482 4116.54 283.02 4132.93 293.865C4149.33 304.717 4171.64 311.067 4195.98 310.533L4195.84 304.534ZM4111.41 249.584C4111.05 233.177 4121.05 217.83 4137.99 206.857L4134.73 201.821C4116.66 213.525 4104.99 230.585 4105.41 249.715L4111.41 249.584Z"
        fill="#00BD80" mask="url(#path-132-inside-10_119_2)" />
      <path
        d="M4223.11 290.376L4186.96 227.807L4227.98 276.472L4278.38 227.807L4237.71 290.376V371.37H4223.11V290.376Z"
        fill="#9C7D66" />
      <path
        d="M4791.12 412.961H4665.59C4645.78 412.961 4637.54 412.961 4633.03 398.657C4634.6 381.413 4653.43 376.711 4653.43 376.711C4653.43 376.711 4643.57 356.353 4651.47 346.143C4672.06 319.495 4706.98 346.143 4706.98 346.143C4706.98 346.143 4716.19 323.218 4740.71 326.353C4769.19 329.993 4764.76 355.406 4764.76 355.406C4764.76 355.406 4800.93 342.42 4791.24 375.784C4811.64 379.899 4819.56 408.258 4791.12 412.961Z"
        fill="#AEEFCE" stroke="#00BD80" stroke-width="3" />
      <path
        d="M4569.26 391.903H4443.72C4423.91 391.903 4415.67 391.903 4411.16 377.598C4412.73 360.355 4431.56 355.653 4431.56 355.653C4431.56 355.653 4421.71 335.295 4429.6 325.085C4450.2 298.436 4485.11 325.085 4485.11 325.085C4485.11 325.085 4494.33 302.159 4518.85 305.295C4547.32 308.935 4542.9 334.348 4542.9 334.348C4542.9 334.348 4579.07 321.362 4569.38 354.726C4589.78 358.841 4597.7 387.2 4569.26 391.903Z"
        fill="#00BD80" />
      <path
        d="M4213.5 395.903H4087.96C4068.15 395.903 4059.91 395.903 4055.4 381.598C4056.97 364.355 4075.8 359.653 4075.8 359.653C4075.8 359.653 4065.95 339.295 4073.84 329.085C4094.44 302.436 4129.35 329.085 4129.35 329.085C4129.35 329.085 4138.57 306.159 4163.09 309.295C4191.56 312.935 4187.14 338.348 4187.14 338.348C4187.14 338.348 4223.31 325.362 4213.62 358.726C4234.02 362.841 4241.94 391.2 4213.5 395.903Z"
        fill="#00BD80" />
      <path
        d="M4461.5 395.379H4335.96C4316.15 395.379 4307.91 395.379 4303.4 381.075C4304.97 363.831 4323.8 359.129 4323.8 359.129C4323.8 359.129 4313.95 338.771 4321.84 328.561C4342.44 301.913 4377.35 328.561 4377.35 328.561C4377.35 328.561 4386.57 305.636 4411.09 308.771C4439.56 312.411 4435.14 337.824 4435.14 337.824C4435.14 337.824 4471.31 324.838 4461.62 358.202C4482.02 362.317 4489.94 390.676 4461.5 395.379Z"
        fill="#AEEFCE" stroke="#00BD80" stroke-width="3" />
      <rect x="4976.96" y="249.092" width="14.5996" height="123.054" fill="#9C7D66" />
      <ellipse cx="4984.26" cy="228.583" rx="71.2601" ry="103.935" fill="#00BD80" />
      <path
        d="M5049.15 219.545C5049.15 247.605 5041.52 272.941 5029.25 291.219C5016.97 309.507 5000.18 320.59 4981.83 320.59C4963.47 320.59 4946.68 309.507 4934.4 291.219C4922.14 272.941 4914.5 247.605 4914.5 219.545C4914.5 191.485 4922.14 166.149 4934.4 147.871C4946.68 129.583 4963.47 118.5 4981.83 118.5C5000.18 118.5 5016.97 129.583 5029.25 147.871C5041.52 166.149 5049.15 191.485 5049.15 219.545Z"
        fill="#AEEFCE" stroke="#00BD80" stroke-width="3" />
      <path
        d="M5274.1 304.903H5148.56C5128.75 304.903 5120.51 304.903 5116 290.598C5117.57 273.355 5136.4 268.653 5136.4 268.653C5136.4 268.653 5126.55 248.295 5134.44 238.085C5155.03 211.436 5189.95 238.085 5189.95 238.085C5189.95 238.085 5199.17 215.159 5223.69 218.295C5252.16 221.935 5247.73 247.348 5247.73 247.348C5247.73 247.348 5283.9 234.362 5274.21 267.726C5294.61 271.841 5302.54 300.2 5274.1 304.903Z"
        fill="#AEEFCE" stroke="#00BD80" stroke-width="3" />
      <rect x="5335.96" y="264.092" width="14.5996" height="123.054" fill="#9C7D66" />
      <ellipse cx="5343.26" cy="243.583" rx="71.2601" ry="103.935" fill="#00BD80" />
      <path
        d="M5408.15 234.545C5408.15 262.605 5400.52 287.941 5388.25 306.219C5375.97 324.507 5359.18 335.59 5340.83 335.59C5322.47 335.59 5305.68 324.507 5293.4 306.219C5281.14 287.941 5273.5 262.605 5273.5 234.545C5273.5 206.485 5281.14 181.149 5293.4 162.871C5305.68 144.583 5322.47 133.5 5340.83 133.5C5359.18 133.5 5375.97 144.583 5388.25 162.871C5400.52 181.149 5408.15 206.485 5408.15 234.545Z"
        fill="#AEEFCE" stroke="#00BD80" stroke-width="3" />
      <rect x="5482.26" y="223.861" width="14.5996" height="123.054" fill="#9C7D66" />
      <path d="M5490.26 159.205L5598.33 292.166H5382.19L5490.26 159.205Z" fill="#00BD80" />
      <path d="M5411.46 233.832L5489.91 118.08L5568.36 233.832H5411.46Z" fill="#AEEFCE"
        stroke="#00BD80" stroke-width="3" />
      <path d="M5490.26 88.9878L5544.75 178.671H5435.77L5490.26 88.9878Z" fill="#00BD80" />
      <path d="M5465.2 119.99L5489.91 68.1411L5514.63 119.99H5465.2Z" fill="#AEEFCE"
        stroke="#00BD80" stroke-width="3" />
      <path
        d="M5600.73 415.047H5475.2C5455.39 415.047 5447.15 415.047 5442.64 400.743C5444.2 383.499 5463.04 378.797 5463.04 378.797C5463.04 378.797 5453.18 358.439 5461.07 348.229C5481.67 321.58 5516.58 348.229 5516.58 348.229C5516.58 348.229 5525.8 325.303 5550.32 328.439C5578.79 332.079 5574.37 357.492 5574.37 357.492C5574.37 357.492 5610.54 344.506 5600.85 377.87C5621.25 381.985 5629.17 410.344 5600.73 415.047Z"
        fill="#AEEFCE" stroke="#00BD80" stroke-width="3" />
      <path
        d="M5137.1 413.903H5011.56C4991.75 413.903 4983.51 413.903 4979 399.598C4980.57 382.355 4999.4 377.653 4999.4 377.653C4999.4 377.653 4989.55 357.295 4997.44 347.085C5018.03 320.436 5052.95 347.085 5052.95 347.085C5052.95 347.085 5062.17 324.159 5086.69 327.295C5115.16 330.935 5110.73 356.348 5110.73 356.348C5110.73 356.348 5146.9 343.362 5137.21 376.726C5157.61 380.841 5165.54 409.2 5137.1 413.903Z"
        fill="#00BD80" />
    </symbol>

    <symbol id="road" viewBox="0 0 5687 118">
      <rect width="5687" height="118" fill="#D9D9D9" />
    </symbol>

    <symbol id="rails" viewBox="0 0 4852 61">
      <rect x="94" width="15" height="61" fill="#9C7D66" />
      <rect x="125" width="15" height="61" fill="#9C7D66" />
      <rect x="32" width="15" height="61" fill="#9C7D66" />
      <rect x="1" width="15" height="61" fill="#9C7D66" />
      <rect x="63" width="15" height="61" fill="#9C7D66" />
      <rect x="156" width="15" height="61" fill="#9C7D66" />
      <rect x="187" width="15" height="61" fill="#9C7D66" />
      <rect x="218" width="15" height="61" fill="#9C7D66" />
      <rect x="249" width="15" height="61" fill="#9C7D66" />
      <rect x="280" width="15" height="61" fill="#9C7D66" />
      <rect x="311" width="15" height="61" fill="#9C7D66" />
      <rect x="342" width="15" height="61" fill="#9C7D66" />
      <rect x="373" width="15" height="61" fill="#9C7D66" />
      <rect x="404" width="15" height="61" fill="#9C7D66" />
      <rect x="435" width="15" height="61" fill="#9C7D66" />
      <rect x="466" width="15" height="61" fill="#9C7D66" />
      <rect x="497" width="15" height="61" fill="#9C7D66" />
      <rect x="528" width="15" height="61" fill="#9C7D66" />
      <rect x="559" width="15" height="61" fill="#9C7D66" />
      <rect x="590" width="15" height="61" fill="#9C7D66" />
      <rect x="621" width="15" height="61" fill="#9C7D66" />
      <rect x="652" width="15" height="61" fill="#9C7D66" />
      <rect x="683" width="15" height="61" fill="#9C7D66" />
      <rect x="714" width="15" height="61" fill="#9C7D66" />
      <rect x="745" width="15" height="61" fill="#9C7D66" />
      <rect x="776" width="15" height="61" fill="#9C7D66" />
      <rect x="807" width="15" height="61" fill="#9C7D66" />
      <rect x="838" width="15" height="61" fill="#9C7D66" />
      <rect x="869" width="15" height="61" fill="#9C7D66" />
      <rect x="900" width="15" height="61" fill="#9C7D66" />
      <rect x="931" width="15" height="61" fill="#9C7D66" />
      <rect x="962" width="15" height="61" fill="#9C7D66" />
      <rect x="993" width="15" height="61" fill="#9C7D66" />
      <rect x="1024" width="15" height="61" fill="#9C7D66" />
      <rect x="1055" width="15" height="61" fill="#9C7D66" />
      <rect x="1086" width="15" height="61" fill="#9C7D66" />
      <rect x="1117" width="15" height="61" fill="#9C7D66" />
      <rect x="1148" width="15" height="61" fill="#9C7D66" />
      <rect x="1179" width="15" height="61" fill="#9C7D66" />
      <rect x="1210" width="15" height="61" fill="#9C7D66" />
      <rect x="1241" width="15" height="61" fill="#9C7D66" />
      <rect x="1272" width="15" height="61" fill="#9C7D66" />
      <rect x="1303" width="15" height="61" fill="#9C7D66" />
      <rect x="1334" width="15" height="61" fill="#9C7D66" />
      <rect x="1365" width="15" height="61" fill="#9C7D66" />
      <rect x="1396" width="15" height="61" fill="#9C7D66" />
      <rect x="1427" width="15" height="61" fill="#9C7D66" />
      <rect x="1458" width="15" height="61" fill="#9C7D66" />
      <rect x="1489" width="15" height="61" fill="#9C7D66" />
      <rect x="1520" width="15" height="61" fill="#9C7D66" />
      <rect x="1551" width="15" height="61" fill="#9C7D66" />
      <rect x="1582" width="15" height="61" fill="#9C7D66" />
      <rect x="1613" width="15" height="61" fill="#9C7D66" />
      <rect x="1644" width="15" height="61" fill="#9C7D66" />
      <rect x="1675" width="15" height="61" fill="#9C7D66" />
      <rect x="1706" width="15" height="61" fill="#9C7D66" />
      <rect x="1737" width="15" height="61" fill="#9C7D66" />
      <rect x="1768" width="15" height="61" fill="#9C7D66" />
      <rect x="1799" width="15" height="61" fill="#9C7D66" />
      <rect x="1830" width="15" height="61" fill="#9C7D66" />
      <rect x="1861" width="15" height="61" fill="#9C7D66" />
      <rect x="1892" width="15" height="61" fill="#9C7D66" />
      <rect x="1923" width="15" height="61" fill="#9C7D66" />
      <rect x="1954" width="15" height="61" fill="#9C7D66" />
      <rect x="1985" width="15" height="61" fill="#9C7D66" />
      <rect x="2016" width="15" height="61" fill="#9C7D66" />
      <rect x="2047" width="15" height="61" fill="#9C7D66" />
      <rect x="2078" width="15" height="61" fill="#9C7D66" />
      <rect x="2109" width="15" height="61" fill="#9C7D66" />
      <rect x="2140" width="15" height="61" fill="#9C7D66" />
      <rect x="2171" width="15" height="61" fill="#9C7D66" />
      <rect x="2202" width="15" height="61" fill="#9C7D66" />
      <rect x="2233" width="15" height="61" fill="#9C7D66" />
      <rect x="2264" width="15" height="61" fill="#9C7D66" />
      <rect x="2295" width="15" height="61" fill="#9C7D66" />
      <rect x="2326" width="15" height="61" fill="#9C7D66" />
      <rect x="2357" width="15" height="61" fill="#9C7D66" />
      <rect x="2388" width="15" height="61" fill="#9C7D66" />
      <rect x="2419" width="15" height="61" fill="#9C7D66" />
      <rect x="2450" width="15" height="61" fill="#9C7D66" />
      <rect x="2481" width="15" height="61" fill="#9C7D66" />
      <rect x="2512" width="15" height="61" fill="#9C7D66" />
      <rect x="2543" width="15" height="61" fill="#9C7D66" />
      <rect x="2574" width="15" height="61" fill="#9C7D66" />
      <rect x="2605" width="15" height="61" fill="#9C7D66" />
      <rect x="2636" width="15" height="61" fill="#9C7D66" />
      <rect x="2667" width="15" height="61" fill="#9C7D66" />
      <rect x="2698" width="15" height="61" fill="#9C7D66" />
      <rect x="2729" width="15" height="61" fill="#9C7D66" />
      <rect x="2760" width="15" height="61" fill="#9C7D66" />
      <rect x="2791" width="15" height="61" fill="#9C7D66" />
      <rect x="2822" width="15" height="61" fill="#9C7D66" />
      <rect x="2853" width="15" height="61" fill="#9C7D66" />
      <rect x="2884" width="15" height="61" fill="#9C7D66" />
      <rect x="2915" width="15" height="61" fill="#9C7D66" />
      <rect x="2946" width="15" height="61" fill="#9C7D66" />
      <rect x="2977" width="15" height="61" fill="#9C7D66" />
      <rect x="3008" width="15" height="61" fill="#9C7D66" />
      <rect x="3039" width="15" height="61" fill="#9C7D66" />
      <rect x="3070" width="15" height="61" fill="#9C7D66" />
      <rect x="3101" width="15" height="61" fill="#9C7D66" />
      <rect x="3132" width="15" height="61" fill="#9C7D66" />
      <rect x="3163" width="15" height="61" fill="#9C7D66" />
      <rect x="3194" width="15" height="61" fill="#9C7D66" />
      <rect x="3225" width="15" height="61" fill="#9C7D66" />
      <rect x="3256" width="15" height="61" fill="#9C7D66" />
      <rect x="3287" width="15" height="61" fill="#9C7D66" />
      <rect x="3318" width="15" height="61" fill="#9C7D66" />
      <rect x="3349" width="15" height="61" fill="#9C7D66" />
      <rect x="3380" width="15" height="61" fill="#9C7D66" />
      <rect x="3411" width="15" height="61" fill="#9C7D66" />
      <rect x="3442" width="15" height="61" fill="#9C7D66" />
      <rect x="3473" width="15" height="61" fill="#9C7D66" />
      <rect x="3504" width="15" height="61" fill="#9C7D66" />
      <rect x="3535" width="15" height="61" fill="#9C7D66" />
      <rect x="3566" width="15" height="61" fill="#9C7D66" />
      <rect x="3597" width="15" height="61" fill="#9C7D66" />
      <rect x="3628" width="15" height="61" fill="#9C7D66" />
      <rect x="3659" width="15" height="61" fill="#9C7D66" />
      <rect x="3690" width="15" height="61" fill="#9C7D66" />
      <rect x="3721" width="15" height="61" fill="#9C7D66" />
      <rect x="3752" width="15" height="61" fill="#9C7D66" />
      <rect x="3783" width="15" height="61" fill="#9C7D66" />
      <rect x="3814" width="15" height="61" fill="#9C7D66" />
      <rect x="3845" width="15" height="61" fill="#9C7D66" />
      <rect x="3876" width="15" height="61" fill="#9C7D66" />
      <rect x="3907" width="15" height="61" fill="#9C7D66" />
      <rect x="3938" width="15" height="61" fill="#9C7D66" />
      <rect x="3969" width="15" height="61" fill="#9C7D66" />
      <rect x="4000" width="15" height="61" fill="#9C7D66" />
      <rect x="4031" width="15" height="61" fill="#9C7D66" />
      <rect x="4062" width="15" height="61" fill="#9C7D66" />
      <rect x="4093" width="15" height="61" fill="#9C7D66" />
      <rect x="4124" width="15" height="61" fill="#9C7D66" />
      <rect x="4155" width="15" height="61" fill="#9C7D66" />
      <rect x="4186" width="15" height="61" fill="#9C7D66" />
      <rect x="4217" width="15" height="61" fill="#9C7D66" />
      <rect x="4248" width="15" height="61" fill="#9C7D66" />
      <rect x="4279" width="15" height="61" fill="#9C7D66" />
      <rect x="4310" width="15" height="61" fill="#9C7D66" />
      <rect x="4341" width="15" height="61" fill="#9C7D66" />
      <rect x="4372" width="15" height="61" fill="#9C7D66" />
      <rect x="4403" width="15" height="61" fill="#9C7D66" />
      <rect x="4434" width="15" height="61" fill="#9C7D66" />
      <rect x="4465" width="15" height="61" fill="#9C7D66" />
      <rect x="4496" width="15" height="61" fill="#9C7D66" />
      <rect x="4527" width="15" height="61" fill="#9C7D66" />
      <rect x="4558" width="15" height="61" fill="#9C7D66" />
      <rect x="4589" width="15" height="61" fill="#9C7D66" />
      <rect x="4620" width="15" height="61" fill="#9C7D66" />
      <rect x="4651" width="15" height="61" fill="#9C7D66" />
      <rect x="4682" width="15" height="61" fill="#9C7D66" />
      <rect x="4713" width="15" height="61" fill="#9C7D66" />
      <rect x="4744" width="15" height="61" fill="#9C7D66" />
      <rect x="4775" width="15" height="61" fill="#9C7D66" />
      <rect x="4806" width="15" height="61" fill="#9C7D66" />
      <rect x="4837" width="15" height="61" fill="#9C7D66" />
      <rect y="51" width="15" height="4852" transform="rotate(-90 0 51)" fill="#A7A7A7" />
    </symbol>
  </defs>
</svg>