<svg width="2560" height="2560" viewBox="0 0 2560 2560" fill="none" xmlns="http://www.w3.org/2000/svg">
<rect width="2560" height="2560" fill="#02190F"/>
<mask id="mask0_152_70" style="mask-type:alpha" maskUnits="userSpaceOnUse" x="0" y="0" width="2560" height="2560">
<rect width="2560" height="2560" fill="#02190F"/>
</mask>
<g mask="url(#mask0_152_70)">
<path d="M74.3789 446.981L-13.9448 434.103C-13.9448 434.103 67.8588 541.475 59.7411 713.943C-8.07263 592.119 -13.9448 434.103 -13.9448 434.103L-98.9434 421.711C-98.9434 421.711 -4.11654 644.302 -43.5424 748.15C-94.5119 669.428 -98.9434 421.711 -98.9434 421.711L-184.507 409.236C-184.507 409.236 -87.8525 551.864 -141.234 711.775C-190.395 636.508 -184.507 409.236 -184.507 409.236L-266.46 397.287C-266.46 397.287 -200.087 492.3 -243.906 662.969C-299.018 571.512 -266.46 397.287 -266.46 397.287L-344.593 385.895C-344.593 385.895 -312.981 446.686 -325.498 532.538C-384.203 459.285 -344.593 385.895 -344.593 385.895C-344.593 385.895 -375.122 278.019 -281.445 230.388C-291.896 302.071 -344.593 385.895 -344.593 385.895L-266.46 397.287C-266.46 397.287 -220.028 204.229 -168.453 145.459C-126.769 274.965 -266.46 397.287 -266.46 397.287L-184.507 409.236C-184.507 409.236 -125.191 213.587 -60.9514 161.132C-53.1124 296.451 -184.507 409.236 -184.507 409.236L-98.9434 421.711C-98.9434 421.711 -22.493 214.622 41.647 163.855C32.9189 303.036 -98.9434 421.711 -98.9434 421.711L-13.9448 434.103C-13.9448 434.103 69.9928 247.046 135.193 196.433C136.133 320.851 -13.9448 434.103 -13.9448 434.103L74.3789 446.981C74.3789 446.981 171.155 256.085 226.914 209.806C229.985 310.7 74.3789 446.981 74.3789 446.981L157.747 459.136C157.747 459.136 285.987 291.767 340.023 250.983C320.79 384.377 157.747 459.136 157.747 459.136L238.57 470.92C238.57 470.92 397.166 312.801 439.855 295.97C401.928 429.192 238.57 470.92 238.57 470.92L328.875 484.086C328.875 484.086 469.485 363.739 513.469 346.285C499.979 438.806 328.875 484.086 328.875 484.086C328.875 484.086 527.273 465.769 632.63 528.373C518.341 527.032 328.875 484.086 328.875 484.086C328.875 484.086 482.176 560.916 464.798 680.109C397.303 614.087 328.875 484.086 328.875 484.086L238.57 470.92C238.57 470.92 376.396 574.436 380.429 703.56C326.208 647.134 238.57 470.92 238.57 470.92L157.747 459.136C157.747 459.136 288.982 601.06 269.052 737.757C174.339 643.294 157.747 459.136 157.747 459.136L74.3789 446.981C74.3789 446.981 175.266 564.051 152.419 720.752C122.494 667.23 74.3789 446.981 74.3789 446.981Z" fill="#003E26"/>
<path d="M-703.549 333.56L-344.593 385.895M-13.9448 434.103L74.3789 446.981M-13.9448 434.103L-98.9434 421.711M-13.9448 434.103C-13.9448 434.103 67.8588 541.475 59.7411 713.943C-8.07261 592.119 -13.9448 434.103 -13.9448 434.103ZM-13.9448 434.103C-13.9448 434.103 136.133 320.851 135.193 196.433C69.9928 247.046 -13.9448 434.103 -13.9448 434.103ZM328.875 484.086L238.57 470.92M328.875 484.086C328.875 484.086 527.273 465.769 632.63 528.373C518.341 527.032 328.875 484.086 328.875 484.086ZM328.875 484.086C328.875 484.086 482.176 560.916 464.798 680.109C397.303 614.087 328.875 484.086 328.875 484.086ZM328.875 484.086C328.875 484.086 499.979 438.806 513.469 346.285C469.485 363.739 328.875 484.086 328.875 484.086ZM-344.593 385.895L-266.46 397.287M-344.593 385.895C-344.593 385.895 -384.203 459.285 -325.498 532.538C-312.981 446.686 -344.593 385.895 -344.593 385.895ZM-344.593 385.895C-344.593 385.895 -291.896 302.071 -281.445 230.388C-375.122 278.019 -344.593 385.895 -344.593 385.895ZM157.747 459.136L74.3789 446.981M157.747 459.136L238.57 470.92M157.747 459.136C157.747 459.136 288.982 601.06 269.052 737.757C174.339 643.294 157.747 459.136 157.747 459.136ZM157.747 459.136C157.747 459.136 320.79 384.377 340.023 250.983C285.987 291.767 157.747 459.136 157.747 459.136ZM-184.507 409.236L-98.9434 421.711M-184.507 409.236L-266.46 397.287M-184.507 409.236C-184.507 409.236 -87.8525 551.864 -141.234 711.775C-190.395 636.508 -184.507 409.236 -184.507 409.236ZM-184.507 409.236C-184.507 409.236 -53.1124 296.451 -60.9514 161.132C-125.191 213.587 -184.507 409.236 -184.507 409.236ZM74.3789 446.981C74.3789 446.981 175.266 564.051 152.419 720.752C122.494 667.23 74.3789 446.981 74.3789 446.981ZM74.3789 446.981C74.3789 446.981 229.985 310.7 226.914 209.806C171.155 256.085 74.3789 446.981 74.3789 446.981ZM238.57 470.92C238.57 470.92 376.396 574.436 380.429 703.56C326.208 647.134 238.57 470.92 238.57 470.92ZM238.57 470.92C238.57 470.92 401.928 429.192 439.855 295.97C397.166 312.801 238.57 470.92 238.57 470.92ZM-98.9434 421.711C-98.9434 421.711 -4.11654 644.302 -43.5424 748.15C-94.5119 669.428 -98.9434 421.711 -98.9434 421.711ZM-98.9434 421.711C-98.9434 421.711 32.9189 303.036 41.647 163.855C-22.493 214.622 -98.9434 421.711 -98.9434 421.711ZM-266.46 397.287C-266.46 397.287 -200.087 492.3 -243.906 662.969C-299.018 571.512 -266.46 397.287 -266.46 397.287ZM-266.46 397.287C-266.46 397.287 -126.769 274.965 -168.453 145.459C-220.028 204.229 -266.46 397.287 -266.46 397.287Z" stroke="#014028" stroke-width="5"/>
<path d="M1410.8 223.61C1441.1 188.093 1532.92 136.593 1549.97 156.834C1567.02 177.075 1546.66 241.92 1529.84 279.67C1513.02 317.42 1456.47 352.431 1456.47 352.431C1456.47 352.431 1502.04 337.281 1514.68 347.769C1527.33 358.256 1523.91 388.748 1513.82 403.774C1509.41 410.334 1488.52 424.129 1466.37 437.591C1485.78 430.119 1506.85 426.233 1524.4 433.074C1570.75 451.145 1559.53 497.862 1531.6 522.553C1503.67 547.244 1444.4 611.187 1444.4 611.187C1444.4 611.187 1522.95 555.015 1562.75 561.199C1602.55 567.382 1644.46 606.262 1624.01 661.363C1603.56 716.465 1465.01 821.919 1465.01 821.919C1465.01 821.919 1595.21 722.887 1659.05 702.479C1722.88 682.071 1793.53 794.743 1775 846.983C1766.34 871.406 1723.51 913.402 1680.35 951.203C1734.35 909.664 1794.08 868.801 1813.22 874.769C1850.81 886.488 1897 1029.24 1860.83 1074.56C1839.65 1101.1 1773.1 1134.62 1721.59 1157.83C1776.51 1136.82 1846.99 1116.11 1852.92 1145.4C1831.33 1273.56 1659.85 1346.08 1659.85 1346.08C1659.86 1346.07 1519.48 1422.21 1367.25 1301.52C1325.66 1268.54 1445.23 1203.7 1445.23 1203.7C1445.23 1203.7 1375 1241.78 1329.07 1231.12C1283.14 1220.45 1211.85 1087.37 1252.27 1046.29C1269.86 1028.41 1297.29 1020.4 1322.68 1017.05C1287.01 1015.98 1245.66 1011.71 1226.45 998.682C1189.04 973.32 1151.97 783.97 1190.6 763.019C1217.86 748.239 1273.97 784.193 1304.66 806.655C1270.51 779.686 1205.44 725.908 1188.74 695.125C1165.81 652.847 1181.42 554.753 1213.6 541.42C1231.65 533.945 1259.58 551.028 1280.63 567.48C1259.2 546.798 1232.86 516.975 1228.21 491.593C1220.15 447.619 1238.18 413.561 1271.27 407.752C1304.37 401.944 1326.52 442.783 1326.52 442.783C1326.52 442.783 1288.85 341.823 1296.41 311.688C1303.96 281.553 1320.89 263.731 1356.86 261.561C1378.52 260.255 1387.13 275.763 1390.55 288.314C1389.51 272.204 1391.61 246.107 1410.8 223.61Z" fill="#085D37"/>
<path d="M1805.71 1545.8C1763 1478.99 1714.29 1408.07 1664.96 1334.29C1435.54 991.164 1218.2 553.506 1504.41 211.553" stroke="#074A2B" stroke-width="5"/>
<path d="M1476.9 1527.71C1485.51 1547.8 1302.1 1569.35 1302.1 1569.35C1369.19 1607.42 1423.71 1670.8 1511.69 1638.9C1599.67 1606.99 1612.96 1508.75 1594.05 1484.51C1594.05 1484.51 1695.22 1568.35 1789.61 1503.67C1884.01 1438.98 1868.55 1285.44 1868.55 1285.44C1868.55 1285.44 1713.05 1405.15 1693.2 1386.45C1673.35 1367.75 1851.43 1274.8 1847.52 1243.97C1843.61 1213.15 1776.72 1172.77 1776.72 1172.77C1760.15 1250.07 1580.41 1389.8 1626.52 1324.71C1672.62 1259.62 1758.17 1177.33 1756.76 1146.33C1755.35 1115.33 1687.29 1089.33 1647.47 1053.47C1647.47 1053.47 1575.03 1278.51 1554.81 1267.91C1534.6 1257.31 1614.05 1068.13 1610.39 1045.59C1606.73 1023.05 1517.4 1012.2 1517.4 1012.2C1517.4 1012.2 1532.64 1134.63 1497.83 1179.16C1463.02 1223.68 1483.1 1088.44 1475.35 1040.66C1467.6 992.878 1364.17 943.428 1364.17 943.428C1364.17 943.428 1311.49 1005.15 1325.79 1064.93C1340.09 1124.71 1398.73 1156.37 1404.88 1194.24C1411.02 1232.11 1286.24 1111.32 1286.24 1111.32C1286.24 1111.32 1265.38 1147.33 1277.61 1214.89C1284.44 1252.65 1435.79 1274.43 1428.34 1299.27C1420.88 1324.1 1231.41 1261.26 1231.41 1261.26C1231.41 1261.26 1226.5 1354.67 1250.2 1377.06C1273.9 1399.45 1479.79 1391.58 1460.61 1415.19C1441.43 1438.8 1246.7 1432.37 1246.7 1432.37C1246.7 1432.37 1257.62 1499.66 1286.12 1524.32C1314.63 1548.98 1469.61 1510.72 1476.9 1527.71Z" fill="#137447"/>
<path d="M1594.94 1483.81C1595.35 1484.22 1575.7 1466.46 1575.4 1466.24C1575.1 1466.02 1594.53 1483.39 1594.94 1483.81ZM1437.1 1179.47C1437 1179.21 1441.39 1194.81 1445.33 1201.63C1458.27 1224.01 1463.88 1261.55 1481.82 1279.14C1481.83 1279.14 1473.15 1263.23 1468.33 1255.57C1458.24 1239.55 1454.68 1220.09 1445.44 1203.56C1441.33 1196.21 1439.93 1187.43 1437.1 1179.47ZM1577.62 1464.38C1578.24 1465.13 1567.31 1452.58 1562.61 1446.03C1552.44 1431.86 1548.98 1413.69 1539.32 1399.17C1535.28 1393.09 1533.43 1385.74 1529.38 1379.67C1528.98 1379.08 1537.02 1391.16 1540.93 1396.84C1555.5 1418.02 1561.33 1444.45 1577.62 1464.38ZM1574.67 1463.59C1574.53 1463.7 1578.54 1466.37 1577.34 1467.34C1565.28 1477.13 1483.67 1469.51 1457.59 1474.36C1456.23 1474.61 1451.78 1475.33 1450.45 1474.76C1454.15 1470.85 1471.75 1473.43 1476.8 1472.3C1498.29 1467.5 1521.08 1470.98 1542.57 1466.18C1553.05 1463.85 1575.66 1462.83 1574.67 1463.59ZM1578.54 1465.66C1578.57 1465.47 1573.6 1466.43 1573.76 1464.82C1574.99 1453.08 1623.75 1412.8 1635.24 1396.27C1638.97 1390.91 1652.33 1372.51 1658.73 1370.29C1658.79 1370.27 1646.76 1383.27 1642.01 1390.67C1630.12 1409.17 1611.49 1422.7 1599.6 1441.19C1593.78 1450.24 1578.36 1466.93 1578.54 1465.66ZM1531.3 1378.65C1531.8 1379.39 1521.71 1362.41 1516.43 1354.6C1505.45 1338.34 1501.14 1318.22 1490.4 1301.8C1486.08 1295.18 1484.01 1287.19 1480.05 1280.35C1479.81 1279.95 1489.12 1296.93 1494.29 1304.82C1505.03 1321.22 1509.35 1341.31 1520.35 1357.54C1524.8 1364.1 1526.86 1372.09 1531.3 1378.65ZM1529.89 1377.54C1515.71 1381.32 1465.64 1361.2 1436.81 1357.92C1435.55 1357.77 1432.22 1357.3 1431.15 1356.51C1431.11 1356.48 1445.12 1360.14 1452.27 1360.74C1469.93 1362.22 1486.61 1370.38 1504.27 1371.86C1512.98 1372.6 1530.34 1377.42 1529.89 1377.54ZM1532.1 1379.26C1533.14 1363.64 1573.35 1319.06 1587.31 1291.11C1587.97 1289.8 1589.76 1286.45 1591.02 1285.59C1591.41 1291.01 1580.66 1300.88 1578.45 1305.67C1570.3 1323.32 1555.64 1337.45 1547.49 1355.11C1543.49 1363.77 1532.07 1379.86 1532.1 1379.26ZM1481.16 1278.8C1473.53 1277.92 1424.5 1254.16 1412.38 1240.82C1412.37 1240.81 1417.34 1243.72 1420 1244.78C1434.49 1250.56 1446.42 1261.7 1460.91 1267.47C1468.09 1270.34 1481.29 1278.81 1481.16 1278.8ZM1482.11 1279.9C1482.18 1272.57 1501.25 1220.82 1513.34 1207.77C1513.36 1207.75 1506.31 1221.91 1504.12 1229.45C1499.74 1244.54 1489.72 1257.6 1485.34 1272.68C1484.6 1275.21 1482.11 1279.95 1482.11 1279.9Z" fill="#074A2B" stroke="#074A2B" stroke-width="2" stroke-linecap="round" stroke-linejoin="round"/>
<path d="M454.658 953.98C437.919 964.528 392.667 803.644 392.667 803.644C368.149 869.008 319.225 926.726 360.211 1000.84C401.197 1074.95 490.888 1072.91 509.871 1052.57C509.871 1052.57 449.275 1154.88 520.47 1230.08C591.665 1305.28 726.711 1269.7 726.711 1269.7C726.711 1269.7 597.671 1147.69 611.574 1127.29C625.478 1106.9 733.795 1252.89 760.793 1245.03C787.792 1237.17 814.402 1171.65 814.402 1171.65C742.957 1167.8 592.591 1026.96 657.303 1058.94C722.016 1090.92 807.699 1155.72 835.206 1150.07C862.713 1144.41 876.308 1079.89 902.715 1039.22C902.715 1039.22 691.299 1006.37 697.909 986.801C704.519 967.229 884.869 1011.43 904.499 1004.96C924.129 998.496 921.161 917.116 921.161 917.116C921.161 917.116 813.891 948.087 769.165 923.284C724.438 898.48 848.156 897.269 889.766 883.566C931.376 869.863 960.916 770.415 960.916 770.415C960.916 770.415 898.277 732.076 846.875 753.329C795.472 774.582 775.489 831.481 742.508 842.343C709.527 853.204 799.81 724.556 799.81 724.556C799.81 724.556 764.66 711.01 706.01 731.516C673.227 742.978 675.213 881.344 651.96 878.2C628.707 875.055 658.017 696.793 658.017 696.793C658.017 696.793 573.834 705.646 557.18 730.002C540.526 754.357 576.739 937.276 552.921 923.478C529.104 909.68 507.248 734.714 507.248 734.714C507.248 734.714 448.647 754.013 430.649 782.986C412.652 811.959 468.81 945.061 454.658 953.98Z" fill="#137447"/>
<path d="M510.631 1053.26C510.317 1053.69 523.407 1033.61 523.559 1033.31C523.712 1033.01 510.945 1052.83 510.631 1053.26ZM760.275 869.048C760.499 868.926 747.177 875.06 741.638 879.55C723.466 894.282 690.711 904.622 677.531 923.151C677.528 923.156 690.52 913.146 696.683 907.749C709.575 896.459 726.459 890.52 739.929 879.92C745.918 875.208 753.561 872.713 760.275 869.048ZM525.54 1035.03C524.952 1035.69 534.625 1024.15 539.81 1019.02C551.036 1007.92 566.787 1002.25 578.398 991.558C583.256 987.086 589.568 984.388 594.413 979.904C594.882 979.469 585.232 988.363 580.708 992.662C563.841 1008.69 541.045 1017.64 525.54 1035.03ZM525.825 1032.28C525.708 1032.17 523.888 1036.13 522.855 1035.2C512.396 1025.81 507.637 951.783 499.61 929.161C499.192 927.983 497.913 924.111 498.241 922.838C502.253 925.591 502.441 941.683 504.167 946.039C511.506 964.564 511.624 985.43 518.958 1003.96C522.533 1012.99 526.648 1033.06 525.825 1032.28ZM524.527 1036.04C524.701 1036.03 523.136 1031.72 524.598 1031.65C535.262 1031.08 578.179 1068.95 594.578 1076.88C599.901 1079.45 618.246 1088.78 621.136 1094.19C621.164 1094.25 607.831 1085.33 600.548 1082.13C582.33 1074.13 567.595 1059.4 549.38 1051.39C540.465 1047.47 523.367 1036.06 524.527 1036.04ZM595.598 981.475C595.008 982.027 608.752 970.602 614.985 964.782C627.966 952.662 645.335 945.957 658.494 934.031C663.792 929.229 670.645 926.246 676.198 921.734C676.524 921.47 662.666 932.194 656.341 937.935C643.206 949.856 625.859 956.566 612.92 968.699C607.687 973.606 600.837 976.576 595.598 981.475ZM596.392 980.064C591.001 967.924 601.89 920.319 600.739 894.084C600.689 892.934 600.638 889.89 601.197 888.822C601.217 888.782 599.93 901.823 600.408 908.306C601.588 924.301 596.657 940.358 597.833 956.354C598.413 964.25 596.563 980.449 596.392 980.064ZM595.166 982.285C609.277 980.998 654.824 1010.62 681.779 1019.14C683.048 1019.54 686.291 1020.66 687.243 1021.67C682.449 1022.79 672.111 1014.57 667.514 1013.28C650.579 1008.5 635.872 997.395 618.938 992.613C610.624 990.265 594.627 982.334 595.166 982.285ZM677.74 922.513C677.442 915.564 691.736 868.378 701.935 855.654C701.944 855.642 700.047 860.499 699.476 863.026C696.368 876.79 688.101 889.039 684.992 902.803C683.45 909.631 677.746 922.632 677.74 922.513ZM676.893 923.519C683.449 922.541 732.406 932.253 745.783 941.207C745.809 941.224 732.151 936.929 725.1 936.039C710.993 934.26 697.905 927.156 683.799 925.378C681.434 925.08 676.849 923.526 676.893 923.519Z" fill="#074A2B" stroke="#074A2B" stroke-width="2" stroke-linecap="round" stroke-linejoin="round"/>
<path d="M1329.38 1272.47C1352.76 1277.95 1397.96 1307.79 1392.73 1320.36C1387.49 1332.93 1353.04 1338.9 1331.82 1340.12C1310.59 1341.33 1281.25 1323.73 1281.25 1323.73C1281.25 1323.73 1298.92 1340.99 1297.11 1349.25C1295.3 1357.5 1280.55 1363.13 1271.3 1362.06C1267.26 1361.59 1256.03 1355.29 1244.65 1348.34C1252.64 1355.45 1259.39 1364.17 1260.4 1373.8C1263.06 1399.26 1239.06 1405.14 1221.18 1398.2C1203.31 1391.25 1160.1 1379.23 1160.1 1379.23C1160.1 1379.23 1204.3 1401.9 1210.86 1421.55C1217.42 1441.2 1209.52 1469.53 1179.51 1473.18C1149.5 1476.82 1068.61 1438.34 1068.61 1438.34C1068.61 1438.34 1144.59 1474.52 1168.97 1498.89C1193.36 1523.27 1158.5 1582.14 1130.25 1585.98C1117.04 1587.78 1087.74 1578.1 1060.28 1567.28C1092 1582.18 1124.77 1599.85 1126.56 1610.01C1130.06 1629.96 1075.68 1684.74 1046.44 1678.89C1029.31 1675.47 998.292 1652.94 975.531 1634.86C998.085 1655.02 1024.18 1682.36 1012.18 1691.97C948.495 1712.32 874.901 1651.02 874.901 1651.02C874.912 1651.03 806.998 1604.8 826.28 1506.74C831.549 1479.95 889.394 1519.33 889.394 1519.33C889.394 1519.33 855.42 1496.2 849.466 1472.68C843.513 1449.17 887.545 1385.19 915.861 1393.98C928.18 1397.81 938.313 1408.46 945.831 1419.28C937.91 1402.72 930.114 1382.81 931.539 1370.95C934.314 1347.87 1012.14 1286.27 1030.83 1298.99C1044.02 1307.97 1040.81 1342.1 1037.78 1361.43C1042.05 1339.46 1051.3 1297.02 1061.44 1282.13C1075.36 1261.68 1123.89 1245.69 1137.57 1257.25C1145.25 1263.74 1144.02 1280.54 1141.46 1294.05C1145.87 1279.37 1153.29 1260.3 1163.8 1252.18C1182 1238.13 1201.83 1238.34 1212.29 1252.1C1222.75 1265.86 1209.3 1285.62 1209.3 1285.62C1209.3 1285.62 1246.58 1244.59 1262.13 1240.94C1277.69 1237.29 1289.83 1240.82 1299.31 1256.76C1305.01 1266.36 1299.95 1273.95 1295.02 1278.47C1302.14 1274.2 1314.57 1269 1329.38 1272.47Z" fill="#085D37"/>
<path d="M817.982 1764.81C838.462 1729.53 859.4 1690.53 881.499 1650.58C984.281 1464.78 1133.13 1262.21 1356.96 1312.43" stroke="#003D26" stroke-width="5"/>
<path d="M2828.66 1145.67C2874.12 1156.32 2961.97 1214.32 2951.8 1238.75C2941.63 1263.18 2874.66 1274.8 2833.4 1277.16C2792.14 1279.51 2735.1 1245.3 2735.1 1245.3C2735.1 1245.3 2769.45 1278.86 2765.93 1294.9C2762.41 1310.95 2733.74 1321.89 2715.76 1319.81C2707.91 1318.9 2686.07 1306.65 2663.96 1293.14C2679.49 1306.97 2692.6 1323.91 2694.57 1342.64C2699.75 1392.12 2653.09 1403.56 2618.34 1390.06C2583.6 1376.55 2499.6 1353.19 2499.6 1353.19C2499.6 1353.19 2585.53 1397.25 2598.27 1435.45C2611.02 1473.66 2595.68 1528.73 2537.33 1535.81C2478.99 1542.9 2321.75 1468.09 2321.75 1468.09C2321.75 1468.09 2469.45 1538.42 2516.85 1585.8C2564.25 1633.18 2496.49 1747.61 2441.57 1755.09C2415.9 1758.59 2358.94 1739.77 2305.56 1718.74C2367.23 1747.7 2430.93 1782.05 2434.4 1801.8C2441.21 1840.58 2335.51 1947.06 2278.65 1935.69C2245.36 1929.03 2185.07 1885.25 2140.82 1850.11C2184.66 1889.28 2235.38 1942.43 2212.07 1961.13C2088.27 2000.69 1945.21 1881.52 1945.21 1881.52C1945.23 1881.53 1813.21 1791.67 1850.7 1601.05C1860.94 1548.97 1973.38 1625.52 1973.38 1625.52C1973.38 1625.52 1907.34 1580.56 1895.77 1534.85C1884.19 1489.14 1969.79 1364.78 2024.83 1381.87C2048.78 1389.3 2068.48 1410.01 2083.09 1431.04C2067.69 1398.85 2052.54 1360.15 2055.31 1337.1C2060.7 1292.23 2211.99 1172.48 2248.32 1197.22C2273.95 1214.66 2267.72 1281.01 2261.82 1318.59C2270.14 1275.87 2288.1 1193.39 2307.81 1164.44C2334.88 1124.68 2429.21 1093.59 2455.81 1116.08C2470.73 1128.69 2468.35 1161.34 2463.38 1187.6C2471.93 1159.07 2486.37 1121.99 2506.79 1106.22C2542.18 1078.9 2580.71 1079.31 2601.05 1106.07C2621.38 1132.82 2595.23 1171.22 2595.23 1171.22C2595.23 1171.22 2667.7 1091.47 2697.94 1084.37C2728.19 1077.27 2751.79 1084.14 2770.21 1115.12C2781.29 1133.77 2771.46 1148.53 2761.87 1157.32C2775.71 1149.02 2799.87 1138.92 2828.66 1145.67Z" fill="#085D37"/>
<path d="M1834.56 2102.71C1874.37 2034.13 1915.07 1958.32 1958.03 1880.66C2157.83 1519.48 2447.18 1125.71 2882.28 1223.33" stroke="#074A2B" stroke-width="5"/>
<path d="M1092.28 2696.22C1120.83 2704.45 985.619 2915.88 985.619 2915.88C1083.4 2878.09 1196.99 2875.3 1239.16 2755.32C1281.33 2635.34 1189.46 2536.8 1147.68 2535.84C1147.68 2535.84 1322.93 2501.6 1336.15 2346.65C1349.37 2191.71 1174.59 2075.81 1174.59 2075.81C1174.59 2075.81 1166.66 2342.37 1129.9 2347.15C1093.14 2351.93 1148.66 2084.66 1112.88 2062.23C1077.1 2039.81 977.057 2075.41 977.057 2075.41C1044.1 2159.37 1036.35 2468.66 1007.58 2364.15C978.806 2259.64 965.887 2098.84 932.073 2073.64C898.259 2048.44 812.33 2097.64 740.348 2108.65C740.348 2108.65 914.675 2378.53 886.127 2390.67C857.578 2402.8 727.005 2156.43 700.15 2140.87C673.295 2125.32 585.004 2209.93 585.004 2209.93C585.004 2209.93 726.873 2299.28 743.732 2374.21C760.592 2449.13 635.666 2311.61 578.74 2278.64C521.814 2245.67 380.793 2311.87 380.793 2311.87C380.793 2311.87 400.366 2420.4 475.538 2456.82C550.711 2493.23 634.473 2458.81 679.594 2484.94C724.715 2511.07 490.282 2538.33 490.282 2538.33C490.282 2538.33 510.2 2591.27 591.773 2636.56C637.37 2661.87 790.542 2521.45 810.241 2550.66C829.94 2579.88 600.773 2725.06 600.773 2725.06C600.773 2725.06 694.782 2810.61 738.726 2804.96C782.67 2799.31 951.616 2576.01 959.933 2616.49C968.25 2656.98 793.881 2856.25 793.881 2856.25C793.881 2856.25 874.053 2902.68 924.517 2893.93C974.982 2885.17 1068.15 2689.26 1092.28 2696.22Z" fill="#003D26"/>
<path d="M1147.71 2534.29C1148.5 2534.22 1112.91 2539.59 1112.42 2539.72C1111.94 2539.85 1146.91 2534.36 1147.71 2534.29ZM691.795 2438.35C691.434 2438.22 711.618 2447.03 722.186 2448.75C756.856 2454.42 801.165 2480.82 835.107 2477.09C835.115 2477.09 810.915 2472.52 798.708 2471C773.17 2467.82 749.648 2454.82 724.308 2450.3C713.042 2448.29 702.61 2442.21 691.795 2438.35ZM1112.37 2535.78C1113.7 2535.78 1091.09 2536.46 1080.16 2535.77C1056.5 2534.27 1034.41 2522.27 1010.83 2519.93C1000.96 2518.95 991.631 2514.57 981.764 2513.61C980.807 2513.52 1000.42 2515.46 1009.76 2516.24C1044.58 2519.14 1077.39 2535.76 1112.37 2535.78ZM1109 2538.21C1109 2538.45 1115.25 2536.53 1115.25 2538.62C1115.16 2559.73 1036.9 2639 1019.55 2670.6C1018.65 2672.24 1015.58 2677.55 1013.83 2678.45C1012.91 2671.2 1030.77 2654.92 1033.93 2648.63C1047.37 2621.9 1070.65 2600.93 1084.1 2574.2C1090.66 2561.17 1109.05 2536.51 1109 2538.21ZM1114.51 2535.91C1114.33 2535.72 1111.06 2541.78 1109.52 2540.22C1098.23 2528.83 1097.83 2442.88 1090.34 2416.57C1087.91 2408.03 1080.05 2378.14 1083.23 2369.49C1083.26 2369.41 1086.58 2393.27 1090.27 2404.63C1099.49 2433.05 1097.69 2464.29 1106.9 2492.71C1111.41 2506.62 1115.69 2537.19 1114.51 2535.91ZM982.341 2510.71C983.551 2510.82 957.012 2506.82 944.261 2505.65C917.704 2503.2 892.838 2490.42 866.321 2487.57C855.645 2486.43 845.454 2481.72 834.85 2480C834.227 2479.9 860.094 2484.73 872.85 2486.09C899.336 2488.91 924.186 2501.66 950.715 2504.05C961.444 2505.02 971.616 2509.73 982.341 2510.71ZM979.967 2511.23C971.739 2529.4 907.48 2564.74 879.212 2592.23C877.972 2593.44 874.611 2596.54 872.854 2596.98C872.789 2596.99 888.699 2585.41 895.49 2578.4C912.249 2561.1 935.178 2550.59 951.94 2533.3C960.216 2524.76 980.228 2510.66 979.967 2511.23ZM983.682 2510.39C968.144 2495.85 955.868 2415.19 938.495 2376.46C937.677 2374.64 935.704 2369.87 935.877 2367.8C941.921 2372.06 943.036 2391.86 946.173 2398.31C957.729 2422.07 959.969 2449.65 971.52 2473.42C977.191 2485.08 984.276 2510.94 983.682 2510.39ZM834.182 2477.49C826.688 2484.77 759.5 2515.87 735.045 2517.14C735.023 2517.14 742.364 2514.42 745.768 2512.54C764.306 2502.27 786.298 2499.31 804.837 2489.05C814.035 2483.96 834.311 2477.37 834.182 2477.49ZM836.156 2477.44C828.512 2471.07 790.504 2406.47 787.183 2382.52C787.177 2382.48 796.003 2402.08 802.047 2410.88C814.141 2428.47 819.248 2450.24 831.344 2467.84C833.372 2470.79 836.208 2477.48 836.156 2477.44Z" fill="#074A2B" stroke="#074A2B" stroke-width="2" stroke-linecap="round" stroke-linejoin="round"/>
<path d="M937.087 1492.23L851.555 1517.75C851.555 1517.75 970.969 1580.68 1036.24 1740.53C923.429 1658.59 851.555 1517.75 851.555 1517.75L769.243 1542.3C769.243 1542.3 948.994 1704.26 956.97 1815.05C877.588 1765.12 769.243 1542.3 769.243 1542.3L686.383 1567.02C686.383 1567.02 834.116 1655.68 853.045 1823.2C776.759 1775.64 686.383 1567.02 686.383 1567.02L607.02 1590.7C607.02 1590.7 707.235 1648.93 739.368 1822.17C650.865 1762.43 607.02 1590.7 607.02 1590.7L531.357 1613.28C531.357 1613.28 585.631 1655.1 610.434 1738.24C526.338 1696.52 531.357 1613.28 531.357 1613.28C531.357 1613.28 458.236 1528.29 523.14 1445.64C543.85 1515.05 531.357 1613.28 531.357 1613.28L607.02 1590.7C607.02 1590.7 567.828 1396.05 589.855 1321.02C682.204 1420.93 607.02 1590.7 607.02 1590.7L686.383 1567.02C686.383 1567.02 657.786 1364.59 693.959 1289.96C758.058 1409.39 686.383 1567.02 686.383 1567.02L769.243 1542.3C769.243 1542.3 751.367 1322.28 788.161 1249.22C838.861 1379.13 769.243 1542.3 769.243 1542.3L851.555 1517.75C851.555 1517.75 848.907 1312.74 886.728 1239.37C939.978 1351.82 851.555 1517.75 851.555 1517.75L937.087 1492.23C937.087 1492.23 944.466 1278.33 975.549 1212.87C1020.83 1303.09 937.087 1492.23 937.087 1492.23L1017.82 1468.14C1017.82 1468.14 1063.65 1262.33 1095.48 1202.59C1134.21 1331.67 1017.82 1468.14 1017.82 1468.14L1096.09 1444.79C1096.09 1444.79 1173.34 1234.59 1204.97 1201.35C1226.68 1338.15 1096.09 1444.79 1096.09 1444.79L1183.54 1418.7C1183.54 1418.7 1260.39 1250.33 1292.93 1215.98C1319.66 1305.57 1183.54 1418.7 1183.54 1418.7C1183.54 1418.7 1355.77 1318.54 1477.69 1330.95C1373.47 1377.86 1183.54 1418.7 1183.54 1418.7C1183.54 1418.7 1354.94 1423.83 1389.38 1539.25C1300.35 1507.8 1183.54 1418.7 1183.54 1418.7L1096.09 1444.79C1096.09 1444.79 1264.69 1480.64 1322.73 1596.05C1249.79 1567.71 1096.09 1444.79 1096.09 1444.79L1017.82 1468.14C1017.82 1468.14 1196.62 1541.6 1236.11 1673.98C1110.43 1628.19 1017.82 1468.14 1017.82 1468.14L937.087 1492.23C937.087 1492.23 1077.89 1555.92 1123.17 1707.67C1073.48 1671.73 937.087 1492.23 937.087 1492.23Z" fill="#0E5233"/>
<path d="M183.745 1716.98L531.357 1613.28M851.555 1517.75L937.087 1492.23M851.555 1517.75L769.243 1542.3M851.555 1517.75C851.555 1517.75 970.969 1580.68 1036.24 1740.53C923.429 1658.59 851.555 1517.75 851.555 1517.75ZM851.555 1517.75C851.555 1517.75 939.978 1351.82 886.728 1239.37C848.907 1312.74 851.555 1517.75 851.555 1517.75ZM1183.54 1418.7L1096.09 1444.79M1183.54 1418.7C1183.54 1418.7 1355.77 1318.54 1477.69 1330.95C1373.47 1377.86 1183.54 1418.7 1183.54 1418.7ZM1183.54 1418.7C1183.54 1418.7 1354.94 1423.83 1389.38 1539.25C1300.35 1507.8 1183.54 1418.7 1183.54 1418.7ZM1183.54 1418.7C1183.54 1418.7 1319.66 1305.57 1292.93 1215.98C1260.39 1250.33 1183.54 1418.7 1183.54 1418.7ZM531.357 1613.28L607.02 1590.7M531.357 1613.28C531.357 1613.28 526.338 1696.52 610.434 1738.24C585.631 1655.1 531.357 1613.28 531.357 1613.28ZM531.357 1613.28C531.357 1613.28 543.85 1515.05 523.14 1445.64C458.236 1528.29 531.357 1613.28 531.357 1613.28ZM1017.82 1468.14L937.087 1492.23M1017.82 1468.14L1096.09 1444.79M1017.82 1468.14C1017.82 1468.14 1196.62 1541.6 1236.11 1673.98C1110.43 1628.19 1017.82 1468.14 1017.82 1468.14ZM1017.82 1468.14C1017.82 1468.14 1134.21 1331.67 1095.48 1202.59C1063.65 1262.33 1017.82 1468.14 1017.82 1468.14ZM686.383 1567.02L769.243 1542.3M686.383 1567.02L607.02 1590.7M686.383 1567.02C686.383 1567.02 834.116 1655.68 853.045 1823.2C776.759 1775.64 686.383 1567.02 686.383 1567.02ZM686.383 1567.02C686.383 1567.02 758.058 1409.39 693.959 1289.96C657.786 1364.59 686.383 1567.02 686.383 1567.02ZM937.087 1492.23C937.087 1492.23 1077.89 1555.92 1123.17 1707.67C1073.48 1671.73 937.087 1492.23 937.087 1492.23ZM937.087 1492.23C937.087 1492.23 1020.83 1303.09 975.549 1212.87C944.466 1278.33 937.087 1492.23 937.087 1492.23ZM1096.09 1444.79C1096.09 1444.79 1264.69 1480.64 1322.73 1596.05C1249.79 1567.71 1096.09 1444.79 1096.09 1444.79ZM1096.09 1444.79C1096.09 1444.79 1226.68 1338.15 1204.97 1201.35C1173.34 1234.59 1096.09 1444.79 1096.09 1444.79ZM769.243 1542.3C769.243 1542.3 948.994 1704.26 956.97 1815.05C877.588 1765.12 769.243 1542.3 769.243 1542.3ZM769.243 1542.3C769.243 1542.3 838.861 1379.13 788.161 1249.22C751.367 1322.28 769.243 1542.3 769.243 1542.3ZM607.02 1590.7C607.02 1590.7 707.235 1648.93 739.368 1822.17C650.865 1762.43 607.02 1590.7 607.02 1590.7ZM607.02 1590.7C607.02 1590.7 682.204 1420.93 589.855 1321.02C567.828 1396.05 607.02 1590.7 607.02 1590.7Z" stroke="#0E5233" stroke-width="5"/>
<path d="M1086.23 2281.02L1166.48 2165.69C1166.48 2165.69 957.742 2205.39 720.561 2072.69C939.813 2062.85 1166.48 2165.69 1166.48 2165.69L1243.7 2054.7C1243.7 2054.7 863.542 2031.72 745.015 1903.18C891.72 1886.75 1243.7 2054.7 1243.7 2054.7L1321.43 1942.97C1321.43 1942.97 1052.6 1978.8 864.937 1791.17C1005.5 1774.87 1321.43 1942.97 1321.43 1942.97L1395.89 1835.96C1395.89 1835.96 1215.41 1862.62 1005.87 1680.9C1173.42 1667.6 1395.89 1835.96 1395.89 1835.96L1466.87 1733.93C1466.87 1733.93 1359.03 1735.71 1246.93 1657.71C1391.37 1626.54 1466.87 1733.93 1466.87 1733.93C1466.87 1733.93 1640.26 1766.8 1641.47 1932.21C1547.87 1867.09 1466.87 1733.93 1466.87 1733.93L1395.89 1835.96C1395.89 1835.96 1635.12 2037.1 1681.62 2151.06C1469.93 2118.7 1395.89 1835.96 1395.89 1835.96L1321.43 1942.97C1321.43 1942.97 1555.26 2164.08 1583.96 2291.44C1387.87 2207.32 1321.43 1942.97 1321.43 1942.97L1243.7 2054.7C1243.7 2054.7 1481.59 2307.99 1507.98 2434.01C1318.11 2323.85 1243.7 2054.7 1243.7 2054.7L1166.48 2165.69C1166.48 2165.69 1370.89 2415.43 1396.32 2542.85C1220.44 2456.68 1166.48 2165.69 1166.48 2165.69L1086.23 2281.02C1086.23 2281.02 1287.02 2551.55 1312.99 2662.61C1168.74 2595.99 1086.23 2281.02 1086.23 2281.02L1010.49 2389.88C1010.49 2389.88 1156.02 2688.17 1175.46 2792.95C1001.13 2672.07 1010.49 2389.88 1010.49 2389.88L937.065 2495.42C937.065 2495.42 1048.22 2829.96 1041.91 2901.91C880.961 2754.82 937.065 2495.42 937.065 2495.42L855.023 2613.34C855.023 2613.34 925.636 2895.99 919.287 2970.2C798.475 2886.15 855.023 2613.34 855.023 2613.34C855.023 2613.34 741.311 2905.62 579.06 3009.98C661.314 2849.97 855.023 2613.34 855.023 2613.34C855.023 2613.34 639.025 2775.21 483.385 2666.92C623.825 2618.29 855.023 2613.34 855.023 2613.34L937.065 2495.42C937.065 2495.42 694.368 2616.73 509.685 2531.61C627.276 2494.93 937.065 2495.42 937.065 2495.42L1010.49 2389.88C1010.49 2389.88 718.339 2474.9 539.842 2350.71C739.475 2283.75 1010.49 2389.88 1010.49 2389.88L1086.23 2281.02C1086.23 2281.02 850.422 2340.78 645.804 2198.42C742.222 2193.91 1086.23 2281.02 1086.23 2281.02Z" fill="#2A9135"/>
<path d="M1792.99 1265.21L1466.87 1733.93M1166.48 2165.69L1086.23 2281.02M1166.48 2165.69L1243.7 2054.7M1166.48 2165.69C1166.48 2165.69 957.742 2205.39 720.561 2072.69C939.813 2062.85 1166.48 2165.69 1166.48 2165.69ZM1166.48 2165.69C1166.48 2165.69 1220.44 2456.68 1396.32 2542.85C1370.89 2415.43 1166.48 2165.69 1166.48 2165.69ZM855.023 2613.34L937.065 2495.42M855.023 2613.34C855.023 2613.34 741.311 2905.62 579.06 3009.98C661.314 2849.97 855.023 2613.34 855.023 2613.34ZM855.023 2613.34C855.023 2613.34 639.025 2775.21 483.385 2666.92C623.825 2618.29 855.023 2613.34 855.023 2613.34ZM855.023 2613.34C855.023 2613.34 798.475 2886.15 919.287 2970.2C925.636 2895.99 855.023 2613.34 855.023 2613.34ZM1466.87 1733.93L1395.89 1835.96M1466.87 1733.93C1466.87 1733.93 1391.37 1626.54 1246.93 1657.71C1359.03 1735.71 1466.87 1733.93 1466.87 1733.93ZM1466.87 1733.93C1466.87 1733.93 1547.87 1867.09 1641.47 1932.21C1640.26 1766.8 1466.87 1733.93 1466.87 1733.93ZM1010.49 2389.88L1086.23 2281.02M1010.49 2389.88L937.065 2495.42M1010.49 2389.88C1010.49 2389.88 718.339 2474.9 539.842 2350.71C739.475 2283.75 1010.49 2389.88 1010.49 2389.88ZM1010.49 2389.88C1010.49 2389.88 1001.13 2672.07 1175.47 2792.95C1156.02 2688.17 1010.49 2389.88 1010.49 2389.88ZM1321.43 1942.97L1243.7 2054.7M1321.43 1942.97L1395.89 1835.96M1321.43 1942.97C1321.43 1942.97 1052.6 1978.8 864.937 1791.17C1005.5 1774.87 1321.43 1942.97 1321.43 1942.97ZM1321.43 1942.97C1321.43 1942.97 1387.87 2207.32 1583.96 2291.44C1555.26 2164.08 1321.43 1942.97 1321.43 1942.97ZM1086.23 2281.02C1086.23 2281.02 850.422 2340.78 645.804 2198.42C742.222 2193.91 1086.23 2281.02 1086.23 2281.02ZM1086.23 2281.02C1086.23 2281.02 1168.74 2595.99 1312.99 2662.61C1287.02 2551.55 1086.23 2281.02 1086.23 2281.02ZM937.065 2495.42C937.065 2495.42 694.368 2616.73 509.685 2531.61C627.276 2494.93 937.065 2495.42 937.065 2495.42ZM937.065 2495.42C937.065 2495.42 880.961 2754.82 1041.91 2901.91C1048.22 2829.96 937.065 2495.42 937.065 2495.42ZM1243.7 2054.7C1243.7 2054.7 863.542 2031.72 745.015 1903.18C891.72 1886.75 1243.7 2054.7 1243.7 2054.7ZM1243.7 2054.7C1243.7 2054.7 1318.11 2323.85 1507.98 2434.01C1481.59 2307.99 1243.7 2054.7 1243.7 2054.7ZM1395.89 1835.96C1395.89 1835.96 1215.41 1862.62 1005.87 1680.9C1173.42 1667.6 1395.89 1835.96 1395.89 1835.96ZM1395.89 1835.96C1395.89 1835.96 1469.93 2118.7 1681.62 2151.06C1635.12 2037.1 1395.89 1835.96 1395.89 1835.96Z" stroke="#2A9135" stroke-width="5"/>
<path d="M441.065 -118.243C435.136 -142.042 642.114 -132.938 642.114 -132.938C574.66 -187.153 525.671 -267.138 422.515 -247.618C319.359 -228.098 286.984 -121.7 303.576 -91.461C303.576 -91.461 206.605 -202.482 90.4529 -147.815C-25.6987 -93.1471 -36.1695 79.6595 -36.1695 79.6595C-36.1695 79.6595 157.528 -24.9666 176.15 -0.687843C194.772 23.591 -19.1237 94.518 -20.3383 129.355C-21.5529 164.192 45.272 220.929 45.272 220.929C77.5083 138.3 301.654 15.8675 238.902 79.6609C176.15 143.454 66.6292 219.214 62.6202 253.795C58.6113 288.375 129.309 329.402 166.959 376.265C166.959 376.265 287.615 140.073 308.096 155.445C328.577 170.817 206.605 366.031 206.605 391.651C206.605 417.27 303.576 445.332 303.576 445.332C303.576 445.332 308.705 307.019 355.253 263.974C401.801 220.929 355.253 367.069 355.253 421.376C355.253 475.683 460.893 549.028 460.893 549.028C460.893 549.028 530.323 490.14 525.231 421.376C520.139 352.611 460.893 307.019 460.893 263.974C460.893 220.929 577.36 377.117 577.36 377.117C577.36 377.117 606.939 340.983 605.538 263.974C604.754 220.929 441.065 169.614 453.785 143.454C466.504 117.294 665.032 220.929 665.032 220.929C665.032 220.929 687.251 118.375 665.032 89.3223C642.813 60.2693 413.394 31.9784 438.876 9.28489C464.358 -13.4087 678.846 28.7034 678.846 28.7034C678.846 28.7034 678.846 -47.7795 651.71 -80.2053C624.575 -112.631 446.079 -98.1212 441.065 -118.243Z" fill="#137447"/>
<path d="M302.462 -90.8371C302.08 -91.3729 320.647 -68.1732 320.938 -67.8785C321.23 -67.5837 302.843 -90.3012 302.462 -90.8371ZM422.56 274.536C422.617 274.847 420.56 256.783 417.421 248.52C407.121 221.41 407.648 178.834 390.942 156.131C390.938 156.126 397.685 175.304 401.65 184.653C409.945 204.212 410.39 226.394 417.648 246.364C420.874 255.243 420.848 265.21 422.56 274.536ZM318.147 -66.2122C317.598 -67.1605 327.439 -51.2957 331.467 -43.2022C340.188 -25.6786 340.751 -4.93588 348.837 12.8817C352.22 20.3355 352.948 28.8145 356.35 36.2573C356.679 36.9789 349.949 22.1674 346.641 15.173C334.307 -10.903 332.607 -41.2142 318.147 -66.2122ZM321.273 -64.8111C321.449 -64.9066 317.492 -68.5849 318.985 -69.4417C334.101 -78.1133 423.109 -55.012 452.857 -55.6912C454.406 -55.7266 459.461 -55.7308 460.833 -54.8518C456.037 -51.1953 437.015 -57.2137 431.217 -56.8707C406.56 -55.4121 381.945 -63.3644 357.287 -61.9136C345.265 -61.2062 320.041 -64.1428 321.273 -64.8111ZM317.355 -67.7961C317.291 -67.5897 322.972 -67.7611 322.497 -66.0099C319.031 -53.2332 257.796 -17.3872 242.105 -1.15062C237.012 4.11937 218.907 22.0989 211.416 23.4048C211.346 23.417 227.014 11.1755 233.603 3.84045C250.087 -14.5083 273.149 -26.1438 289.64 -44.4864C297.71 -53.4634 317.782 -69.1686 317.355 -67.7961ZM354.04 37.0441C353.619 36.1344 361.741 56.7476 366.177 66.3431C375.415 86.3273 376.573 109.378 385.513 129.497C389.113 137.598 389.968 146.823 393.127 155.11C393.312 155.597 386.059 135.122 381.751 125.448C372.808 105.36 371.634 82.3334 362.366 62.3933C358.617 54.3287 357.776 45.1121 354.04 37.0441ZM355.393 38.5256C371.778 36.885 423.608 68.1665 454.944 76.9843C456.318 77.371 459.921 78.4909 460.963 79.5635C461.001 79.6033 446.145 73.0302 438.327 71.0794C419.036 66.2659 402.042 54.2343 382.752 49.4163C373.229 47.0377 354.874 38.5775 355.393 38.5256ZM353.253 36.2213C349.297 53.3351 296.759 95.4779 276.279 123.914C275.315 125.253 272.729 128.633 271.179 129.365C271.719 123.286 285.399 114.299 288.709 109.389C300.903 91.3026 319.678 78.29 331.875 60.2059C337.864 51.327 353.405 35.5665 353.253 36.2213ZM391.612 156.625C399.909 158.968 449.926 194.095 460.953 211.038C460.963 211.053 455.98 206.936 453.226 205.284C438.225 196.288 427.009 181.804 412.008 172.807C404.565 168.343 391.47 156.585 391.612 156.625ZM390.756 155.237C389.366 163.335 358.946 217.214 343.217 229.493C343.186 229.517 353.54 215.1 357.321 207.143C364.887 191.224 378.326 178.568 385.89 162.647C387.158 159.978 390.765 155.183 390.756 155.237Z" fill="#074A2B" stroke="#074A2B" stroke-width="2" stroke-linecap="round" stroke-linejoin="round"/>
<path d="M703.254 1762C746.823 1745.23 852.088 1743.73 857.427 1769.65C862.767 1795.57 813.948 1842.87 781.167 1868.03C748.385 1893.2 681.988 1897.02 681.988 1897.02C681.988 1897.02 729.265 1905.42 735.384 1920.67C741.502 1935.92 723.958 1961.09 707.923 1969.49C700.923 1973.16 675.981 1975.32 650.096 1976.6C670.719 1979.28 691.09 1985.91 703.253 2000.29C735.383 2038.27 703.253 2073.99 666.929 2082.38C630.606 2090.77 548.026 2118.73 548.026 2118.73C548.026 2118.73 643.849 2106.79 675.886 2131.2C707.923 2155.61 726.23 2209.77 681.988 2248.46C637.747 2287.14 465.676 2313.79 465.676 2313.79C465.676 2313.79 627.344 2288.81 693.186 2301.3C759.028 2313.79 767.419 2446.52 726.23 2483.61C706.974 2500.95 649.302 2517.45 593.342 2530.1C660.615 2519.33 732.596 2511.88 746.581 2526.25C774.039 2554.48 746.581 2701.98 693.186 2724.58C661.914 2737.81 587.436 2735.54 531.087 2731.39C589.377 2739.11 661.209 2754.5 652.458 2783.07C572.382 2885.44 387.067 2867.44 387.067 2867.44C387.088 2867.44 227.389 2867.45 151.107 2688.79C130.262 2639.97 266.29 2639.97 266.29 2639.97C266.29 2639.97 186.396 2639.97 151.107 2608.69C115.817 2577.42 116.587 2426.45 171.706 2409.61C195.685 2402.28 223.623 2408.31 247.535 2417.47C216.69 2399.52 182.385 2376.06 171.706 2355.45C150.912 2315.32 208.59 2131.2 252.538 2131.2C283.542 2131.2 315.729 2189.56 331.999 2223.93C314.835 2183.94 283.27 2105.65 283.27 2070.63C283.27 2022.54 343.755 1943.75 378.4 1947.37C397.825 1949.4 414.231 1977.73 424.897 2002.23C415.913 1973.83 406.983 1935.06 414.993 1910.53C428.871 1868.03 460.955 1846.69 492.818 1857.36C524.681 1868.03 524.681 1914.49 524.681 1914.49C524.681 1914.49 539.702 1807.79 560.705 1784.89C581.709 1762 605.088 1754.41 637.747 1769.65C657.408 1778.83 657.581 1796.56 654.604 1809.23C661.37 1794.57 675.656 1772.63 703.254 1762Z" fill="#53A447"/>
<path d="M420.076 3112.55C414.39 3033.45 405.377 2947.89 397.186 2859.52C359.088 2448.52 376.679 1960.18 791.285 1796.03" stroke="#137447" stroke-width="5"/>
<path d="M711.659 686.665C757.116 697.317 844.974 755.316 834.801 779.748C824.627 804.18 757.659 815.801 716.399 818.156C675.138 820.511 618.103 786.304 618.103 786.304C618.103 786.304 652.454 819.857 648.93 835.905C645.407 851.953 616.739 862.888 598.758 860.806C590.909 859.898 569.072 847.652 546.956 834.142C562.493 847.965 575.604 864.907 577.566 883.637C582.752 933.116 536.09 944.562 501.343 931.056C466.596 917.549 382.601 894.188 382.601 894.188C382.601 894.188 468.527 938.247 481.274 976.452C494.021 1014.66 478.677 1069.73 420.333 1076.81C361.989 1083.9 204.755 1009.09 204.755 1009.09C204.755 1009.09 352.453 1079.42 399.851 1126.8C447.248 1174.18 379.494 1288.61 324.574 1296.09C298.898 1299.59 241.94 1280.77 188.562 1259.74C250.232 1288.7 313.926 1323.05 317.398 1342.8C324.214 1381.58 218.509 1488.06 161.654 1476.69C128.356 1470.03 68.0662 1426.25 23.8225 1391.11C67.665 1430.28 118.381 1483.43 95.0695 1502.13C-28.7324 1541.69 -171.791 1422.52 -171.791 1422.52C-171.77 1422.53 -303.786 1332.67 -266.304 1142.05C-256.062 1089.97 -143.618 1166.52 -143.618 1166.52C-143.618 1166.52 -209.66 1121.56 -221.233 1075.85C-232.806 1030.14 -147.213 905.775 -92.1698 922.867C-68.2229 930.303 -48.5247 951.013 -33.9108 972.039C-49.3082 939.845 -64.4628 901.146 -61.6927 878.099C-56.2994 833.227 94.9926 713.484 131.321 738.215C156.95 755.662 150.717 822.015 144.822 859.587C153.136 816.872 171.104 734.388 190.811 705.441C217.876 665.685 312.212 634.593 338.813 657.083C353.728 669.693 351.347 702.344 346.376 728.599C354.931 700.068 369.366 662.994 389.792 647.225C425.18 619.903 463.713 620.314 484.046 647.067C504.379 673.82 478.235 712.224 478.235 712.224C478.235 712.224 550.699 632.471 580.943 625.369C611.187 618.267 634.787 625.144 653.206 656.123C664.294 674.773 654.457 689.531 644.87 698.325C658.711 690.015 682.867 679.918 711.659 686.665Z" fill="#53A447"/>
<path d="M-282.436 1643.71C-242.626 1575.13 -201.925 1499.32 -158.967 1421.66C40.8283 1060.48 330.177 666.708 765.28 764.332" stroke="#137447" stroke-width="5"/>
<path d="M456.391 385.909C416.597 373.076 342.422 314.88 353.29 293.817C364.158 272.754 424.782 267.282 461.782 268.199C498.782 269.116 547.186 303.82 547.186 303.82C547.186 303.82 518.981 271.359 523.3 257.293C527.619 243.227 554.008 235.564 569.904 238.738C576.844 240.124 595.439 252.651 614.19 266.328C601.334 252.853 590.871 236.772 590.49 219.91C589.482 175.368 631.968 168.565 661.994 183.163C692.019 197.761 765.281 224.759 765.281 224.759C765.281 224.759 691.811 179.146 683.229 144.113C674.646 109.079 692.372 61.0476 744.966 58.9927C797.56 56.9377 932.429 135.211 932.429 135.211C932.429 135.211 805.744 61.6323 766.905 15.8763C728.066 -29.8796 796.914 -127.063 846.481 -129.722C869.655 -130.966 919.117 -110.003 965.222 -87.326C912.295 -117.681 857.957 -153.001 856.304 -170.885C853.058 -205.999 955.198 -293.304 1005.11 -278.998C1034.35 -270.619 1084.95 -227.125 1121.87 -192.521C1085.61 -230.699 1044.23 -281.85 1066.4 -296.827C1179.8 -323.078 1298.77 -206.251 1298.77 -206.251C1298.75 -206.257 1410.01 -116.389 1362.61 51.0033C1349.66 96.743 1254.89 20.1905 1254.89 20.1905C1254.89 20.1905 1310.55 65.1521 1317.53 106.799C1324.52 148.445 1239.02 253.183 1191.14 233.899C1170.31 225.51 1154.25 205.584 1142.74 185.748C1154.13 215.609 1164.82 251.26 1160.67 271.628C1152.57 311.285 1008.77 407.094 978.153 382.361C956.554 364.913 966.972 306.145 974.983 273.041C964.437 310.558 942.363 382.866 922.656 407.261C895.59 440.766 809.114 461.615 787.016 439.595C774.627 427.248 779.141 398.279 785.498 375.209C775.775 400.048 760.178 432.083 740.793 444.664C707.207 466.461 672.845 463.274 656.653 437.908C640.462 412.542 666.608 380.176 666.608 380.176C666.608 380.176 596.093 446.058 568.578 450.185C541.064 454.311 520.503 446.445 506.329 417.447C497.797 399.99 507.658 387.537 516.858 380.389C503.896 386.793 481.596 394.038 456.391 385.909Z" fill="#085D37"/>
<path d="M1413.71 -395.576C1373.16 -337.275 1331.29 -272.596 1287.26 -206.422C1082.5 101.339 795.427 431.635 414.212 312.664" stroke="#074A2B" stroke-width="5"/>
<path d="M-57.4873 2357.66C-94.7037 2385.85 -195.432 2416.46 -207.744 2393.03C-220.057 2369.61 -186.253 2310.64 -161.727 2277.38C-137.201 2244.11 -74.4624 2222.05 -74.4624 2222.05C-74.4624 2222.05 -122.217 2227.07 -132.321 2214.11C-142.425 2201.16 -132.541 2172.11 -119.461 2159.6C-113.751 2154.13 -90.3855 2145.14 -65.8681 2136.74C-86.4268 2139.88 -107.837 2139.16 -123.507 2128.71C-164.903 2101.12 -143.928 2057.89 -111.351 2039.77C-78.7732 2021.64 -7.17256 1971.9 -7.17256 1971.9C-7.17256 1971.9 -95.9375 2009.92 -133.483 1995.34C-171.029 1980.76 -203.624 1933.8 -171.834 1884.37C-140.044 1834.93 17.9073 1761.65 17.9073 1761.65C17.9073 1761.65 -130.51 1830.45 -197.235 1836.69C-263.96 1842.93 -308.796 1717.73 -279.496 1670.68C-265.798 1648.68 -214.955 1616.85 -164.693 1589.19C-226.347 1618.18 -293.446 1645.28 -310.866 1635.34C-345.069 1615.83 -359.555 1466.49 -314.511 1429.99C-288.13 1408.61 -215.94 1390.15 -160.647 1378.53C-218.791 1387.26 -292.078 1392.37 -291.584 1362.5C-243.006 1241.95 -59.9603 1207.9 -59.9603 1207.9C-59.978 1207.91 93.4665 1163.65 216.263 1314.18C249.817 1355.32 119.115 1393 119.115 1393C119.115 1393 195.881 1370.87 238.454 1391.14C281.027 1411.41 322.115 1556.68 273.822 1588.14C252.811 1601.83 224.296 1603.77 198.782 1601.6C233.392 1610.3 272.855 1623.33 288.827 1640.18C319.924 1672.97 315.519 1865.87 273.291 1878.04C243.501 1886.63 196.406 1839.48 171.248 1810.96C198.82 1844.63 250.841 1911.11 260.544 1944.76C273.869 1990.97 237.583 2083.43 203.291 2089.55C184.063 2092.98 160.45 2070.31 143.413 2049.72C159.914 2074.52 179.236 2109.3 178.336 2135.09C176.777 2179.77 151.863 2209.16 118.29 2207.74C84.718 2206.31 71.8457 2161.67 71.8457 2161.67C71.8457 2161.67 86.9772 2268.36 73.1378 2296.17C59.2985 2323.99 38.9396 2337.76 3.33594 2332.17C-18.0976 2328.8 -23.178 2311.8 -23.8269 2298.81C-26.2663 2314.77 -33.9143 2339.81 -57.4873 2357.66Z" fill="#003D26"/>
<path d="M-159.586 981.537C-132.208 1055.96 -99.8412 1135.68 -67.4856 1218.32C82.995 1602.67 201.394 2076.76 -151.499 2349.36" stroke="#002817" stroke-width="5"/>
<path d="M440.281 1946.22C468.828 1954.45 333.619 2165.88 333.619 2165.88C431.403 2128.09 544.989 2125.3 587.159 2005.32C629.328 1885.34 537.455 1786.8 495.684 1785.84C495.684 1785.84 670.935 1751.6 684.152 1596.65C697.369 1441.71 522.586 1325.81 522.586 1325.81C522.586 1325.81 514.655 1592.37 477.899 1597.15C441.143 1601.93 496.661 1334.66 460.882 1312.23C425.102 1289.81 325.057 1325.41 325.057 1325.41C392.099 1409.37 384.346 1718.66 355.576 1614.15C326.806 1509.64 313.887 1348.84 280.073 1323.64C246.259 1298.44 160.33 1347.64 88.3475 1358.65C88.3475 1358.65 262.675 1628.53 234.127 1640.67C205.578 1652.8 75.0047 1406.43 48.1498 1390.87C21.2947 1375.32 -66.9964 1459.93 -66.9964 1459.93C-66.9964 1459.93 74.8732 1549.28 91.7324 1624.21C108.592 1699.13 -16.3344 1561.61 -73.2604 1528.64C-130.186 1495.67 -271.207 1561.87 -271.207 1561.87C-271.207 1561.87 -251.634 1670.4 -176.462 1706.82C-101.289 1743.23 -17.5266 1708.81 27.594 1734.94C72.7147 1761.07 -161.718 1788.33 -161.718 1788.33C-161.718 1788.33 -141.8 1841.27 -60.2266 1886.56C-14.6301 1911.87 138.542 1771.45 158.241 1800.66C177.94 1829.88 -51.2275 1975.06 -51.2275 1975.06C-51.2275 1975.06 42.7817 2060.61 86.7261 2054.96C130.67 2049.31 299.616 1826.01 307.933 1866.49C316.25 1906.98 141.881 2106.25 141.881 2106.25C141.881 2106.25 222.053 2152.68 272.517 2143.93C322.982 2135.17 416.145 1939.26 440.281 1946.22Z" fill="#137447"/>
<path d="M495.705 1784.29C496.499 1784.22 460.908 1789.59 460.422 1789.72C459.935 1789.85 494.912 1784.36 495.705 1784.29ZM39.7946 1688.35C39.4336 1688.22 59.6179 1697.03 70.1859 1698.75C104.856 1704.42 149.165 1730.82 183.107 1727.09C183.115 1727.09 158.915 1722.52 146.708 1721C121.17 1717.82 97.6476 1704.82 72.3076 1700.3C61.0417 1698.29 50.6099 1692.21 39.7946 1688.35ZM460.37 1785.78C461.697 1785.78 439.092 1786.46 428.163 1785.77C404.499 1784.27 382.414 1772.27 358.828 1769.93C348.961 1768.95 339.631 1764.57 329.764 1763.61C328.807 1763.52 348.419 1765.46 357.76 1766.24C392.582 1769.14 425.387 1785.76 460.37 1785.78ZM457.003 1788.21C456.996 1788.45 463.255 1786.53 463.246 1788.62C463.158 1809.73 384.902 1889 367.553 1920.6C366.649 1922.24 363.585 1927.55 361.83 1928.45C360.91 1921.2 378.767 1904.92 381.928 1898.63C395.369 1871.9 418.65 1850.93 432.1 1824.2C438.658 1811.17 457.05 1786.51 457.003 1788.21ZM462.511 1785.91C462.333 1785.72 459.064 1791.78 457.516 1790.22C446.228 1778.83 445.832 1692.88 438.339 1666.57C435.907 1658.03 428.052 1628.14 431.232 1619.49C431.262 1619.41 434.581 1643.27 438.269 1654.63C447.495 1683.05 445.689 1714.29 454.904 1742.71C459.414 1756.62 463.69 1787.19 462.511 1785.91ZM330.341 1760.71C331.551 1760.82 305.012 1756.82 292.261 1755.65C265.704 1753.2 240.838 1740.42 214.321 1737.57C203.645 1736.43 193.454 1731.72 182.85 1730C182.227 1729.9 208.094 1734.73 220.85 1736.09C247.336 1738.91 272.186 1751.66 298.715 1754.05C309.444 1755.02 319.616 1759.73 330.341 1760.71ZM327.967 1761.23C319.739 1779.4 255.48 1814.74 227.212 1842.23C225.972 1843.44 222.611 1846.54 220.854 1846.98C220.789 1846.99 236.699 1835.41 243.49 1828.4C260.249 1811.1 283.178 1800.59 299.94 1783.3C308.216 1774.76 328.228 1760.66 327.967 1761.23ZM331.682 1760.39C316.144 1745.85 303.868 1665.19 286.495 1626.46C285.677 1624.64 283.704 1619.87 283.877 1617.8C289.921 1622.06 291.036 1641.86 294.173 1648.31C305.729 1672.07 307.969 1699.65 319.52 1723.42C325.191 1735.08 332.276 1760.94 331.682 1760.39ZM182.182 1727.49C174.688 1734.77 107.5 1765.87 83.0447 1767.14C83.0229 1767.14 90.3641 1764.42 93.7677 1762.54C112.306 1752.27 134.298 1749.31 152.837 1739.05C162.035 1733.96 182.311 1727.37 182.182 1727.49ZM184.156 1727.44C176.512 1721.07 138.504 1656.47 135.183 1632.52C135.177 1632.48 144.003 1652.08 150.047 1660.88C162.141 1678.47 167.248 1700.24 179.344 1717.84C181.372 1720.79 184.208 1727.48 184.156 1727.44Z" fill="#074A2B" stroke="#074A2B" stroke-width="2" stroke-linecap="round" stroke-linejoin="round"/>
<path d="M144.087 2282.23L58.5547 2307.75C58.5547 2307.75 177.969 2370.68 243.241 2530.53C130.429 2448.59 58.5547 2307.75 58.5547 2307.75L-23.7574 2332.3C-23.7574 2332.3 155.994 2494.26 163.97 2605.05C84.5875 2555.12 -23.7574 2332.3 -23.7574 2332.3L-106.617 2357.02C-106.617 2357.02 41.1158 2445.68 60.0449 2613.2C-16.2415 2565.64 -106.617 2357.02 -106.617 2357.02L-185.98 2380.7C-185.98 2380.7 -85.7651 2438.93 -53.6316 2612.17C-142.135 2552.43 -185.98 2380.7 -185.98 2380.7L-261.643 2403.28C-261.643 2403.28 -207.369 2445.1 -182.566 2528.24C-266.662 2486.52 -261.643 2403.28 -261.643 2403.28C-261.643 2403.28 -334.764 2318.29 -269.86 2235.64C-249.15 2305.05 -261.643 2403.28 -261.643 2403.28L-185.98 2380.7C-185.98 2380.7 -225.172 2186.05 -203.145 2111.02C-110.796 2210.93 -185.98 2380.7 -185.98 2380.7L-106.617 2357.02C-106.617 2357.02 -135.214 2154.59 -99.0411 2079.96C-34.9419 2199.39 -106.617 2357.02 -106.617 2357.02L-23.7574 2332.3C-23.7574 2332.3 -41.6328 2112.28 -4.83871 2039.22C45.8609 2169.13 -23.7574 2332.3 -23.7574 2332.3L58.5547 2307.75C58.5547 2307.75 55.9065 2102.74 93.7276 2029.37C146.978 2141.82 58.5547 2307.75 58.5547 2307.75L144.087 2282.23C144.087 2282.23 151.466 2068.33 182.549 2002.87C227.826 2093.09 144.087 2282.23 144.087 2282.23L224.821 2258.14C224.821 2258.14 270.646 2052.33 302.479 1992.59C341.214 2121.67 224.821 2258.14 224.821 2258.14L303.089 2234.79C303.089 2234.79 380.343 2024.59 411.973 1991.35C433.68 2128.15 303.089 2234.79 303.089 2234.79L390.539 2208.7C390.539 2208.7 467.387 2040.33 499.93 2005.98C526.66 2095.57 390.539 2208.7 390.539 2208.7C390.539 2208.7 562.77 2108.54 684.695 2120.95C580.47 2167.86 390.539 2208.7 390.539 2208.7C390.539 2208.7 561.939 2213.83 596.375 2329.25C507.353 2297.8 390.539 2208.7 390.539 2208.7L303.089 2234.79C303.089 2234.79 471.691 2270.64 529.729 2386.05C456.789 2357.71 303.089 2234.79 303.089 2234.79L224.821 2258.14C224.821 2258.14 403.62 2331.6 443.113 2463.98C317.427 2418.19 224.821 2258.14 224.821 2258.14L144.087 2282.23C144.087 2282.23 284.894 2345.92 330.167 2497.67C280.485 2461.73 144.087 2282.23 144.087 2282.23Z" fill="#2A9135"/>
<path d="M-609.255 2506.98L-261.643 2403.28M58.5547 2307.75L144.087 2282.23M58.5547 2307.75L-23.7575 2332.3M58.5547 2307.75C58.5547 2307.75 177.969 2370.68 243.241 2530.53C130.429 2448.59 58.5547 2307.75 58.5547 2307.75ZM58.5547 2307.75C58.5547 2307.75 146.978 2141.82 93.7276 2029.37C55.9065 2102.74 58.5547 2307.75 58.5547 2307.75ZM390.539 2208.7L303.089 2234.79M390.539 2208.7C390.539 2208.7 562.77 2108.54 684.695 2120.95C580.47 2167.86 390.539 2208.7 390.539 2208.7ZM390.539 2208.7C390.539 2208.7 561.939 2213.83 596.375 2329.25C507.353 2297.8 390.539 2208.7 390.539 2208.7ZM390.539 2208.7C390.539 2208.7 526.66 2095.57 499.93 2005.98C467.387 2040.33 390.539 2208.7 390.539 2208.7ZM-261.643 2403.28L-185.98 2380.7M-261.643 2403.28C-261.643 2403.28 -266.662 2486.52 -182.566 2528.24C-207.37 2445.1 -261.643 2403.28 -261.643 2403.28ZM-261.643 2403.28C-261.643 2403.28 -249.15 2305.05 -269.86 2235.64C-334.764 2318.29 -261.643 2403.28 -261.643 2403.28ZM224.821 2258.14L144.087 2282.23M224.821 2258.14L303.089 2234.79M224.821 2258.14C224.821 2258.14 403.62 2331.6 443.113 2463.98C317.427 2418.19 224.821 2258.14 224.821 2258.14ZM224.821 2258.14C224.821 2258.14 341.214 2121.67 302.479 1992.59C270.646 2052.33 224.821 2258.14 224.821 2258.14ZM-106.617 2357.02L-23.7575 2332.3M-106.617 2357.02L-185.98 2380.7M-106.617 2357.02C-106.617 2357.02 41.1158 2445.68 60.0449 2613.2C-16.2415 2565.64 -106.617 2357.02 -106.617 2357.02ZM-106.617 2357.02C-106.617 2357.02 -34.9419 2199.39 -99.0411 2079.96C-135.214 2154.59 -106.617 2357.02 -106.617 2357.02ZM144.087 2282.23C144.087 2282.23 284.894 2345.92 330.167 2497.67C280.485 2461.73 144.087 2282.23 144.087 2282.23ZM144.087 2282.23C144.087 2282.23 227.826 2093.09 182.549 2002.87C151.466 2068.33 144.087 2282.23 144.087 2282.23ZM303.089 2234.79C303.089 2234.79 471.691 2270.64 529.729 2386.05C456.789 2357.71 303.089 2234.79 303.089 2234.79ZM303.089 2234.79C303.089 2234.79 433.68 2128.15 411.973 1991.35C380.343 2024.59 303.089 2234.79 303.089 2234.79ZM-23.7575 2332.3C-23.7575 2332.3 155.994 2494.26 163.97 2605.05C84.5875 2555.12 -23.7575 2332.3 -23.7575 2332.3ZM-23.7575 2332.3C-23.7575 2332.3 45.8608 2169.13 -4.83871 2039.22C-41.6328 2112.28 -23.7575 2332.3 -23.7575 2332.3ZM-185.98 2380.7C-185.98 2380.7 -85.7652 2438.93 -53.6316 2612.17C-142.135 2552.43 -185.98 2380.7 -185.98 2380.7ZM-185.98 2380.7C-185.98 2380.7 -110.796 2210.93 -203.145 2111.02C-225.172 2186.05 -185.98 2380.7 -185.98 2380.7Z" stroke="#2A9135" stroke-width="5"/>
<path d="M2125.04 404.385C2163.74 395.888 2139.65 729.742 2139.65 729.742C2230.27 623.262 2361.66 547.774 2334.82 380.293C2307.97 212.813 2137.61 155.703 2088.02 181.127C2088.02 181.127 2271.71 29.5549 2188.69 -160.507C2105.67 -350.568 1827.07 -375.314 1827.07 -375.314C1827.07 -375.314 1987.25 -57.752 1947.2 -28.7787C1907.15 0.194639 1802.3 -348.459 1746.09 -352C1689.89 -355.541 1595.23 -250.193 1595.23 -250.193C1727.21 -194.385 1914.77 173.157 1814.59 68.9215C1714.41 -35.3145 1597.03 -215.624 1541.36 -223.666C1485.7 -231.708 1416.23 -119.393 1338.84 -60.7142C1338.84 -60.7142 1714.82 144.852 1689.07 177.232C1663.31 209.612 1353.57 3.77695 1312.2 2.61529C1270.82 1.45364 1221.11 156.788 1221.11 156.788C1221.11 156.788 1444.25 171.343 1511.65 248.469C1579.06 325.595 1345.16 243.795 1257.45 241.332C1169.75 238.87 1046.51 406.15 1046.51 406.15C1046.51 406.15 1138.46 520.949 1249.75 515.844C1361.03 510.738 1437.35 417.123 1506.86 419.075C1576.38 421.027 1318.86 602.038 1318.86 602.038C1318.86 602.038 1375.87 651.446 1500.31 652.674C1569.86 653.361 1660.15 391.333 1701.82 413.061C1743.5 434.789 1567.13 750.708 1567.13 750.708C1567.13 750.708 1731.74 791.242 1779.67 756.676C1827.6 722.11 1883.69 352.886 1919.18 395.067C1954.68 437.249 1876.94 781.733 1876.94 781.733C1876.94 781.733 2000.46 785.201 2054.06 742.848C2107.65 700.496 2092.31 411.569 2125.04 404.385Z" fill="#003D26"/>
<path d="M2087.06 179.3C2087.94 178.708 2049.63 207.64 2049.14 208.098C2048.65 208.556 2086.18 179.892 2087.06 179.3ZM1491.54 356.69C1491.04 356.768 1520.3 354.265 1533.79 349.57C1578.04 334.165 1646.78 336.947 1684.2 310.995C1684.21 310.989 1652.93 321.017 1637.65 326.996C1605.69 339.505 1569.84 339.219 1537.26 350.034C1522.78 354.842 1506.68 354.347 1491.54 356.69ZM2046.58 203.515C2048.14 202.672 2022.07 217.845 2008.81 223.983C1980.12 237.273 1946.59 237.242 1917.45 249.492C1905.26 254.617 1891.53 255.41 1879.36 260.565C1878.18 261.065 1902.41 250.868 1913.85 245.842C1956.52 227.105 2005.55 225.734 2046.58 203.515ZM2044.17 208.5C2044.32 208.789 2050.44 202.564 2051.76 205.015C2065.08 229.82 2023.73 372.518 2023.48 420.592C2023.47 423.096 2023.24 431.26 2021.76 433.435C2016.07 425.523 2026.66 395.077 2026.37 385.698C2025.13 345.81 2039.09 306.419 2037.86 266.531C2037.26 247.082 2043.15 206.48 2044.17 208.5ZM2049.17 202.308C2048.84 202.195 2048.86 211.378 2046.06 210.531C2025.58 204.354 1970.46 103.836 1944.95 77.7579C1936.67 69.2936 1908.46 39.2406 1906.69 27.0833C1906.67 26.9691 1925.73 52.8274 1937.28 63.802C1966.16 91.2551 1983.91 129.027 2012.79 156.491C2026.92 169.932 2051.37 203.06 2049.17 202.308ZM1878.19 256.8C1879.68 256.161 1846.02 268.343 1830.33 275.072C1797.63 289.084 1760.35 289.911 1727.46 303.436C1714.21 308.882 1699.27 309.846 1685.75 314.571C1684.95 314.848 1718.35 304.062 1734.17 297.545C1767.01 284.012 1804.26 283.161 1836.88 269.096C1850.07 263.408 1865 262.468 1878.19 256.8ZM1875.74 258.917C1877.65 285.453 1824.78 367.739 1809.12 417.946C1808.43 420.148 1806.46 425.916 1804.68 427.55C1804.61 427.61 1815.9 403.916 1819.41 391.378C1828.05 360.442 1848.26 333.543 1856.91 302.608C1861.19 287.336 1875.68 258.077 1875.74 258.917ZM1879.56 255.567C1852.1 248.401 1786.42 161.642 1741.43 127.278C1739.31 125.66 1733.97 121.33 1732.86 118.794C1742.65 119.942 1756.54 142.443 1764.32 148.011C1792.98 168.523 1813.14 199.435 1841.79 219.953C1855.86 230.028 1880.61 255.841 1879.56 255.567ZM1683.37 312.055C1679.21 325.349 1620.21 404.533 1592.35 421.573C1592.32 421.588 1599.2 413.727 1601.99 409.354C1617.2 385.536 1641.1 368.079 1656.31 344.261C1663.86 332.444 1683.44 311.827 1683.37 312.055ZM1685.65 310.736C1672.63 308.123 1587 256.554 1567.88 230.594C1567.85 230.544 1590.66 247.918 1603.34 254.386C1628.71 267.326 1648.54 289.603 1673.9 302.541C1678.16 304.71 1685.74 310.754 1685.65 310.736Z" fill="#002817" stroke="#002918" stroke-width="2" stroke-linecap="round" stroke-linejoin="round"/>
<path d="M2174.49 671.573L2254.31 631.624C2254.31 631.624 2125.8 590.328 2033.82 444.206C2159.12 505.359 2254.31 631.624 2254.31 631.624L2331.12 593.179C2331.12 593.179 2126.04 464.814 2098.99 357.078C2185.82 392.506 2331.12 593.179 2331.12 593.179L2408.45 554.479C2408.45 554.479 2247.59 492.754 2199.93 331.047C2283.3 364.675 2408.45 554.479 2408.45 554.479L2482.51 517.412C2482.51 517.412 2373.72 477.429 2312.06 312.366C2409.58 355.871 2482.51 517.412 2482.51 517.412L2553.12 482.073C2553.12 482.073 2492.42 450.284 2453.59 372.698C2543.64 399.216 2553.12 482.073 2553.12 482.073C2553.12 482.073 2639.86 553.106 2590.25 645.753C2557.83 580.973 2553.12 482.073 2553.12 482.073L2482.51 517.412C2482.51 517.412 2554.83 702.336 2546.13 780.042C2437.87 697.645 2482.51 517.412 2482.51 517.412L2408.45 554.479C2408.45 554.479 2471.68 748.897 2448.98 828.665C2365.16 722.143 2408.45 554.479 2408.45 554.479L2331.12 593.179C2331.12 593.179 2386.84 806.781 2363.26 885.108C2290.82 765.943 2331.12 593.179 2331.12 593.179L2254.31 631.624C2254.31 631.624 2292.43 833.076 2267.89 911.882C2195.97 810.358 2254.31 631.624 2254.31 631.624L2174.49 671.573C2174.49 671.573 2204.28 883.516 2185 953.368C2124.78 872.359 2174.49 671.573 2174.49 671.573L2099.15 709.28C2099.15 709.28 2089.67 919.917 2068.67 984.276C2008.16 863.851 2099.15 709.28 2099.15 709.28L2026.11 745.837C2026.11 745.837 1986.44 966.246 1961.05 1004.47C1915.97 873.491 2026.11 745.837 2026.11 745.837L1944.5 786.681C1944.5 786.681 1897.98 965.82 1871.88 1005.29C1830.04 921.68 1944.5 786.681 1944.5 786.681C1944.5 786.681 1792.23 915.171 1670 924.069C1764.52 859.807 1944.5 786.681 1944.5 786.681C1944.5 786.681 1774.81 811.329 1720.9 703.613C1814.02 719.173 1944.5 786.681 1944.5 786.681L2026.11 745.837C2026.11 745.837 1853.85 739.743 1776.69 636.125C1853.44 651.404 2026.11 745.837 2026.11 745.837L2099.15 709.28C2099.15 709.28 1910.33 667.91 1848.5 544.376C1980.22 567.7 2099.15 709.28 2099.15 709.28L2174.49 671.573C2174.49 671.573 2024.78 633.235 1953.9 491.623C2009.06 518.414 2174.49 671.573 2174.49 671.573Z" fill="#2A9135"/>
<path d="M2877.51 319.717L2553.12 482.073M2254.31 631.624L2174.49 671.573M2254.31 631.624L2331.12 593.179M2254.31 631.624C2254.31 631.624 2125.8 590.328 2033.82 444.206C2159.12 505.359 2254.31 631.624 2254.31 631.624ZM2254.31 631.624C2254.31 631.624 2195.97 810.358 2267.89 911.882C2292.43 833.076 2254.31 631.624 2254.31 631.624ZM1944.5 786.681L2026.11 745.837M1944.5 786.681C1944.5 786.681 1792.23 915.171 1670 924.069C1764.52 859.807 1944.5 786.681 1944.5 786.681ZM1944.5 786.681C1944.5 786.681 1774.81 811.329 1720.9 703.613C1814.02 719.173 1944.5 786.681 1944.5 786.681ZM1944.5 786.681C1944.5 786.681 1830.04 921.68 1871.88 1005.29C1897.98 965.82 1944.5 786.681 1944.5 786.681ZM2553.12 482.073L2482.51 517.412M2553.12 482.073C2553.12 482.073 2543.64 399.216 2453.59 372.698C2492.42 450.284 2553.12 482.073 2553.12 482.073ZM2553.12 482.073C2553.12 482.073 2557.83 580.973 2590.25 645.753C2639.86 553.106 2553.12 482.073 2553.12 482.073ZM2099.15 709.28L2174.49 671.573M2099.15 709.28L2026.11 745.837M2099.15 709.28C2099.15 709.28 1910.33 667.91 1848.5 544.376C1980.22 567.7 2099.15 709.28 2099.15 709.28ZM2099.15 709.28C2099.15 709.28 2008.16 863.851 2068.67 984.276C2089.67 919.917 2099.15 709.28 2099.15 709.28ZM2408.45 554.479L2331.12 593.179M2408.45 554.479L2482.51 517.412M2408.45 554.479C2408.45 554.479 2247.59 492.754 2199.93 331.047C2283.3 364.675 2408.45 554.479 2408.45 554.479ZM2408.45 554.479C2408.45 554.479 2365.16 722.143 2448.98 828.665C2471.68 748.897 2408.45 554.479 2408.45 554.479ZM2174.49 671.573C2174.49 671.573 2024.78 633.235 1953.9 491.623C2009.06 518.414 2174.49 671.573 2174.49 671.573ZM2174.49 671.573C2174.49 671.573 2124.78 872.359 2185 953.368C2204.28 883.516 2174.49 671.573 2174.49 671.573ZM2026.11 745.837C2026.11 745.837 1853.85 739.743 1776.69 636.125C1853.44 651.404 2026.11 745.837 2026.11 745.837ZM2026.11 745.837C2026.11 745.837 1915.97 873.491 1961.05 1004.47C1986.44 966.246 2026.11 745.837 2026.11 745.837ZM2331.12 593.179C2331.12 593.179 2126.04 464.814 2098.99 357.078C2185.82 392.506 2331.12 593.179 2331.12 593.179ZM2331.12 593.179C2331.12 593.179 2290.82 765.943 2363.26 885.108C2386.84 806.781 2331.12 593.179 2331.12 593.179ZM2482.51 517.412C2482.51 517.412 2373.72 477.429 2312.06 312.366C2409.58 355.871 2482.51 517.412 2482.51 517.412ZM2482.51 517.412C2482.51 517.412 2437.87 697.645 2546.13 780.042C2554.83 702.336 2482.51 517.412 2482.51 517.412Z" stroke="#2A9135" stroke-width="5"/>
<path d="M1295.62 749.582L1394.1 697.13C1394.1 697.13 1232.19 649.589 1112.62 469.887C1271.15 542.346 1394.1 697.13 1394.1 697.13L1488.88 646.654C1488.88 646.654 1228.51 492.723 1191.3 358.938C1300.94 400.465 1488.88 646.654 1488.88 646.654L1584.29 595.841C1584.29 595.841 1381.31 523.794 1316.63 323.212C1421.88 362.599 1584.29 595.841 1584.29 595.841L1675.67 547.173C1675.67 547.173 1538.46 500.649 1456.17 296.317C1579.42 347.599 1675.67 547.173 1675.67 547.173L1762.8 500.774C1762.8 500.774 1685.94 462.968 1634.95 367.236C1748.33 397.526 1762.8 500.774 1762.8 500.774C1762.8 500.774 1873.44 586.802 1814.38 704.155C1771.82 624.224 1762.8 500.774 1762.8 500.774L1675.67 547.173C1675.67 547.173 1771.91 775.99 1763.5 873.376C1625.6 773.828 1675.67 547.173 1675.67 547.173L1584.29 595.841C1584.29 595.841 1669.47 836.809 1643.63 937.217C1535.5 806.746 1584.29 595.841 1584.29 595.841L1488.88 646.654C1488.88 646.654 1565.28 911.834 1538.29 1010.47C1443.99 863.837 1488.88 646.654 1488.88 646.654L1394.1 697.13C1394.1 697.13 1448.12 947.683 1419.95 1046.95C1326.85 922.345 1394.1 697.13 1394.1 697.13L1295.62 749.582C1295.62 749.582 1339.55 1013.51 1317.67 1101.42C1239.85 1002.08 1295.62 749.582 1295.62 749.582L1202.65 799.09C1202.65 799.09 1197.47 1062.63 1173.26 1143.72C1093.83 995.141 1202.65 799.09 1202.65 799.09L1112.53 847.087C1112.53 847.087 1069.93 1123.8 1039.4 1172.36C978.923 1010.11 1112.53 847.087 1112.53 847.087L1011.83 900.715C1011.83 900.715 959.368 1126.06 928 1176.22C873.057 1073.05 1011.83 900.715 1011.83 900.715C1011.83 900.715 825.599 1066.11 673.126 1081.1C789.218 997.799 1011.83 900.715 1011.83 900.715C1011.83 900.715 800.541 936.888 729.758 803.98C846.632 820.477 1011.83 900.715 1011.83 900.715L1112.53 847.087C1112.53 847.087 897.056 844.924 797.355 717.872C893.752 734.537 1112.53 847.087 1112.53 847.087L1202.65 799.09C1202.65 799.09 965.369 753.364 884.191 600.938C1049.54 625.918 1202.65 799.09 1202.65 799.09L1295.62 749.582C1295.62 749.582 1107.3 706.408 1014.24 531.675C1084.02 563.411 1295.62 749.582 1295.62 749.582Z" fill="#0E5233"/>
<path d="M2163.06 287.607L1762.8 500.774M1394.1 697.13L1295.62 749.582M1394.1 697.13L1488.88 646.654M1394.1 697.13C1394.1 697.13 1232.19 649.589 1112.62 469.887C1271.15 542.346 1394.1 697.13 1394.1 697.13ZM1394.1 697.13C1394.1 697.13 1326.85 922.345 1419.95 1046.95C1448.12 947.683 1394.1 697.13 1394.1 697.13ZM1011.83 900.715L1112.53 847.087M1011.83 900.715C1011.83 900.715 825.599 1066.11 673.126 1081.1C789.218 997.799 1011.83 900.715 1011.83 900.715ZM1011.83 900.715C1011.83 900.715 800.541 936.888 729.758 803.98C846.632 820.477 1011.83 900.715 1011.83 900.715ZM1011.83 900.715C1011.83 900.715 873.057 1073.05 928 1176.22C959.368 1126.06 1011.83 900.715 1011.83 900.715ZM1762.8 500.774L1675.67 547.173M1762.8 500.774C1762.8 500.774 1748.33 397.526 1634.95 367.236C1685.94 462.968 1762.8 500.774 1762.8 500.774ZM1762.8 500.774C1762.8 500.774 1771.82 624.224 1814.38 704.155C1873.44 586.802 1762.8 500.774 1762.8 500.774ZM1202.65 799.09L1295.62 749.582M1202.65 799.09L1112.53 847.087M1202.65 799.09C1202.65 799.09 965.369 753.364 884.191 600.938C1049.54 625.918 1202.65 799.09 1202.65 799.09ZM1202.65 799.09C1202.65 799.09 1093.83 995.141 1173.26 1143.72C1197.47 1062.63 1202.65 799.09 1202.65 799.09ZM1584.29 595.841L1488.88 646.654M1584.29 595.841L1675.67 547.173M1584.29 595.841C1584.29 595.841 1381.31 523.794 1316.63 323.212C1421.88 362.599 1584.29 595.841 1584.29 595.841ZM1584.29 595.841C1584.29 595.841 1535.5 806.746 1643.63 937.217C1669.47 836.809 1584.29 595.841 1584.29 595.841ZM1295.62 749.582C1295.62 749.582 1107.3 706.408 1014.24 531.675C1084.02 563.411 1295.62 749.582 1295.62 749.582ZM1295.62 749.582C1295.62 749.582 1239.85 1002.08 1317.67 1101.42C1339.55 1013.51 1295.62 749.582 1295.62 749.582ZM1112.53 847.087C1112.53 847.087 897.056 844.924 797.355 717.872C893.752 734.537 1112.53 847.087 1112.53 847.087ZM1112.53 847.087C1112.53 847.087 978.923 1010.11 1039.4 1172.36C1069.93 1123.8 1112.53 847.087 1112.53 847.087ZM1488.88 646.654C1488.88 646.654 1228.51 492.723 1191.3 358.938C1300.94 400.465 1488.88 646.654 1488.88 646.654ZM1488.88 646.654C1488.88 646.654 1443.99 863.837 1538.29 1010.47C1565.28 911.834 1488.88 646.654 1488.88 646.654ZM1675.67 547.173C1675.67 547.173 1538.46 500.649 1456.17 296.317C1579.42 347.599 1675.67 547.173 1675.67 547.173ZM1675.67 547.173C1675.67 547.173 1625.6 773.828 1763.5 873.376C1771.91 775.99 1675.67 547.173 1675.67 547.173Z" stroke="#0E5233" stroke-width="5"/>
<path d="M1842.31 632.671C1846.39 671.448 1885.26 750.305 1906.57 744.429C1927.88 738.553 1944.5 684.279 1950.77 650.337C1957.03 616.396 1934.65 565.564 1934.65 565.564C1934.65 565.564 1958.86 597.532 1972.52 596.289C1986.19 595.047 1998.24 572.436 1998.4 557.32C1998.46 550.721 1990.6 531.348 1981.72 511.611C1991.55 525.929 2004.22 538.563 2019.53 542.147C2059.98 551.613 2074.34 514.147 2066.78 483.945C2059.22 453.743 2048.64 381.705 2048.64 381.705C2048.64 381.705 2076.17 457.505 2106.5 472.059C2136.82 486.614 2184.05 479.654 2196.02 432.052C2207.99 384.45 2162.44 246.353 2162.44 246.353C2162.44 246.353 2205.27 376.081 2239.58 420.304C2273.88 464.528 2375.78 420.346 2387.72 375.622C2393.3 354.713 2383.66 305.553 2371.81 259.127C2389.36 313.252 2411.16 369.616 2427.17 374.557C2458.59 384.257 2557.86 307.798 2554.38 259.502C2552.34 231.216 2522.36 176.686 2497.87 136.354C2525.75 176.775 2564.49 224.351 2582.41 206.989C2628.13 108.543 2544.34 -22.4434 2544.34 -22.4434C2544.34 -22.4257 2483.68 -141.201 2321.83 -130.062C2277.6 -127.019 2329.28 -25.8511 2329.28 -25.8511C2329.28 -25.8511 2298.93 -85.2702 2262.26 -99.6355C2225.59 -114.001 2113.61 -56.0755 2122.02 -8.68233C2125.68 11.9365 2140.78 30.4221 2156.67 44.7279C2131.61 28.6059 2101.12 12.0052 2081.74 11.8922C2044 11.6721 1928.97 124.517 1945.67 157.202C1957.44 180.261 2013.07 182.029 2044.82 181.071C2008.56 183.497 1938.34 189.766 1912.29 203.069C1876.52 221.34 1840.9 296.256 1856.76 320.647C1865.65 334.323 1892.95 335.762 1915.23 334.387C1890.69 338.494 1858.47 346.581 1843.26 361.857C1816.93 388.324 1813.24 420.294 1833.28 439.937C1853.33 459.581 1887.88 441.931 1887.88 441.931C1887.88 441.931 1814.23 493.64 1805.18 517.957C1796.14 542.274 1799.37 562.547 1823.11 581.046C1837.41 592.182 1850.66 585.573 1858.95 578.548C1850.62 589.149 1839.73 608.109 1842.31 632.671Z" fill="#085D37"/>
<path d="M2739.17 -91.0073C2678.19 -65.1884 2611.13 -39.3857 2542.29 -11.906C2222.14 115.898 1865.64 314.499 1901.06 685.216" stroke="#074A2B" stroke-width="5"/>
<path d="M2517.74 756.639C2542.05 763.651 2426.91 943.706 2426.91 943.706C2510.18 911.523 2606.91 909.149 2642.82 806.972C2678.73 704.796 2600.49 620.884 2564.92 620.059C2564.92 620.059 2714.16 590.899 2725.42 458.95C2736.67 327 2587.83 228.305 2587.83 228.305C2587.83 228.305 2581.07 455.308 2549.77 459.378C2518.47 463.448 2565.75 235.839 2535.28 216.742C2504.81 197.646 2419.61 227.963 2419.61 227.963C2476.71 299.462 2470.1 562.851 2445.6 473.85C2421.1 384.85 2410.1 247.914 2381.31 226.456C2352.51 204.998 2279.33 246.894 2218.03 256.273C2218.03 256.273 2366.49 486.099 2342.18 496.434C2317.87 506.769 2206.67 296.955 2183.8 283.708C2160.93 270.462 2085.74 342.515 2085.74 342.515C2085.74 342.515 2206.56 418.608 2220.92 482.415C2235.27 546.223 2128.89 429.111 2080.41 401.032C2031.93 372.953 1911.84 429.331 1911.84 429.331C1911.84 429.331 1928.51 521.757 1992.52 552.765C2056.54 583.774 2127.87 554.46 2166.3 576.716C2204.72 598.972 2005.08 622.182 2005.08 622.182C2005.08 622.182 2022.04 667.27 2091.51 705.835C2130.34 727.392 2260.78 607.805 2277.55 632.685C2294.33 657.565 2099.17 781.2 2099.17 781.2C2099.17 781.2 2179.23 854.058 2216.65 849.246C2254.08 844.433 2397.95 654.267 2405.03 688.747C2412.11 723.228 2263.62 892.919 2263.62 892.919C2263.62 892.919 2331.9 932.464 2374.87 925.007C2417.85 917.55 2497.18 750.71 2517.74 756.639Z" fill="#137447"/>
<path d="M2564.94 618.742C2565.61 618.679 2535.3 623.257 2534.89 623.365C2534.48 623.473 2564.26 618.806 2564.94 618.742ZM2176.69 537.036C2176.38 536.927 2193.57 544.43 2202.57 545.9C2232.09 550.723 2269.83 573.207 2298.73 570.032C2298.74 570.031 2278.13 566.139 2267.73 564.844C2245.99 562.136 2225.95 551.065 2204.37 547.217C2194.78 545.507 2185.9 540.33 2176.69 537.036ZM2534.85 620.012C2535.98 620.012 2516.73 620.594 2507.42 620.005C2487.27 618.729 2468.46 608.507 2448.37 606.513C2439.97 605.678 2432.03 601.945 2423.62 601.133C2422.81 601.054 2439.51 602.705 2447.46 603.368C2477.12 605.84 2505.05 619.995 2534.85 620.012ZM2531.98 622.078C2531.97 622.285 2537.3 620.654 2537.3 622.43C2537.22 640.407 2470.58 707.916 2455.8 734.823C2455.03 736.224 2452.42 740.738 2450.93 741.509C2450.15 735.336 2465.35 721.468 2468.05 716.116C2479.49 693.351 2499.32 675.49 2510.77 652.728C2516.36 641.63 2532.02 620.633 2531.98 622.078ZM2536.67 620.124C2536.52 619.96 2533.73 625.12 2532.42 623.79C2522.8 614.09 2522.47 540.894 2516.09 518.492C2514.01 511.221 2507.32 485.764 2510.03 478.401C2510.06 478.332 2512.88 498.648 2516.03 508.323C2523.88 532.524 2522.34 559.127 2530.19 583.331C2534.03 595.177 2537.67 621.215 2536.67 620.124ZM2424.11 598.664C2425.14 598.759 2402.54 595.351 2391.69 594.35C2369.07 592.263 2347.89 581.379 2325.31 578.957C2316.22 577.982 2307.54 573.976 2298.51 572.511C2297.98 572.425 2320.01 576.536 2330.87 577.693C2353.43 580.096 2374.59 590.954 2397.18 592.99C2406.32 593.813 2414.98 597.828 2424.11 598.664ZM2422.09 599.106C2415.09 614.581 2360.36 644.674 2336.29 668.087C2335.23 669.113 2332.37 671.751 2330.88 672.126C2330.82 672.14 2344.37 662.277 2350.15 656.307C2364.42 641.575 2383.95 632.626 2398.23 617.898C2405.27 610.626 2422.31 598.616 2422.09 599.106ZM2425.26 598.388C2412.02 586.007 2401.57 517.319 2386.77 484.335C2386.08 482.782 2384.4 478.726 2384.55 476.963C2389.69 480.589 2390.64 497.447 2393.31 502.94C2403.15 523.177 2405.06 546.664 2414.9 566.903C2419.73 576.84 2425.76 598.861 2425.26 598.388ZM2297.94 570.375C2291.56 576.57 2234.34 603.056 2213.52 604.14C2213.5 604.141 2219.75 601.821 2222.65 600.216C2238.44 591.477 2257.17 588.954 2272.95 580.215C2280.79 575.88 2298.05 570.269 2297.94 570.375ZM2299.62 570.329C2293.11 564.9 2260.75 509.889 2257.92 489.499C2257.91 489.459 2265.43 506.156 2270.58 513.645C2280.88 528.63 2285.23 547.17 2295.53 562.153C2297.25 564.665 2299.67 570.365 2299.62 570.329Z" fill="#074A2B" stroke="#074A2B" stroke-width="2" stroke-linecap="round" stroke-linejoin="round"/>
<path d="M1910.01 2317.05L1846.98 2380.25C1846.98 2380.25 1981.96 2378.65 2115.54 2488.05C1977.31 2469.8 1846.98 2380.25 1846.98 2380.25L1786.33 2441.08C1786.33 2441.08 2021.55 2497.75 2081.38 2591.35C1987.79 2585.29 1786.33 2441.08 1786.33 2441.08L1725.28 2502.31C1725.28 2502.31 1897.41 2509.82 1993.91 2648.05C1904.18 2642.61 1725.28 2502.31 1725.28 2502.31L1666.8 2560.96C1666.8 2560.96 1782.65 2564.37 1893.49 2701.34C1787.21 2691.02 1666.8 2560.96 1666.8 2560.96L1611.05 2616.87C1611.05 2616.87 1678.7 2627.77 1740.14 2689.03C1646.33 2692.44 1611.05 2616.87 1611.05 2616.87C1611.05 2616.87 1506.26 2577.03 1523.91 2473.43C1575.21 2524.58 1611.05 2616.87 1611.05 2616.87L1666.8 2560.96C1666.8 2560.96 1539.55 2408.53 1523.15 2332.08C1651.96 2375.88 1666.8 2560.96 1666.8 2560.96L1725.28 2502.31C1725.28 2502.31 1603.64 2338 1599.86 2255.15C1713.14 2329.58 1725.28 2502.31 1725.28 2502.31L1786.33 2441.08C1786.33 2441.08 1665.73 2256.19 1663.24 2174.43C1769.74 2264.46 1786.33 2441.08 1786.33 2441.08L1846.98 2380.25C1846.98 2380.25 1746.92 2201.3 1745.19 2118.78C1845.61 2192.25 1846.98 2380.25 1846.98 2380.25L1910.01 2317.05C1910.01 2317.05 1814.52 2125.5 1810.64 2053.14C1893.45 2110.86 1910.01 2317.05 1910.01 2317.05L1969.49 2257.39C1969.49 2257.39 1911.66 2054.62 1911.16 1986.93C2006.75 2081.94 1969.49 2257.39 1969.49 2257.39L2027.16 2199.55C2027.16 2199.55 1994.86 1977.94 2006.82 1933.64C2091.12 2043.55 2027.16 2199.55 2027.16 2199.55L2091.6 2134.92C2091.6 2134.92 2078.88 1950.28 2091.11 1904.57C2157.32 1970.59 2091.6 2134.92 2091.6 2134.92C2091.6 2134.92 2195.25 1964.76 2308.34 1917.55C2239.09 2008.48 2091.6 2134.92 2091.6 2134.92C2091.6 2134.92 2244.71 2057.72 2330.01 2142.77C2236.76 2157.55 2091.6 2134.92 2091.6 2134.92L2027.16 2199.55C2027.16 2199.55 2192.46 2150.68 2298.5 2224.47C2220.87 2234.33 2027.16 2199.55 2027.16 2199.55L1969.49 2257.39C1969.49 2257.39 2161.68 2236.72 2259.51 2334.26C2127.19 2353.93 1969.49 2257.39 1969.49 2257.39L1910.01 2317.05C1910.01 2317.05 2064.15 2305.91 2176.29 2417.72C2115.48 2409.81 1910.01 2317.05 1910.01 2317.05Z" fill="#003E26"/>
<path d="M1354.92 2873.75L1611.05 2616.87M1846.98 2380.25L1910.01 2317.05M1846.98 2380.25L1786.33 2441.08M1846.98 2380.25C1846.98 2380.25 1981.96 2378.65 2115.54 2488.05C1977.31 2469.8 1846.98 2380.25 1846.98 2380.25ZM1846.98 2380.25C1846.98 2380.25 1845.61 2192.25 1745.19 2118.78C1746.92 2201.3 1846.98 2380.25 1846.98 2380.25ZM2091.6 2134.92L2027.16 2199.55M2091.6 2134.92C2091.6 2134.92 2195.25 1964.76 2308.34 1917.55C2239.09 2008.48 2091.6 2134.92 2091.6 2134.92ZM2091.6 2134.92C2091.6 2134.92 2244.71 2057.72 2330.01 2142.77C2236.76 2157.55 2091.6 2134.92 2091.6 2134.92ZM2091.6 2134.92C2091.6 2134.92 2157.32 1970.59 2091.11 1904.57C2078.88 1950.28 2091.6 2134.92 2091.6 2134.92ZM1611.05 2616.87L1666.8 2560.96M1611.05 2616.87C1611.05 2616.87 1646.33 2692.44 1740.14 2689.03C1678.7 2627.77 1611.05 2616.87 1611.05 2616.87ZM1611.05 2616.87C1611.05 2616.87 1575.21 2524.58 1523.91 2473.43C1506.26 2577.03 1611.05 2616.87 1611.05 2616.87ZM1969.49 2257.39L1910.01 2317.05M1969.49 2257.39L2027.16 2199.55M1969.49 2257.39C1969.49 2257.39 2161.68 2236.72 2259.51 2334.26C2127.19 2353.93 1969.49 2257.39 1969.49 2257.39ZM1969.49 2257.39C1969.49 2257.39 2006.75 2081.94 1911.16 1986.93C1911.66 2054.62 1969.49 2257.39 1969.49 2257.39ZM1725.28 2502.31L1786.33 2441.08M1725.28 2502.31L1666.8 2560.96M1725.28 2502.31C1725.28 2502.31 1897.41 2509.82 1993.91 2648.05C1904.18 2642.61 1725.28 2502.31 1725.28 2502.31ZM1725.28 2502.31C1725.28 2502.31 1713.14 2329.58 1599.86 2255.15C1603.64 2338 1725.28 2502.31 1725.28 2502.31ZM1910.01 2317.05C1910.01 2317.05 2064.15 2305.91 2176.29 2417.72C2115.48 2409.81 1910.01 2317.05 1910.01 2317.05ZM1910.01 2317.05C1910.01 2317.05 1893.45 2110.86 1810.64 2053.14C1814.52 2125.5 1910.01 2317.05 1910.01 2317.05ZM2027.16 2199.55C2027.16 2199.55 2192.46 2150.68 2298.5 2224.47C2220.87 2234.33 2027.16 2199.55 2027.16 2199.55ZM2027.16 2199.55C2027.16 2199.55 2091.12 2043.55 2006.82 1933.64C1994.86 1977.94 2027.16 2199.55 2027.16 2199.55ZM1786.33 2441.08C1786.33 2441.08 2021.55 2497.75 2081.38 2591.35C1987.79 2585.29 1786.33 2441.08 1786.33 2441.08ZM1786.33 2441.08C1786.33 2441.08 1769.74 2264.46 1663.24 2174.43C1665.73 2256.19 1786.33 2441.08 1786.33 2441.08ZM1666.8 2560.96C1666.8 2560.96 1782.65 2564.37 1893.49 2701.34C1787.21 2691.02 1666.8 2560.96 1666.8 2560.96ZM1666.8 2560.96C1666.8 2560.96 1651.96 2375.88 1523.15 2332.08C1539.55 2408.53 1666.8 2560.96 1666.8 2560.96Z" stroke="#013C26" stroke-width="5"/>
<path d="M930.398 275.39L951.194 218.736C951.194 218.736 868.778 257.943 755.784 228.603C845.819 200.661 951.194 218.736 951.194 218.736L971.207 164.214C971.207 164.214 810.74 196.027 747.503 155.507C806.677 132.721 971.207 164.214 971.207 164.214L991.353 109.331C991.353 109.331 883.543 153.465 785.149 95.9193C841.785 73.8499 991.353 109.331 991.353 109.331L1010.65 56.763C1010.65 56.763 938.554 87.4777 831.713 34.7645C899.888 11.0064 1010.65 56.763 1010.65 56.763L1029.04 6.64586C1029.04 6.64586 984.426 19.1151 929.358 -1.09873C985.988 -29.7638 1029.04 6.64586 1029.04 6.64586C1029.04 6.64586 1104.67 1.43689 1123.17 70.0421C1077.19 53.1645 1029.04 6.64586 1029.04 6.64586L1010.65 56.763C1010.65 56.763 1131.94 114.317 1163.66 156.612C1072.18 166.196 1010.65 56.763 1010.65 56.763L991.353 109.331C991.353 109.331 1112.57 175.77 1138.35 225.567C1047.72 211.949 991.353 109.331 991.353 109.331L971.207 164.214C971.207 164.214 1097.61 243.582 1122.29 293.078C1031.41 267.96 971.207 164.214 971.207 164.214L951.194 218.736C951.194 218.736 1063.3 300.273 1087.73 350.45C1005.28 333.781 951.194 218.736 951.194 218.736L930.398 275.39C930.398 275.39 1043.26 365.956 1066.14 409.283C998.95 397.294 930.398 275.39 930.398 275.39L910.769 328.866C910.769 328.866 1003.7 436.982 1023.17 478.405C937.579 447.14 910.769 328.866 910.769 328.866L891.74 380.708C891.74 380.708 974.326 507.626 979.53 538.211C896.648 494.601 891.74 380.708 891.74 380.708L870.478 438.633C870.478 438.633 930.57 548.4 936.007 579.929C876.66 558.145 870.478 438.633 870.478 438.633C870.478 438.633 855.026 572.458 798.959 633.473C815.729 558.034 870.478 438.633 870.478 438.633C870.478 438.633 798.334 529.395 721.88 501.331C774.946 465.845 870.478 438.633 870.478 438.633L891.74 380.708C891.74 380.708 804.089 457.521 718.087 442.245C762.959 414.209 891.74 380.708 891.74 380.708L910.769 328.866C910.769 328.866 798.62 395.979 710.937 363.794C786.606 314.251 910.769 328.866 910.769 328.866L930.398 275.39C930.398 275.39 838.912 325.877 738.398 288.982C777.973 276.619 930.398 275.39 930.398 275.39Z" fill="#0E5233"/>
<path d="M1113.56 -223.602L1029.04 6.64587M951.194 218.736L930.398 275.39M951.194 218.736L971.207 164.214M951.194 218.736C951.194 218.736 868.778 257.943 755.784 228.603C845.819 200.661 951.194 218.736 951.194 218.736ZM951.194 218.736C951.194 218.736 1005.28 333.781 1087.73 350.45C1063.3 300.273 951.194 218.736 951.194 218.736ZM870.478 438.633L891.74 380.708M870.478 438.633C870.478 438.633 855.026 572.458 798.959 633.473C815.729 558.034 870.478 438.633 870.478 438.633ZM870.478 438.633C870.478 438.633 798.334 529.395 721.88 501.331C774.946 465.845 870.478 438.633 870.478 438.633ZM870.478 438.633C870.478 438.633 876.66 558.146 936.007 579.929C930.57 548.4 870.478 438.633 870.478 438.633ZM1029.04 6.64587L1010.65 56.763M1029.04 6.64587C1029.04 6.64587 985.988 -29.7638 929.358 -1.09873C984.426 19.1151 1029.04 6.64587 1029.04 6.64587ZM1029.04 6.64587C1029.04 6.64587 1077.19 53.1645 1123.17 70.0421C1104.67 1.4369 1029.04 6.64587 1029.04 6.64587ZM910.769 328.866L930.398 275.39M910.769 328.866L891.74 380.708M910.769 328.866C910.769 328.866 798.62 395.979 710.937 363.794C786.606 314.251 910.769 328.866 910.769 328.866ZM910.769 328.866C910.769 328.866 937.579 447.14 1023.17 478.405C1003.7 436.982 910.769 328.866 910.769 328.866ZM991.353 109.331L971.207 164.214M991.353 109.331L1010.65 56.763M991.353 109.331C991.353 109.331 883.543 153.465 785.149 95.9193C841.785 73.8499 991.353 109.331 991.353 109.331ZM991.353 109.331C991.353 109.331 1047.72 211.949 1138.35 225.567C1112.57 175.77 991.353 109.331 991.353 109.331ZM930.398 275.39C930.398 275.39 838.912 325.877 738.398 288.982C777.973 276.619 930.398 275.39 930.398 275.39ZM930.398 275.39C930.398 275.39 998.95 397.294 1066.14 409.283C1043.26 365.956 930.398 275.39 930.398 275.39ZM891.74 380.708C891.74 380.708 804.089 457.521 718.087 442.245C762.959 414.209 891.74 380.708 891.74 380.708ZM891.74 380.708C891.74 380.708 896.648 494.601 979.53 538.211C974.326 507.626 891.74 380.708 891.74 380.708ZM971.207 164.214C971.207 164.214 810.74 196.027 747.503 155.507C806.677 132.721 971.207 164.214 971.207 164.214ZM971.207 164.214C971.207 164.214 1031.41 267.96 1122.29 293.078C1097.61 243.582 971.207 164.214 971.207 164.214ZM1010.65 56.763C1010.65 56.763 938.554 87.4777 831.713 34.7645C899.888 11.0064 1010.65 56.763 1010.65 56.763ZM1010.65 56.763C1010.65 56.763 1072.18 166.196 1163.66 156.612C1131.94 114.317 1010.65 56.763 1010.65 56.763Z" stroke="#0E5233" stroke-width="5"/>
<path d="M1707.55 2560.28C1692.19 2594.16 1633.27 2653.85 1615.75 2642.12C1598.22 2630.39 1599.5 2576.25 1604.05 2543.64C1608.59 2511.03 1644.15 2471.75 1644.15 2471.75C1644.15 2471.75 1612.61 2493.4 1600.61 2488.16C1588.61 2482.93 1584.5 2458.83 1588.91 2445.1C1590.84 2439.11 1603.79 2423.93 1617.77 2408.74C1604.56 2418.74 1589.29 2426.37 1574.35 2425C1534.87 2421.4 1533.15 2383.16 1549.08 2358.09C1565.01 2333.03 1596.26 2270.99 1596.26 2270.99C1596.26 2270.99 1548.54 2331.33 1516.7 2335.39C1484.87 2339.44 1444.2 2318.92 1447.69 2272.23C1451.18 2225.53 1533.97 2114.22 1533.97 2114.22C1533.97 2114.22 1456.16 2218.77 1411.8 2248.49C1367.43 2278.2 1288.48 2207.54 1291.13 2163.46C1292.37 2142.85 1315.88 2101.25 1340.58 2062.78C1308.41 2106.5 1271.71 2150.97 1255.73 2150.63C1224.37 2149.95 1157.5 2050.86 1175.18 2008.19C1185.54 1983.19 1229.09 1942.85 1263.4 1913.71C1226 1941.91 1176.61 1973.32 1165.61 1952.21C1153.84 1849.33 1269.11 1755.96 1269.11 1755.96C1269.1 1755.98 1359.76 1666.7 1502.94 1725.48C1542.06 1741.55 1464.84 1817.59 1464.84 1817.59C1464.84 1817.59 1510.19 1772.93 1547.71 1770.95C1585.22 1768.98 1669.18 1855.12 1647.3 1895.49C1637.79 1913.06 1618.55 1925.25 1599.86 1933.42C1627.4 1926.37 1659.99 1920.51 1677.58 1926.24C1711.81 1937.4 1781.99 2074.17 1757.04 2098.73C1739.44 2116.07 1688.55 2100.93 1660.1 2090.51C1692.19 2103.61 1753.88 2130.42 1773.46 2150.3C1800.34 2177.6 1810.05 2256.14 1788.35 2273.45C1776.19 2283.16 1751.04 2276.25 1731.29 2268.3C1752.26 2279.4 1779.01 2296.42 1788.17 2314.82C1804.05 2346.71 1797.77 2376.76 1773.71 2388.51C1749.66 2400.27 1723.69 2373.89 1723.69 2373.89C1723.69 2373.89 1774.81 2442.86 1775.68 2467.6C1776.55 2492.34 1767.52 2509.72 1740.46 2519.32C1724.17 2525.1 1714.16 2515.13 1708.77 2506.28C1713.12 2518.38 1717.27 2538.82 1707.55 2560.28Z" fill="#53A447"/>
<path d="M1113.36 1635.27C1160.8 1676.99 1213.75 1720.53 1267.8 1766.12C1519.17 1978.15 1782.17 2265.22 1638.55 2590.17" stroke="#137447" stroke-width="5"/>
<path d="M1657.7 2105.9C1645.99 2133.2 1452.94 1972.84 1452.94 1972.84C1478.33 2074.55 1467.02 2187.61 1580.85 2244.32C1694.69 2301.03 1803.85 2222.07 1809.98 2180.74C1809.98 2180.74 1822.25 2358.89 1974.36 2391.2C2126.47 2423.51 2263.13 2264.43 2263.13 2264.43C2263.13 2264.43 1999.6 2223.54 1999.41 2186.47C1999.23 2149.41 2257.56 2237.61 2284.25 2204.88C2310.93 2172.16 2288 2068.47 2288 2068.47C2196.38 2124.6 1890.44 2078.59 1997.71 2062.99C2104.97 2047.38 2266.14 2054.49 2295.33 2024.06C2324.52 1993.62 2286.35 1902.26 2284.34 1829.47C2284.34 1829.47 1994.94 1969.02 1986.44 1939.19C1977.93 1909.35 2238.59 1810.31 2257.35 1785.59C2276.11 1760.87 2203.09 1662.78 2203.09 1662.78C2203.09 1662.78 2096.85 1792.48 2020.41 1799.93C1943.98 1807.37 2095.91 1700.45 2135.68 1648.05C2175.46 1595.64 2127.23 1447.51 2127.23 1447.51C2127.23 1447.51 2017.11 1453.48 1971.67 1523.57C1926.22 1593.65 1950 1681.03 1918.48 1722.56C1886.96 1764.1 1888.96 1528.1 1888.96 1528.1C1888.96 1528.1 1833.95 1541.3 1778.91 1616.64C1748.14 1658.74 1868.51 1828.13 1837.08 1844.06C1805.65 1859.99 1689.98 1614.6 1689.98 1614.6C1689.98 1614.6 1593.43 1697.29 1593.6 1741.59C1593.76 1785.9 1794.41 1981.21 1753.21 1984.44C1712 1987.68 1535.87 1789.97 1535.87 1789.97C1535.87 1789.97 1479.86 1863.77 1482.3 1914.93C1484.74 1966.09 1667.6 2082.81 1657.7 2105.9Z" fill="#137447"/>
<path d="M1811.51 2180.96C1811.49 2181.75 1810.56 2145.77 1810.5 2145.27C1810.43 2144.77 1811.54 2180.16 1811.51 2180.96ZM1963.2 1740.44C1963.38 1740.1 1952.13 1759.04 1949.11 1769.31C1939.2 1803.01 1907.51 1843.71 1907 1877.85C1907 1877.86 1914.54 1854.41 1917.56 1842.49C1923.88 1817.54 1939.69 1795.81 1947.31 1771.23C1950.7 1760.3 1958.03 1750.7 1963.2 1740.44ZM1814.41 2145.71C1814.25 2147.02 1816.37 2124.51 1818.41 2113.75C1822.83 2090.45 1837.48 2070.03 1842.72 2046.91C1844.92 2037.24 1850.42 2028.53 1852.59 2018.86C1852.8 2017.92 1848.45 2037.14 1846.52 2046.31C1839.32 2080.5 1818.77 2111 1814.41 2145.71ZM1812.42 2142.07C1812.18 2142.03 1813.31 2148.48 1811.24 2148.21C1790.3 2145.51 1721.33 2058.03 1692.13 2036.9C1690.61 2035.8 1685.73 2032.1 1685.05 2030.25C1692.36 2030.24 1706.3 2049.97 1712.15 2053.89C1737.01 2070.54 1754.94 2096.24 1779.79 2112.9C1791.91 2121.02 1814.1 2142.32 1812.42 2142.07ZM1814.02 2147.82C1814.23 2147.66 1808.62 2143.67 1810.36 2142.33C1823.06 2132.54 1908.4 2142.79 1935.44 2138.62C1944.21 2137.26 1974.85 2133.17 1983.03 2137.4C1983.11 2137.44 1959.02 2137.77 1947.29 2140.03C1917.95 2145.66 1887.18 2140 1857.83 2145.62C1843.47 2148.37 1812.6 2148.83 1814.02 2147.82ZM1855.4 2019.79C1855.14 2020.97 1862.4 1995.13 1865.14 1982.63C1870.86 1956.58 1886.63 1933.49 1892.73 1907.53C1895.19 1897.08 1901.12 1887.55 1904.15 1877.24C1904.32 1876.63 1896.33 1901.7 1893.4 1914.19C1887.32 1940.12 1871.59 1963.2 1865.93 1989.23C1863.64 1999.76 1857.7 2009.27 1855.4 2019.79ZM1855.18 2017.37C1838.16 2006.95 1811.06 1938.81 1787.28 1907.35C1786.24 1905.97 1783.58 1902.25 1783.36 1900.46C1783.35 1900.39 1792.88 1917.61 1798.99 1925.22C1814.08 1943.99 1821.67 1968.05 1836.75 1986.82C1844.2 1996.09 1855.72 2017.7 1855.18 2017.37ZM1855.55 2021.16C1871.9 2007.54 1953.46 2005.35 1994.05 1992.91C1995.96 1992.33 2000.93 1990.96 2002.96 1991.39C1997.99 1996.86 1978.21 1995.51 1971.42 1997.82C1946.41 2006.35 1918.76 2005.15 1893.75 2013.67C1881.47 2017.85 1854.93 2021.68 1855.55 2021.16ZM1906.72 1876.89C1900.43 1868.55 1877.89 1798.02 1879.66 1773.6C1879.66 1773.58 1881.45 1781.2 1882.9 1784.81C1890.78 1804.48 1891 1826.67 1898.89 1846.33C1902.8 1856.09 1906.82 1877.03 1906.72 1876.89ZM1906.53 1878.85C1913.8 1872.06 1982.61 1842.34 2006.78 1842.01C2006.82 1842.01 1986.28 1848.34 1976.8 1853.25C1957.84 1863.07 1935.61 1865.44 1916.65 1875.26C1913.47 1876.91 1906.48 1878.9 1906.53 1878.85Z" fill="#074A2B" stroke="#074A2B" stroke-width="2" stroke-linecap="round" stroke-linejoin="round"/>
<path d="M2247.74 1842.96C2272.62 1803.45 2356.08 1739.29 2375.86 1756.87C2395.65 1774.44 2384.82 1841.54 2373.6 1881.32C2362.38 1921.1 2311.46 1963.87 2311.46 1963.87C2311.46 1963.87 2354.37 1942.33 2368.39 1950.89C2382.42 1959.45 2383.42 1990.12 2375.59 2006.44C2372.17 2013.56 2353.48 2030.22 2333.5 2046.73C2351.63 2036.54 2371.92 2029.67 2390.27 2033.91C2438.74 2045.13 2434.36 2092.98 2410.26 2121.43C2386.17 2149.88 2336.72 2221.68 2336.72 2221.68C2336.72 2221.68 2406.37 2154.8 2446.64 2155.19C2486.92 2155.59 2533.98 2188.04 2521.67 2245.51C2509.36 2302.98 2387.41 2427.26 2387.41 2427.26C2387.41 2427.26 2502.02 2310.53 2562.26 2281.16C2622.49 2251.79 2708.61 2353.13 2697.78 2407.49C2692.72 2432.9 2656.38 2480.62 2619.1 2524.24C2666.57 2475.36 2719.8 2426.34 2739.6 2429.49C2778.49 2435.69 2844.71 2570.32 2815.44 2620.36C2798.3 2649.68 2737.26 2692.41 2689.62 2722.79C2740.94 2694.1 2807.72 2663.47 2817.79 2691.6C2814.85 2821.54 2655.58 2917.96 2655.58 2917.96C2655.59 2917.94 2527.62 3013.48 2359.62 2915.93C2313.72 2889.28 2422.73 2807.91 2422.73 2807.91C2422.73 2807.91 2358.7 2855.7 2311.71 2851.75C2264.73 2847.79 2175.04 2726.35 2209.14 2679.88C2223.97 2659.66 2249.97 2647.79 2274.61 2640.82C2239.15 2644.89 2197.63 2646.61 2176.74 2636.48C2136.08 2616.76 2072.16 2434.71 2107.38 2408.42C2132.23 2389.88 2192.93 2417.39 2226.53 2435.2C2188.85 2413.43 2116.73 2369.56 2095.78 2341.5C2067.01 2302.96 2068.35 2203.64 2098.28 2185.82C2115.07 2175.83 2145.16 2188.72 2168.36 2201.97C2144.18 2184.58 2113.83 2158.86 2105.58 2134.41C2091.28 2092.05 2104.22 2055.75 2136.14 2045.25C2168.06 2034.74 2195.85 2071.97 2195.85 2071.97C2195.85 2071.97 2144.06 1977.48 2147.2 1946.57C2150.34 1915.66 2164.53 1895.59 2199.82 1888.27C2221.06 1883.86 2231.81 1897.97 2237 1909.9C2233.65 1894.11 2231.98 1867.98 2247.74 1842.96Z" fill="#53A447"/>
<path d="M2828.64 3094.64C2776.77 3034.65 2718.37 2971.48 2658.95 2905.56C2382.57 2598.98 2104.57 2197.12 2338.64 1817.57" stroke="#137447" stroke-width="5"/>
<path d="M2103.37 1286.94L2183.19 1246.99C2183.19 1246.99 2054.68 1205.7 1962.71 1059.57C2088.01 1120.73 2183.19 1246.99 2183.19 1246.99L2260.01 1208.55C2260.01 1208.55 2054.92 1080.18 2027.87 972.446C2114.7 1007.87 2260.01 1208.55 2260.01 1208.55L2337.33 1169.85C2337.33 1169.85 2176.47 1108.12 2128.81 946.416C2212.18 980.044 2337.33 1169.85 2337.33 1169.85L2411.39 1132.78C2411.39 1132.78 2302.61 1092.8 2240.95 927.735C2338.46 971.239 2411.39 1132.78 2411.39 1132.78L2482 1097.44C2482 1097.44 2421.3 1065.65 2382.47 988.067C2472.52 1014.58 2482 1097.44 2482 1097.44C2482 1097.44 2568.74 1168.48 2519.13 1261.12C2486.71 1196.34 2482 1097.44 2482 1097.44L2411.39 1132.78C2411.39 1132.78 2483.71 1317.7 2475.02 1395.41C2366.76 1313.01 2411.39 1132.78 2411.39 1132.78L2337.33 1169.85C2337.33 1169.85 2400.56 1364.27 2377.87 1444.03C2294.05 1337.51 2337.33 1169.85 2337.33 1169.85L2260.01 1208.55C2260.01 1208.55 2315.73 1422.15 2292.15 1500.48C2219.71 1381.31 2260.01 1208.55 2260.01 1208.55L2183.19 1246.99C2183.19 1246.99 2221.32 1448.44 2196.77 1527.25C2124.85 1425.73 2183.19 1246.99 2183.19 1246.99L2103.37 1286.94C2103.37 1286.94 2133.16 1498.88 2113.89 1568.74C2053.67 1487.73 2103.37 1286.94 2103.37 1286.94L2028.03 1324.65C2028.03 1324.65 2018.55 1535.29 1997.55 1599.64C1937.04 1479.22 2028.03 1324.65 2028.03 1324.65L1954.99 1361.21C1954.99 1361.21 1915.32 1581.62 1889.93 1619.83C1844.85 1488.86 1954.99 1361.21 1954.99 1361.21L1873.39 1402.05C1873.39 1402.05 1826.87 1581.19 1800.77 1620.66C1758.92 1537.05 1873.39 1402.05 1873.39 1402.05C1873.39 1402.05 1721.11 1530.54 1598.88 1539.44C1693.4 1475.18 1873.39 1402.05 1873.39 1402.05C1873.39 1402.05 1703.69 1426.7 1649.78 1318.98C1742.9 1334.54 1873.39 1402.05 1873.39 1402.05L1954.99 1361.21C1954.99 1361.21 1782.73 1355.11 1705.58 1251.49C1782.32 1266.77 1954.99 1361.21 1954.99 1361.21L2028.03 1324.65C2028.03 1324.65 1839.21 1283.28 1777.38 1159.74C1909.1 1183.07 2028.03 1324.65 2028.03 1324.65L2103.37 1286.94C2103.37 1286.94 1953.66 1248.6 1882.79 1106.99C1937.94 1133.78 2103.37 1286.94 2103.37 1286.94Z" fill="#2A9135"/>
<path d="M2806.39 935.086L2482 1097.44M2183.19 1246.99L2103.37 1286.94M2183.19 1246.99L2260.01 1208.55M2183.19 1246.99C2183.19 1246.99 2054.68 1205.7 1962.71 1059.57C2088.01 1120.73 2183.19 1246.99 2183.19 1246.99ZM2183.19 1246.99C2183.19 1246.99 2124.85 1425.73 2196.77 1527.25C2221.32 1448.44 2183.19 1246.99 2183.19 1246.99ZM1873.39 1402.05L1954.99 1361.21M1873.39 1402.05C1873.39 1402.05 1721.11 1530.54 1598.88 1539.44C1693.4 1475.18 1873.39 1402.05 1873.39 1402.05ZM1873.39 1402.05C1873.39 1402.05 1703.69 1426.7 1649.78 1318.98C1742.9 1334.54 1873.39 1402.05 1873.39 1402.05ZM1873.39 1402.05C1873.39 1402.05 1758.92 1537.05 1800.77 1620.66C1826.87 1581.19 1873.39 1402.05 1873.39 1402.05ZM2482 1097.44L2411.39 1132.78M2482 1097.44C2482 1097.44 2472.52 1014.58 2382.47 988.067C2421.3 1065.65 2482 1097.44 2482 1097.44ZM2482 1097.44C2482 1097.44 2486.71 1196.34 2519.13 1261.12C2568.74 1168.48 2482 1097.44 2482 1097.44ZM2028.03 1324.65L2103.37 1286.94M2028.03 1324.65L1954.99 1361.21M2028.03 1324.65C2028.03 1324.65 1839.21 1283.28 1777.38 1159.74C1909.1 1183.07 2028.03 1324.65 2028.03 1324.65ZM2028.03 1324.65C2028.03 1324.65 1937.04 1479.22 1997.55 1599.64C2018.55 1535.29 2028.03 1324.65 2028.03 1324.65ZM2337.33 1169.85L2260.01 1208.55M2337.33 1169.85L2411.39 1132.78M2337.33 1169.85C2337.33 1169.85 2176.47 1108.12 2128.81 946.416C2212.18 980.044 2337.33 1169.85 2337.33 1169.85ZM2337.33 1169.85C2337.33 1169.85 2294.05 1337.51 2377.87 1444.03C2400.56 1364.27 2337.33 1169.85 2337.33 1169.85ZM2103.37 1286.94C2103.37 1286.94 1953.66 1248.6 1882.79 1106.99C1937.94 1133.78 2103.37 1286.94 2103.37 1286.94ZM2103.37 1286.94C2103.37 1286.94 2053.67 1487.73 2113.89 1568.74C2133.16 1498.88 2103.37 1286.94 2103.37 1286.94ZM1954.99 1361.21C1954.99 1361.21 1782.73 1355.11 1705.58 1251.49C1782.32 1266.77 1954.99 1361.21 1954.99 1361.21ZM1954.99 1361.21C1954.99 1361.21 1844.85 1488.86 1889.93 1619.83C1915.32 1581.62 1954.99 1361.21 1954.99 1361.21ZM2260.01 1208.55C2260.01 1208.55 2054.92 1080.18 2027.87 972.446C2114.7 1007.87 2260.01 1208.55 2260.01 1208.55ZM2260.01 1208.55C2260.01 1208.55 2219.71 1381.31 2292.15 1500.48C2315.73 1422.15 2260.01 1208.55 2260.01 1208.55ZM2411.39 1132.78C2411.39 1132.78 2302.61 1092.8 2240.95 927.735C2338.46 971.239 2411.39 1132.78 2411.39 1132.78ZM2411.39 1132.78C2411.39 1132.78 2366.76 1313.01 2475.02 1395.41C2483.71 1317.7 2411.39 1132.78 2411.39 1132.78Z" stroke="#2A9135" stroke-width="5"/>
</g>
</svg>
